<?xml version="1.0" encoding="UTF-8"?>
<svg id="Layer_2" data-name="Layer 2" xmlns="http://www.w3.org/2000/svg" viewBox="0 0 187.24 136.03">
  <defs>
    <style>
      .cls-1 {
        fill: #fff;
        stroke: #000;
        stroke-linecap: round;
        stroke-linejoin: round;
        stroke-width: 1.5px;
      }
    </style>
  </defs>
  <g id="say_hi" data-name="say hi">
    <path class="cls-1" d="m9.65,23.69s-.23-10.71-.24-14.32c-.02-4.67,3.5-8.46,7.72-4.92,3.07,2.58,9.87,11.08,9.87,11.08"/>
    <path d="m159.9,124.7H38.42c-6.93,0-12.6,2.55-12.6,5.67h0c0,3.12,5.67,5.67,12.6,5.67h121.48c6.93,0,12.6-2.55,12.6-5.67h0c0-3.12-5.67-5.67-12.6-5.67Z"/>
    <path class="cls-1" d="m116.16,23.77h-45.88c-.13,0-.26,0-.39.01-6.89-9.74-18.24-16.11-31.08-16.11C17.79,7.67.75,24.7.75,45.72c0,12.69,6.22,23.92,15.77,30.84,0,.33-.03.66-.03.99h0c0,39.81,15.83,53.79,61,53.79h44.33c38.33,0,64.67-12.31,64.67-53.79h0c0-29.58-22-53.79-70.33-53.79Z"/>
    <path class="cls-1" d="m18.24,61.37s2.77,3.17,6.78,3.17,6.36-3.17,6.36-3.17"/>
    <path class="cls-1" d="m15.33,36.98c0,2.55,2.31,4.53,4.87,4.53,1.49,0,2.76-.74,3.53-2.21.85,1.1,2.32,2.31,4.76,2.31,2.56,0,4.43-1.88,4.61-4.27"/>
    <circle cx="19.66" cy="29.2" r="1.44"/>
    <circle cx="30.03" cy="29.2" r="1.35"/>
    <path class="cls-1" d="m44.61,10.98s6.61-6.61,9.28-9.06,8.17-1.01,8.49,3.78c.25,3.72,1.56,14.56,1.56,14.56"/>
    <path class="cls-1" d="m16.52,76.56c2.14,2.06,6.33,3.06,10.49,3.22"/>
  </g>
</svg>