<?xml version="1.0" encoding="UTF-8"?>
<svg id="Layer_2" data-name="Layer 2" xmlns="http://www.w3.org/2000/svg" viewBox="0 0 209 198.67">
  <defs>
    <style>
      .cls-1 {
        fill: #fff;
      }
    </style>
  </defs>
  <g id="Layer_3" data-name="Layer 3">
    <g>
      <rect class="cls-1" width="209" height="198.67"/>
      <g>
        <path class="cls-1" d="m24.03,79.47s-.23-10.71-.24-14.32c-.02-4.67,3.5-8.46,7.72-4.92,3.07,2.58,9.87,11.08,9.87,11.08"/>
        <path d="m24.03,80.22c-.41,0-.74-.33-.75-.73,0-.11-.23-10.76-.24-14.34,0-3.02,1.37-5.7,3.43-6.67,1.71-.8,3.67-.38,5.52,1.17,3.09,2.59,9.7,10.83,9.98,11.18.26.32.21.8-.12,1.05-.32.26-.79.21-1.05-.12-.07-.08-6.79-8.47-9.77-10.97-1.4-1.18-2.76-1.51-3.92-.96-1.54.72-2.57,2.85-2.57,5.3.01,3.57.24,14.2.24,14.31,0,.41-.32.76-.73.77h-.02Z"/>
      </g>
      <path d="m174.28,180.48H52.8c-6.93,0-12.6,2.55-12.6,5.67h0c0,3.12,5.67,5.67,12.6,5.67h121.48c6.93,0,12.6-2.55,12.6-5.67h0c0-3.12-5.67-5.67-12.6-5.67Z"/>
      <g>
        <path class="cls-1" d="m130.54,79.55h-45.88c-.13,0-.26,0-.39.01-6.89-9.74-18.24-16.11-31.08-16.11-21.02,0-38.05,17.04-38.05,38.05,0,12.69,6.22,23.92,15.77,30.84,0,.33-.03.66-.03.99h0c0,39.81,15.83,53.79,61,53.79h44.33c38.33,0,64.67-12.31,64.67-53.79h0c0-29.58-22-53.79-70.33-53.79Z"/>
        <path d="m136.21,187.87h-44.33c-45.59,0-61.75-14.27-61.75-54.54,0-.2,0-.41.01-.61h0c-9.88-7.32-15.76-18.95-15.76-31.22,0-21.4,17.41-38.8,38.8-38.8,12.44,0,24.17,6.01,31.46,16.1h.01s45.88,0,45.88,0c22.81,0,41.4,5.52,53.78,15.98,11.32,9.56,17.31,22.9,17.31,38.56,0,37.21-20.79,54.54-65.42,54.54ZM53.18,64.2c-20.57,0-37.3,16.73-37.3,37.3,0,11.92,5.78,23.22,15.46,30.23.2.14.31.38.31.62v.42c-.02.19-.03.37-.03.56,0,20.42,4.1,33.14,13.31,41.26,9.23,8.14,23.71,11.78,46.94,11.78h44.33c20.76,0,35.9-3.66,46.27-11.19,11.88-8.62,17.65-22.31,17.65-41.84,0-32.71-26.66-53.04-69.58-53.04h-46.27c-.29.04-.48-.11-.62-.31-7-9.89-18.39-15.79-30.47-15.79Z"/>
      </g>
      <g>
        <path class="cls-1" d="m32.62,117.15s2.77,3.17,6.78,3.17,6.36-3.17,6.36-3.17"/>
        <path d="m39.4,121.07c-4.3,0-7.22-3.28-7.34-3.42-.27-.31-.24-.78.07-1.06.31-.27.78-.24,1.06.07.03.03,2.61,2.91,6.21,2.91s5.74-2.84,5.76-2.87c.25-.33.72-.4,1.05-.15.33.25.4.71.15,1.05-.11.14-2.63,3.47-6.97,3.47Z"/>
      </g>
      <g>
        <path class="cls-1" d="m29.71,92.76c0,2.55,2.31,4.53,4.87,4.53,1.49,0,2.76-.74,3.53-2.21.85,1.1,2.32,2.31,4.76,2.31,2.56,0,4.43-1.88,4.61-4.27"/>
        <path d="m42.86,98.13c-2.18,0-3.68-.88-4.67-1.83-.9,1.13-2.15,1.73-3.62,1.73-3.04,0-5.62-2.42-5.62-5.28,0-.41.34-.75.75-.75s.75.34.75.75c0,2.05,1.89,3.78,4.12,3.78,1.25,0,2.24-.63,2.87-1.81.12-.23.34-.38.6-.4.25-.02.5.09.66.29,1.03,1.34,2.43,2.02,4.16,2.02,2.08,0,3.71-1.5,3.86-3.58.03-.41.39-.72.8-.69.41.03.72.39.69.8-.22,2.88-2.47,4.96-5.36,4.96Z"/>
      </g>
      <circle cx="34.04" cy="84.98" r="1.44"/>
      <circle cx="44.41" cy="84.98" r="1.35"/>
      <g>
        <path class="cls-1" d="m58.98,66.76s6.61-6.61,9.28-9.06,8.17-1.01,8.49,3.78c.25,3.72,1.56,14.56,1.56,14.56"/>
        <path d="m78.32,76.79c-.37,0-.7-.28-.74-.66-.05-.44-1.31-10.9-1.57-14.59-.12-1.83-1.14-3.25-2.78-3.91-1.57-.63-3.36-.37-4.46.63-2.62,2.41-9.19,8.97-9.25,9.03-.29.29-.77.29-1.06,0s-.29-.77,0-1.06c.07-.07,6.65-6.65,9.3-9.08,1.54-1.41,3.91-1.77,6.03-.92,2.16.87,3.55,2.81,3.72,5.2.25,3.66,1.55,14.41,1.56,14.52.05.41-.24.78-.65.83-.03,0-.06,0-.09,0Z"/>
      </g>
      <g>
        <path class="cls-1" d="m30.9,132.34c2.14,2.06,6.33,3.06,10.49,3.22"/>
        <path d="m41.39,136.31s-.02,0-.03,0c-4.91-.2-8.91-1.45-10.98-3.43-.3-.29-.31-.76-.02-1.06.29-.3.76-.31,1.06-.02,1.78,1.71,5.52,2.84,10,3.02.41.02.74.37.72.78-.02.4-.35.72-.75.72Z"/>
      </g>
    </g>
  </g>
</svg>