<?xml version="1.0" encoding="UTF-8"?>
<svg id="Layer_2" data-name="Layer 2" xmlns="http://www.w3.org/2000/svg" xmlns:xlink="http://www.w3.org/1999/xlink" viewBox="0 0 256.51 167.58">
  <defs>
    <style>
      .cls-1 {
        fill: #fff;
      }

      .cls-2 {
        clip-path: url(#clippath);
      }

      .cls-3 {
        fill: none;
      }
    </style>
    <clipPath id="clippath">
      <path class="cls-3" d="m254.89,147.12c0,10.22-57.06,18.5-127.44,18.5S0,157.33,0,147.12,57.06,0,127.44,0s127.44,136.9,127.44,147.12Z"/>
    </clipPath>
  </defs>
  <g id="Layer_6" data-name="Layer 6">
    <g>
      <g>
        <g>
          <ellipse cx="128.32" cy="154.5" rx="127.44" ry="12.33"/>
          <path d="m128.32,167.58c-34.07,0-66.09-1.28-90.19-3.62C.12,160.29.12,155.93.12,154.5s0-5.79,38-9.47c24.09-2.33,56.12-3.62,90.19-3.62s66.09,1.28,90.19,3.62c38,3.68,38,8.04,38,9.47s0,5.79-38,9.47c-24.09,2.33-56.12,3.62-90.19,3.62Zm0-24.67c-34.02,0-66,1.28-90.04,3.61-35.62,3.45-36.65,7.52-36.65,7.97s1.03,4.53,36.65,7.97c24.05,2.33,56.03,3.61,90.04,3.61s66-1.28,90.04-3.61c35.62-3.45,36.65-7.52,36.65-7.97s-1.03-4.53-36.65-7.97c-24.05-2.33-56.03-3.61-90.04-3.61Z"/>
        </g>
        <g class="cls-2">
          <g>
            <g>
              <path class="cls-1" d="m161.75,142.9c-.15,1.22-.29,3.19-.63,4.85-.32,1.54-1.35,2.87-2.81,3.47-.32.13-.65.22-.98.25-.45,1.19-1.1,2.28-1.92,3.22-.48,5.36-.69,9.27-1.41,13.58-1.3,7.74-4.24,12.83-7.47,16.12-3.23,3.29-6.75,4.78-9.19,5.34v9.24h-35.28v-11.81c-.81-2.92-2.81-7.55-7.81-12.62-10.63-10.79-13.11-27.97-13.11-28h-.01s-6.91-52.15,39.83-52.15c41.35,0,42.2,36.83,40.79,48.51Z"/>
              <path d="m137.34,199.72h-35.28c-.41,0-.75-.34-.75-.75v-11.71c-.82-2.9-2.8-7.34-7.59-12.2-10.14-10.29-12.96-26.09-13.29-28.27-.02-.05-.03-.1-.04-.15-.03-.25-3.2-25.52,10.34-40.98,6.99-7.98,17.16-12.02,30.23-12.02,13.88,0,24.56,4.11,31.75,12.22,11.95,13.48,10.25,33.29,9.79,37.13h0c-.04.33-.08.72-.12,1.14-.12,1.13-.26,2.53-.52,3.77-.38,1.83-1.6,3.33-3.26,4.01-.25.1-.49.18-.73.23-.44,1.04-1.02,2-1.73,2.85-.11,1.19-.2,2.32-.29,3.39-.3,3.6-.56,6.7-1.11,10.01-1.17,6.97-3.75,12.53-7.67,16.52-3.36,3.42-6.88,4.83-8.98,5.4v8.65c0,.41-.34.75-.75.75Zm-34.53-1.5h33.78v-8.49c0-.35.24-.65.58-.73,1.82-.42,5.39-1.64,8.82-5.13,3.7-3.77,6.15-9.06,7.27-15.72.54-3.25.8-6.32,1.09-9.89.1-1.15.2-2.35.31-3.64.01-.16.08-.31.18-.42.76-.88,1.36-1.88,1.78-2.99.1-.27.35-.46.63-.48.24-.02.49-.09.76-.2,1.2-.49,2.08-1.59,2.36-2.93.24-1.17.38-2.53.49-3.62.04-.43.09-.83.13-1.17.45-3.72,2.11-22.95-9.42-35.95-6.89-7.77-17.2-11.72-30.62-11.72-12.61,0-22.4,3.87-29.1,11.51-12.66,14.44-10.21,37.9-10,39.69.02.07.03.13.03.21.02.07,2.54,16.96,12.89,27.47,5.07,5.14,7.15,9.88,8,12.95.02.07.03.13.03.2v11.06Zm58.94-55.32h0,0Z"/>
            </g>
            <g>
              <g>
                <path d="m102.38,180.95v9.38s0-7.3-8.36-15.79c-10.64-10.8-13.12-27.99-13.12-27.99l9.08-3.11,2.77,4.73c-.65.48-1.06.7-1.09.49-1.21-.91-2.65-1.57-4.34-1.68-6.07-.39-2.81,15.71,2.88,20.71,1.45,1.28,4.12,3.12,6.82,2.57,2.15,3.62,3.2,6.85,4.81,9.06,0,0,0,0,0,0,.35.47.55,1.04.55,1.63Z"/>
                <path d="m102.38,191.08c-.41,0-.75-.34-.75-.75,0-.07-.13-7.12-8.15-15.26-10.69-10.85-13.22-27.7-13.33-28.41-.05-.36.16-.7.5-.82l9.08-3.11c.34-.11.71.02.89.33l2.76,4.73c.19.33.11.75-.2.98-.79.59-1.29.86-1.78.65-.11-.04-.21-.13-.3-.23-1.21-.89-2.51-1.38-3.86-1.46-.59-.04-1.44.07-1.99,1.39-1.59,3.84,1.04,14.17,5.41,18.01,1.26,1.11,3.73,2.9,6.17,2.4.31-.06.63.08.79.35,1.02,1.71,1.8,3.35,2.49,4.79.79,1.65,1.47,3.08,2.29,4.2,0,.01.02.02.03.04.44.61.68,1.31.68,2.04v9.38c0,.41-.34.75-.75.75Zm-12.11-22.34c1.25,1.86,2.67,3.65,4.28,5.28,3.78,3.84,5.9,7.44,7.08,10.27v-3.33c0-.42-.14-.82-.41-1.18-.01-.01-.02-.03-.03-.05-.9-1.23-1.6-2.71-2.41-4.41-.61-1.29-1.3-2.74-2.17-4.24-2.51.27-4.87-1.17-6.35-2.34Zm-8.53-21.68c.19,1.08.68,3.49,1.6,6.58-.16-1.98,0-3.77.54-5.09.66-1.59,1.88-2.42,3.47-2.31,1.49.09,2.91.59,4.25,1.47l-1.96-3.35-7.9,2.7Z"/>
              </g>
              <g>
                <path d="m120.72,94.39c-46.74,0-39.82,52.15-39.82,52.15l5.84,3.97c3.87-.47,8.1,0,11.53,0,11.32,0,11.94-12.18,11.94-12.18.77,9.27.89,12.37,7.98,4.91,8.52-8.98,14.91-34.24,14.91-34.24,15.78,16.19,20.37,28.21,22.3,41,.26,1.73,1.59,1.67,2.69,1.22,1.45-.6,2.49-1.92,2.81-3.46.34-1.66.48-3.63.63-4.86,1.41-11.68.56-48.51-40.79-48.51Z"/>
                <path d="m156.89,152.24c-.42,0-.79-.09-1.12-.28-.42-.24-.96-.75-1.12-1.85-1.87-12.47-6.22-24.02-21.17-39.63-1.44,5.34-7.21,25.33-14.75,33.28-3.45,3.64-5.27,4.8-6.7,4.3-1.29-.46-1.79-2.12-2.14-5.02-1.38,3.69-4.52,8.23-11.62,8.23-1.11,0-2.29-.05-3.53-.1-2.62-.11-5.33-.22-7.9.09-.18.02-.36-.02-.51-.12l-5.84-3.97c-.18-.12-.29-.31-.32-.52-.03-.25-3.21-25.52,10.34-40.98,6.99-7.98,17.16-12.02,30.23-12.02,13.88,0,24.56,4.11,31.75,12.22,11.95,13.48,10.25,33.29,9.79,37.13-.04.32-.08.69-.12,1.09-.12,1.14-.26,2.57-.52,3.83-.38,1.83-1.59,3.32-3.25,4-.53.22-1.02.33-1.47.33Zm-23.79-43.99c.2,0,.39.08.54.23,15.97,16.38,20.55,28.4,22.5,41.41.06.4.19.66.38.77.25.14.74.09,1.28-.13,1.2-.49,2.08-1.58,2.36-2.92.24-1.18.39-2.57.5-3.68.04-.41.08-.79.12-1.12.45-3.72,2.1-22.95-9.42-35.95-6.89-7.77-17.2-11.72-30.63-11.72-12.62,0-22.41,3.87-29.1,11.51-12.28,14.01-10.34,36.48-10.02,39.47l5.33,3.62c2.61-.29,5.4-.17,7.86-.07,1.23.05,2.39.1,3.47.1,10.46,0,11.16-11,11.19-11.47.02-.39.34-.7.74-.71,0,0,0,0,.01,0,.39,0,.71.3.75.69l.04.48c.32,3.89.63,7.57,1.53,7.89.48.16,1.75-.38,5.11-3.92,8.29-8.73,14.67-33.66,14.73-33.91.07-.26.27-.47.53-.54.06-.02.13-.03.19-.03Z"/>
              </g>
              <g>
                <path d="m147.28,159.05c-6.2,0-11.24-5.04-11.24-11.24v-2.74c0-4.33,3.52-7.85,7.85-7.85h6.78c4.33,0,7.85,3.52,7.85,7.85v2.74c0,6.2-5.04,11.24-11.24,11.24Zm-3.39-20.33c-3.5,0-6.35,2.85-6.35,6.35v2.74c0,5.37,4.37,9.74,9.74,9.74s9.74-4.37,9.74-9.74v-2.74c0-3.5-2.85-6.35-6.35-6.35h-6.78Z"/>
                <path d="m147.48,159.05h-.41c-6.08,0-11.03-5.55-11.03-12.37v-.84c0-4.75,3.46-8.62,7.71-8.62h7.06c4.25,0,7.71,3.87,7.71,8.62v.84c0,6.82-4.95,12.37-11.03,12.37Zm-3.74-20.33c-3.42,0-6.21,3.19-6.21,7.12v.84c0,6,4.28,10.87,9.53,10.87h.41c5.26,0,9.53-4.88,9.53-10.87v-.84c0-3.92-2.78-7.12-6.21-7.12h-7.06Z"/>
                <path d="m121.64,159.05h-.41c-6.08,0-11.03-5.55-11.03-12.37v-.84c0-4.75,3.46-8.62,7.71-8.62h7.06c4.25,0,7.71,3.87,7.71,8.62v.84c0,6.82-4.95,12.37-11.03,12.37Zm-3.74-20.33c-3.42,0-6.21,3.19-6.21,7.12v.84c0,6,4.28,10.87,9.53,10.87h.41c5.26,0,9.53-4.88,9.53-10.87v-.84c0-3.92-2.78-7.12-6.21-7.12h-7.06Z"/>
                <path d="m136.79,145.08c-.17,0-.33-.05-.47-.17-1.2-.96-2.8-.96-4,0-.32.26-.79.21-1.05-.12-.26-.32-.21-.79.12-1.05,1.76-1.41,4.12-1.41,5.88,0,.32.26.38.73.12,1.05-.15.19-.37.28-.58.28Z"/>
              </g>
              <path d="m135.22,164.95c-1.43,0-2.85-.14-4.25-.41-.41-.08-.67-.47-.59-.88.08-.41.47-.68.88-.59,2.61.5,5.3.5,8,0,.41-.08.8.19.88.6s-.19.8-.6.88c-1.44.27-2.88.41-4.31.41Z"/>
              <g>
                <path d="m126.23,144.65h-8.04c-.41,0-.75-.34-.75-.75s.34-.75.75-.75h8.04c.41,0,.75.34.75.75s-.34.75-.75.75Z"/>
                <g>
                  <path d="m124.11,143.9v2.77c0,1.29-.19,2.47-.5,3.32-.31.85-.73,1.38-1.19,1.38-.93,0-1.69-2.12-1.69-4.7v-2.77h3.39Z"/>
                  <path d="m122.42,152.13c-1.68,0-2.44-2.83-2.44-5.45v-2.77c0-.41.34-.75.75-.75h3.39c.41,0,.75.34.75.75v2.77c0,1.34-.19,2.61-.54,3.58-.56,1.55-1.34,1.88-1.9,1.88Zm-.94-7.48v2.02c0,2.49.7,3.84.98,3.96-.01-.03.22-.25.45-.89.29-.8.45-1.92.45-3.07v-2.02h-1.89Z"/>
                </g>
              </g>
              <g>
                <path d="m149.93,144.65h-8.47c-.41,0-.75-.34-.75-.75s.34-.75.75-.75h8.47c.41,0,.75.34.75.75s-.34.75-.75.75Z"/>
                <g>
                  <path d="m147.39,143.9v2.77c0,1.29-.19,2.47-.5,3.32-.31.85-.73,1.38-1.19,1.38-.93,0-1.69-2.12-1.69-4.7v-2.77h3.39Z"/>
                  <path d="m145.69,152.13c-1.68,0-2.44-2.83-2.44-5.45v-2.77c0-.41.34-.75.75-.75h3.39c.41,0,.75.34.75.75v2.77c0,1.34-.19,2.61-.54,3.58-.56,1.55-1.34,1.88-1.9,1.88Zm-.94-7.48v2.02c0,2.49.7,3.84.98,3.96-.01-.03.22-.25.45-.89.29-.8.46-1.92.46-3.07v-2.02h-1.89Z"/>
                </g>
              </g>
              <g>
                <path d="m152.62,135.34h-10.17c-.41,0-.75-.34-.75-.75s.34-.75.75-.75h10.17c.41,0,.75.34.75.75s-.34.75-.75.75Z"/>
                <path d="m126.42,135.34h-10.17c-.41,0-.75-.34-.75-.75s.34-.75.75-.75h10.17c.41,0,.75.34.75.75s-.34.75-.75.75Z"/>
              </g>
              <path d="m137.11,199.72c-.41,0-.75-.34-.75-.75v-9.24c0-.35.24-.65.58-.73,3.07-.7,13.32-4.28,16.09-20.86.54-3.25.8-6.33,1.09-9.9.24-2.88.51-6.15.98-10.2.23-1.96.44-4.03.62-6.15.95-10.93.34-25.87-8.03-35-4.72-5.15-11.41-7.76-19.88-7.76-7.75,0-14.18,2.53-19.11,7.52-6.52,6.6-10.18,17.62-10.03,30.25.01,1.59.09,3.25.24,4.95l.13,1.4c.02.24-.07.47-.24.62l-.68.62c-1.74,1.57-3.71,3.36-4.93,4.27-.33.25-.8.18-1.05-.15-.25-.33-.18-.8.15-1.05,1.16-.87,3.1-2.62,4.82-4.18l.4-.37-.09-1.03c-.15-1.74-.23-3.44-.24-5.07-.15-13.21,3.56-24.34,10.46-31.32,5.22-5.28,12.01-7.96,20.17-7.96,8.91,0,15.97,2.77,20.99,8.25,8.73,9.53,9.39,24.91,8.41,36.14-.19,2.13-.4,4.22-.62,6.19-.47,4.02-.74,7.28-.98,10.15-.3,3.6-.55,6.71-1.11,10.02-2.77,16.57-12.8,20.88-16.65,21.92v8.66c0,.41-.34.75-.75.75Z"/>
              <g>
                <path class="cls-1" d="m98.49,153.13s-.29-7.21-9.37-7.71c-5.2-.29-5.04,5.96-5.04,5.96"/>
                <path d="m98.49,153.88c-.4,0-.73-.32-.75-.72-.01-.29-.42-6.54-8.66-7-1.16-.06-2.07.23-2.77.9-1.53,1.47-1.49,4.26-1.48,4.29,0,.41-.32.76-.73.77h-.02c-.41,0-.74-.32-.75-.73,0-.14-.06-3.47,1.94-5.4,1-.97,2.31-1.41,3.9-1.33,9.65.54,10.07,8.35,10.08,8.43.02.41-.31.76-.72.78-.01,0-.02,0-.03,0Z"/>
              </g>
              <g>
                <path class="cls-1" d="m90.96,152.18s3,1.93,3.06,7.65"/>
                <path d="m94.02,160.58c-.41,0-.75-.33-.75-.74-.05-5.19-2.61-6.96-2.72-7.03-.34-.23-.44-.69-.21-1.04.22-.34.68-.44,1.03-.22.14.09,3.34,2.21,3.4,8.27,0,.41-.33.75-.74.76h0Z"/>
              </g>
            </g>
          </g>
        </g>
      </g>
      <g>
        <path class="cls-1" d="m181,24.49h-107.11c-10.55,0-19.11,8.56-19.11,19.11h0c0,10.55,8.56,19.11,19.11,19.11h45.67l3.89,14.75,5.83-14.75h51.72c10.55,0,19.11-8.56,19.11-19.11h0c0-10.55-8.56-19.11-19.11-19.11Z"/>
        <path d="m123.44,78.21s-.03,0-.04,0c-.32-.02-.6-.24-.68-.56l-3.74-14.19h-45.09c-10.95,0-19.86-8.91-19.86-19.86s8.91-19.86,19.86-19.86h107.11c10.95,0,19.86,8.91,19.86,19.86s-8.91,19.86-19.86,19.86h-51.21l-5.64,14.28c-.11.29-.39.47-.7.47Zm-49.55-52.97c-10.12,0-18.36,8.24-18.36,18.36s8.24,18.36,18.36,18.36h45.67c.34,0,.64.23.73.56l3.3,12.54,4.99-12.63c.11-.29.39-.47.7-.47h51.72c10.12,0,18.36-8.24,18.36-18.36s-8.24-18.36-18.36-18.36h-107.11Z"/>
      </g>
      <g>
        <path d="m78.35,40c.55.32.96.72,1.23,1.21v-1.55h1.42v8.65c0,.77-.17,1.46-.49,2.06-.33.6-.8,1.07-1.41,1.41-.61.34-1.33.51-2.14.51-1.11,0-2.04-.26-2.78-.79-.74-.53-1.18-1.24-1.31-2.15h1.39c.15.52.47.93.96,1.24.48.31,1.07.47,1.75.47.77,0,1.4-.24,1.89-.73.49-.48.73-1.16.73-2.04v-1.78c-.28.49-.69.91-1.24,1.24-.55.33-1.19.49-1.92.49s-1.44-.19-2.05-.56c-.61-.37-1.09-.89-1.44-1.56-.35-.67-.53-1.43-.53-2.29s.18-1.63.53-2.28c.35-.65.83-1.16,1.44-1.52s1.3-.54,2.05-.54,1.37.16,1.92.48Zm.84,2.21c-.26-.47-.61-.84-1.04-1.09s-.92-.38-1.45-.38-1,.12-1.44.37c-.43.25-.78.61-1.04,1.08-.26.47-.39,1.03-.39,1.67s.13,1.21.39,1.69.6.85,1.04,1.1c.43.25.91.38,1.44.38s1.01-.13,1.45-.38c.44-.25.79-.62,1.04-1.1s.39-1.04.39-1.68-.13-1.19-.39-1.67Z"/>
        <path d="m84.92,47.73c-.64-.36-1.15-.87-1.52-1.54-.37-.66-.55-1.43-.55-2.31s.19-1.63.56-2.29c.38-.66.89-1.17,1.54-1.53.65-.36,1.38-.53,2.18-.53s1.53.18,2.18.53,1.16.86,1.54,1.52c.38.66.56,1.43.56,2.3s-.19,1.65-.58,2.31-.91,1.18-1.57,1.54c-.66.36-1.39.54-2.19.54s-1.51-.18-2.16-.54Zm3.58-1.05c.44-.24.8-.59,1.07-1.07.27-.47.41-1.05.41-1.73s-.13-1.26-.4-1.73c-.27-.47-.62-.83-1.05-1.06-.43-.23-.9-.35-1.41-.35s-.99.12-1.41.35c-.43.23-.77.58-1.03,1.06-.26.47-.39,1.05-.39,1.73s.13,1.27.38,1.75c.25.47.59.83,1.01,1.06.42.23.89.35,1.39.35s.98-.12,1.42-.36Z"/>
        <path d="m94.81,47.73c-.64-.36-1.15-.87-1.52-1.54-.37-.66-.55-1.43-.55-2.31s.19-1.63.56-2.29c.38-.66.89-1.17,1.54-1.53.65-.36,1.38-.53,2.18-.53s1.53.18,2.18.53,1.16.86,1.54,1.52c.38.66.56,1.43.56,2.3s-.19,1.65-.58,2.31-.91,1.18-1.57,1.54c-.66.36-1.39.54-2.19.54s-1.51-.18-2.16-.54Zm3.58-1.05c.44-.24.8-.59,1.07-1.07.27-.47.41-1.05.41-1.73s-.13-1.26-.4-1.73c-.27-.47-.62-.83-1.05-1.06-.43-.23-.9-.35-1.41-.35s-.99.12-1.41.35c-.43.23-.77.58-1.03,1.06-.26.47-.39,1.05-.39,1.73s.13,1.27.38,1.75c.25.47.59.83,1.01,1.06.42.23.89.35,1.39.35s.98-.12,1.42-.36Z"/>
        <path d="m103.16,41.59c.35-.65.83-1.16,1.45-1.52s1.3-.54,2.06-.54c.66,0,1.27.15,1.84.46s1,.7,1.3,1.2v-4.48h1.42v11.44h-1.42v-1.59c-.28.5-.69.92-1.24,1.24-.54.32-1.18.49-1.92.49s-1.43-.19-2.05-.56c-.61-.37-1.1-.89-1.45-1.56s-.53-1.43-.53-2.29.18-1.63.53-2.28Zm6.26.63c-.26-.47-.61-.84-1.04-1.09-.44-.25-.92-.38-1.44-.38s-1.01.12-1.44.37c-.43.25-.78.61-1.04,1.08-.26.47-.39,1.03-.39,1.67s.13,1.21.39,1.69c.26.48.6.85,1.04,1.1.43.25.91.38,1.44.38s1.01-.13,1.44-.38c.44-.25.79-.62,1.04-1.1.26-.48.38-1.04.38-1.68s-.13-1.19-.38-1.67Z"/>
        <path d="m129.68,39.92c.52.27.92.68,1.22,1.23.3.55.45,1.21.45,1.99v4.99h-1.39v-4.79c0-.84-.21-1.49-.62-1.94-.42-.45-.98-.67-1.69-.67s-1.31.23-1.75.7c-.43.47-.65,1.15-.65,2.03v4.67h-1.39v-4.79c0-.84-.21-1.49-.63-1.94-.42-.45-.98-.67-1.69-.67s-1.31.23-1.75.7c-.43.47-.65,1.15-.65,2.03v4.67h-1.41v-8.47h1.41v1.22c.28-.44.65-.78,1.12-1.02.47-.24.99-.36,1.55-.36.71,0,1.34.16,1.89.48.54.32.95.79,1.22,1.41.24-.6.63-1.06,1.17-1.39.55-.33,1.15-.49,1.82-.49s1.25.14,1.76.41Z"/>
        <path d="m135.19,47.73c-.64-.36-1.15-.87-1.52-1.54-.37-.66-.55-1.43-.55-2.31s.19-1.63.56-2.29c.38-.66.89-1.17,1.54-1.53.65-.36,1.38-.53,2.18-.53s1.53.18,2.18.53,1.16.86,1.54,1.52c.38.66.56,1.43.56,2.3s-.19,1.65-.58,2.31-.91,1.18-1.57,1.54c-.66.36-1.39.54-2.19.54s-1.51-.18-2.16-.54Zm3.58-1.05c.44-.24.8-.59,1.07-1.07.27-.47.41-1.05.41-1.73s-.13-1.26-.4-1.73c-.27-.47-.62-.83-1.05-1.06-.43-.23-.9-.35-1.41-.35s-.99.12-1.41.35c-.43.23-.77.58-1.03,1.06-.26.47-.39,1.05-.39,1.73s.13,1.27.38,1.75c.25.47.59.83,1.01,1.06.42.23.89.35,1.39.35s.98-.12,1.42-.36Z"/>
        <path d="m146.01,39.91c.46-.27,1.02-.4,1.68-.4v1.45h-.37c-1.58,0-2.36.86-2.36,2.57v4.61h-1.41v-8.47h1.41v1.38c.25-.48.6-.86,1.06-1.13Z"/>
        <path d="m155.94,40.44c.64.62.96,1.52.96,2.7v4.99h-1.39v-4.79c0-.84-.21-1.49-.63-1.94-.42-.45-1-.67-1.73-.67s-1.33.23-1.77.7c-.44.46-.66,1.14-.66,2.02v4.68h-1.41v-8.47h1.41v1.21c.28-.43.66-.77,1.13-1,.48-.24,1.01-.36,1.58-.36,1.03,0,1.87.31,2.5.94Z"/>
        <path d="m159.24,38.01c-.19-.19-.28-.41-.28-.68s.09-.49.28-.68.41-.28.68-.28.48.09.66.28c.18.19.27.41.27.68s-.09.49-.27.68c-.18.19-.4.28-.66.28s-.49-.09-.68-.28Zm1.36,1.65v8.47h-1.41v-8.47h1.41Z"/>
        <path d="m169.63,40.44c.64.62.96,1.52.96,2.7v4.99h-1.39v-4.79c0-.84-.21-1.49-.63-1.94-.42-.45-1-.67-1.73-.67s-1.33.23-1.77.7c-.44.46-.66,1.14-.66,2.02v4.68h-1.41v-8.47h1.41v1.21c.28-.43.66-.77,1.14-1,.48-.24,1.01-.36,1.58-.36,1.03,0,1.86.31,2.5.94Z"/>
        <path d="m178.3,40c.55.32.96.72,1.23,1.21v-1.55h1.42v8.65c0,.77-.16,1.46-.49,2.06s-.8,1.07-1.41,1.41-1.33.51-2.14.51c-1.11,0-2.04-.26-2.78-.79s-1.18-1.24-1.31-2.15h1.39c.15.52.47.93.96,1.24.48.31,1.07.47,1.75.47.77,0,1.4-.24,1.89-.73.49-.48.73-1.16.73-2.04v-1.78c-.28.49-.69.91-1.24,1.24-.54.33-1.18.49-1.92.49s-1.43-.19-2.05-.56c-.61-.37-1.1-.89-1.45-1.56s-.53-1.43-.53-2.29.18-1.63.53-2.28c.35-.65.83-1.16,1.45-1.52s1.29-.54,2.05-.54,1.37.16,1.92.48Zm.84,2.21c-.26-.47-.61-.84-1.04-1.09-.44-.25-.92-.38-1.44-.38s-1.01.12-1.44.37c-.43.25-.78.61-1.04,1.08-.26.47-.39,1.03-.39,1.67s.13,1.21.39,1.69c.26.48.6.85,1.04,1.1.43.25.91.38,1.44.38s1.01-.13,1.44-.38c.44-.25.79-.62,1.04-1.1.26-.48.38-1.04.38-1.68s-.13-1.19-.38-1.67Z"/>
      </g>
    </g>
  </g>
</svg>