<?xml version="1.0" encoding="UTF-8"?>
<svg id="Layer_2" data-name="Layer 2" xmlns="http://www.w3.org/2000/svg" xmlns:xlink="http://www.w3.org/1999/xlink" viewBox="0 0 193.98 199.93">
  <defs>
    <style>
      .cls-1 {
        fill: #fff;
      }

      .cls-2 {
        clip-path: url(#clippath);
      }

      .cls-3 {
        fill: none;
      }
    </style>
    <clipPath id="clippath">
      <path class="cls-3" d="m192.85,149.78c4.25,9.29-26.02,15.83-96.41,15.83S4.1,157.33,4.1,147.12,26.06,0,96.44,0c112.98,0,63.65,78.21,96.41,149.78Z"/>
    </clipPath>
  </defs>
  <g id="Layer_5" data-name="Layer 5">
    <polygon class="cls-1" points="180.05 178.33 0 175.67 0 17.67 180.05 20.33 180.05 178.33"/>
    <ellipse cx="97.32" cy="154.5" rx="96.1" ry="12.33"/>
    <path d="m97.32,167.58c-25.69,0-49.84-1.28-68.01-3.62C.65,160.29.65,155.93.65,154.5s0-5.79,28.66-9.47c18.17-2.33,42.32-3.62,68.01-3.62s49.84,1.28,68.01,3.62c28.66,3.68,28.66,8.04,28.66,9.47s0,5.79-28.66,9.47c-18.17,2.33-42.32,3.62-68.01,3.62Zm0-24.67c-25.65,0-49.77,1.28-67.9,3.61-26.86,3.45-27.64,7.52-27.64,7.97s.78,4.53,27.64,7.97c18.13,2.33,42.25,3.61,67.9,3.61s49.77-1.28,67.9-3.61c26.86-3.45,27.64-7.52,27.64-7.97s-.78-4.53-27.64-7.97c-18.13-2.33-42.25-3.61-67.9-3.61Z"/>
    <g class="cls-2">
      <path class="cls-1" d="m114.99,102.04c-11.56-5.88-47.39-14.35-61.86,12.92-11.98,22.59.69,43.07,6.89,52.67,4.04,6.27,7.22,12.3,8.64,15.08v16.47h34.91v-8.46c5.9-.63,11.32-3.2,14.34-6.23,3.49-3.49,5.61-7.97,6.83-13.42.88-3.91,1.59-7.85,2.24-12.41,1.66-7.5,1.66-10.58,3.86-15.39.71-1.87,1.32-3.89,1.51-5.72,1.63-15.03-5.81-29.63-17.37-35.51Z"/>
      <path d="m103.57,199.93h-34.91c-.41,0-.75-.34-.75-.75v-16.29c-1.54-3.02-4.62-8.81-8.52-14.85-5.79-8.98-19.35-30-6.92-53.43,14.13-26.64,49.08-20.24,62.86-13.24,12.11,6.16,19.42,21.07,17.78,36.26-.18,1.66-.71,3.65-1.56,5.9-1.5,3.29-1.96,5.72-2.65,9.4-.31,1.67-.67,3.56-1.18,5.88-.66,4.58-1.37,8.54-2.24,12.41-1.32,5.87-3.62,10.38-7.04,13.79-3.23,3.23-8.6,5.64-14.12,6.36v7.8c0,.41-.34.75-.75.75Zm-34.16-1.5h33.41v-7.71c0-.38.29-.71.67-.75,5.35-.57,10.81-2.93,13.89-6.01s5.38-7.48,6.63-13.06c.86-3.82,1.57-7.75,2.23-12.35.52-2.35.87-4.23,1.18-5.89.71-3.79,1.18-6.3,2.74-9.71.79-2.09,1.28-3.95,1.45-5.49,1.58-14.58-5.4-28.88-16.97-34.76-13.37-6.8-47.24-13.06-60.86,12.6-12.01,22.65,1.21,43.16,6.86,51.91,4,6.2,7.15,12.15,8.67,15.15.05.11.08.22.08.34v15.72Z"/>
      <path d="m124.47,159.96h-.28c-4.31,0-7.82-5.43-7.82-12.12v-.82c0-4.73,2.43-8.44,5.53-8.44h4.85c3.1,0,5.53,3.71,5.53,8.44v.82c0,6.68-3.51,12.12-7.82,12.12Zm-2.57-19.87c-2.19,0-4.03,3.18-4.03,6.94v.82c0,5.85,2.83,10.62,6.32,10.62h.28c3.48,0,6.32-4.76,6.32-10.62v-.82c0-3.76-1.85-6.94-4.03-6.94h-4.85Z"/>
      <path d="m105.63,159.96h-.31c-4.71,0-8.55-5.43-8.55-12.12v-.82c0-4.65,2.7-8.44,6.03-8.44h5.36c3.32,0,6.03,3.79,6.03,8.44v.82c0,6.68-3.84,12.12-8.55,12.12Zm-2.83-19.87c-2.5,0-4.53,3.11-4.53,6.94v.82c0,5.85,3.16,10.62,7.05,10.62h.31c3.89,0,7.05-4.76,7.05-10.62v-.82c0-3.83-2.03-6.94-4.53-6.94h-5.36Z"/>
      <path d="m117.12,146.29c-.2,0-.39-.08-.54-.23-.41-.42-.87-.64-1.33-.64h0c-.47,0-.93.22-1.33.64-.29.3-.76.31-1.06.02-.3-.29-.31-.76-.02-1.06.69-.71,1.54-1.1,2.41-1.1h0c.87,0,1.73.39,2.41,1.1.29.3.28.77-.02,1.06-.15.14-.33.21-.52.21Z"/>
      <path d="m116.7,165.79c-1.65,0-3.63-.32-5.64-.71-.41-.08-.67-.47-.59-.88s.47-.67.88-.59c4.43.86,7.03.9,7.73.13.28-.31.75-.33,1.06-.05.31.28.33.75.05,1.06-.69.76-1.94,1.03-3.48,1.03Z"/>
      <path d="m116.61,178.17h-10.82c-.41,0-.75-.34-.75-.75s.34-.75.75-.75h10.82c.41,0,.75.34.75.75s-.34.75-.75.75Z"/>
      <path d="m109.47,145.88h-7.87c-.41,0-.75-.34-.75-.75s.34-.75.75-.75h7.87c.41,0,.75.34.75.75s-.34.75-.75.75Z"/>
      <path d="m108.61,145.13v2.71c0,1.26-.18,2.41-.49,3.25-.3.83-.71,1.35-1.17,1.35-.91,0-1.66-2.07-1.66-4.6v-2.71h3.31Z"/>
      <path d="m106.95,153.19c-1.65,0-2.41-2.77-2.41-5.35v-2.71c0-.41.34-.75.75-.75h3.31c.41,0,.75.34.75.75v2.71c0,1.31-.19,2.56-.53,3.51-.55,1.52-1.32,1.84-1.87,1.84Zm-.91-7.31v1.96c0,2.41.68,3.74.95,3.86-.02-.03.2-.24.42-.86.28-.78.44-1.87.44-3v-1.96h-1.81Z"/>
      <path d="m126.68,145.88h-6.46c-.41,0-.75-.34-.75-.75s.34-.75.75-.75h6.46c.41,0,.75.34.75.75s-.34.75-.75.75Z"/>
      <path d="m125.66,145.13v2.71c0,1.26-.14,2.41-.38,3.25-.23.83-.56,1.35-.91,1.35-.71,0-1.29-2.07-1.29-4.6v-2.71h2.58Z"/>
      <path d="m124.37,153.19c-1.94,0-2.04-4.46-2.04-5.35v-2.71c0-.41.34-.75.75-.75h2.58c.41,0,.75.34.75.75v2.71c0,1.29-.15,2.52-.41,3.45-.35,1.26-.9,1.9-1.63,1.9Zm-.54-7.31v1.96c0,1.79.29,3.04.54,3.6.06-.13.12-.31.19-.55.22-.79.35-1.9.35-3.05v-1.96h-1.08Z"/>
      <path d="m126.93,136.77h-6.53c-.41,0-.75-.33-.75-.75s.34-.75.75-.75h6.53c.41,0,.75.34.75.75s-.34.75-.75.75Z"/>
      <path d="m110.1,136.77h-6.53c-.41,0-.75-.33-.75-.75s.34-.75.75-.75h6.53c.41,0,.75.34.75.75s-.34.75-.75.75Z"/>
      <path class="cls-1" d="m68.34,151.49s3.86,2.06,4.23,7.72"/>
      <path d="m72.57,159.96c-.39,0-.72-.3-.75-.7-.34-5.14-3.7-7.03-3.84-7.1-.36-.2-.5-.65-.3-1.02.2-.36.65-.5,1.01-.31.17.09,4.23,2.33,4.63,8.33.03.41-.29.77-.7.8-.02,0-.03,0-.05,0Z"/>
      <path d="m110.57,110.75s0,24.89-16.56,36.81c-.92.66-2.13-.34-1.64-1.36,1.43-2.98,3.14-7.57,3.43-12.96,0,0-3.81,14.48-17.64,20.15,0,0-5.99-12.6-15.08-5.52-6.06,4.73-.28,21.53,8.5,22.32l-2.11,13.91h0s-3.93-8.13-9.44-16.68c-6.19-9.61-18.87-30.08-6.89-52.67,14.46-27.27,48.78-22.44,59.69-15.42,12.42,8,21.17,22.98,19.54,38.01-.59,5.4-4.71,12.5-4.71,12.5,0,0-1.25-15.81-5.91-24.53-3.84-7.18-11.18-14.56-11.18-14.56Z"/>
      <path d="m69.45,184.85c-.29,0-.55-.16-.68-.42-.04-.08-3.97-8.19-9.39-16.6-5.79-8.98-19.35-30-6.92-53.43,5.31-10.01,13.97-16.83,25.03-19.72,13.62-3.56,28.57-.58,35.72,4.03,13.46,8.67,21.45,24.24,19.88,38.72-.6,5.5-4.63,12.5-4.8,12.79-.16.28-.49.43-.81.35-.32-.07-.56-.34-.58-.67-.01-.16-1.29-15.76-5.83-24.23-2.82-5.27-7.61-10.72-9.84-13.12-.39,5.99-2.72,25.5-16.8,35.63-.7.5-1.61.47-2.27-.08-.66-.55-.85-1.44-.48-2.21.79-1.65,1.7-3.86,2.37-6.45-2.52,4.79-7.28,11.24-15.62,14.65-.37.15-.79-.01-.96-.37-.03-.06-2.91-6.01-7.48-7.08-2.09-.5-4.27.12-6.47,1.84-2.26,1.77-2.84,5.91-1.47,10.56,1.39,4.73,4.98,10.01,9.58,10.43.21.02.4.12.52.28.13.16.18.37.15.58l-2.12,13.91c-.05.33-.3.58-.63.63-.04,0-.07,0-.11,0Zm20.56-90.23c-3.94,0-8.06.44-12.14,1.51-10.8,2.82-18.91,9.2-24.09,18.98-12.01,22.65,1.21,43.16,6.86,51.91,3.8,5.9,6.88,11.66,8.42,14.65l1.65-10.83c-4.92-.93-8.59-6.28-10.09-11.39-1.57-5.32-.8-9.99,1.99-12.17,2.58-2.01,5.18-2.72,7.74-2.11,4.35,1.03,7.21,5.56,8.15,7.26,12.8-5.62,16.53-19.24,16.57-19.38.1-.37.47-.61.84-.55.38.06.65.4.63.78-.3,5.56-2.07,10.27-3.5,13.25-.1.21.01.34.09.41.08.07.24.16.43.02,16.05-11.55,16.25-35.96,16.25-36.2,0-.3.18-.58.46-.69.28-.12.6-.05.82.16.3.3,7.46,7.54,11.31,14.74,3.62,6.77,5.2,17.51,5.75,22.34,1.24-2.48,3.09-6.64,3.46-10.04,1.51-13.94-6.21-28.93-19.21-37.3-4.18-2.69-12.76-5.34-22.39-5.34Z"/>
      <path d="m103.57,199.72c-.41,0-.75-.34-.75-.75v-8.46c0-.38.29-.71.67-.75,5.35-.57,10.81-2.93,13.89-6.01s5.38-7.48,6.63-13.06c1.35-5.98,2.33-12.22,3.4-21.55.22-1.97.42-4,.6-6.02.92-10.7.76-36.12-20.34-40.96-.14-.03-.26-.1-.36-.2-.12-.09-1.05-.58-6.93-.58h-.6c-10.8,0-26.91.09-36.5,10.1-5.68,5.93-8.31,14.75-7.82,26.21.94,21.79,7.12,27.54,10.82,30.98,1.75,1.63,3.14,2.92,3.14,5.14v25.16c0,.41-.34.75-.75.75s-.75-.34-.75-.75v-25.16c0-1.57-1-2.5-2.66-4.04-3.86-3.6-10.33-9.61-11.29-32.01-.51-11.89,2.26-21.08,8.23-27.31,10.03-10.46,26.52-10.56,37.58-10.56h.61c5.5,0,7.14.4,7.8.86,22.08,5.2,22.28,31.45,21.33,42.52-.17,2.03-.38,4.07-.6,6.06-1.08,9.38-2.07,15.67-3.43,21.71-1.32,5.87-3.62,10.38-7.04,13.79-3.23,3.23-8.6,5.64-14.12,6.36v7.8c0,.41-.34.75-.75.75Z"/>
      <path d="m103.57,190.51c-17.26,0-23.71-8.1-23.71-8.1,0,0,5.88,10.75,23.71,12.33v-4.24Z"/>
      <path d="m103.57,195.5s-.04,0-.07,0c-18.02-1.6-24.06-12.27-24.3-12.72-.19-.34-.08-.77.24-.98.32-.22.76-.15,1,.15.06.08,6.48,7.81,23.13,7.81.41,0,.75.34.75.75v4.24c0,.21-.09.41-.24.55-.14.13-.32.2-.51.2Zm-17.73-7.86c3.52,2.65,8.98,5.43,16.98,6.29v-2.66c-7.7-.1-13.23-1.79-16.98-3.62Z"/>
      <path d="m72.55,170.52c-.85,0-2.28-.16-4.46-.85-.4-.12-.61-.55-.49-.94.12-.4.54-.62.94-.49,3.3,1.04,4.58.74,4.59.73.4-.1.81.13.92.52.11.39-.1.8-.49.92-.07.02-.38.11-1.01.11Z"/>
      <path d="m97.51,148.35h-23.21c-.41,0-.75-.34-.75-.75s.34-.75.75-.75h23.21c.41,0,.75.34.75.75s-.34.75-.75.75Z"/>
    </g>
  </g>
</svg>