<?xml version="1.0" encoding="UTF-8"?>
<svg id="Layer_2" data-name="Layer 2" xmlns="http://www.w3.org/2000/svg" viewBox="0 0 661.42 711.09">
  <defs>
    <style>
      .cls-1, .cls-2, .cls-3, .cls-4, .cls-5, .cls-6, .cls-7 {
        stroke-linecap: round;
        stroke-linejoin: round;
        stroke-width: 1.5px;
      }

      .cls-1, .cls-2, .cls-3, .cls-6 {
        stroke: #010101;
      }

      .cls-1, .cls-7 {
        fill: #fff;
      }

      .cls-3 {
        fill: #010101;
      }

      .cls-4, .cls-5, .cls-7 {
        stroke: #231f20;
      }

      .cls-5, .cls-6 {
        fill: none;
      }
    </style>
  </defs>
  <g id="Layer_3" data-name="Layer 3">
    <g>
      <path class="cls-1" d="M650.32,146.64c-4.12,5.67-7.85,8.63-11.1,9.88-3.22,3.35-5.85,5.72-6.82,6.77-6.33,6.85-17.15,5.21-17.15,5.21,0,0-.01.02-.02.05-.21.62-2.41,6.85-6.89,14.57-.07.13-.15.26-.23.4-.28.52-.61,1.06-.96,1.61-.02.02-.03.05-.05.07-2.58,4.87-5.67,10.33-9.1,15.68-3.07,4.8-6.33,9.85-14.97,14.66h-.01s-.01.01-.02.01c-1.37.77-2.89,1.52-4.56,2.27,2.54,30.95-1.55,62.32-14.23,64.86-5.08,1.51-19.58,3.49-19.58,3.49,0,0,.03.12.08.34.24.96.94,3.93,1.88,8.37.37,1.74.77,3.63,1.17,5.56.52,2.56,1.03,5.17,1.46,7.58.06.32.12.64.17.95,3.22,17.55,6.84,42.52,6.55,64.95-.51,39.87-10.56,101.73-20.27,138.53-.5-.54-.99-1.08-1.48-1.61,5.4,45.06,2.44,121.73,0,142.86-2.44,21.13-36.18,34.42-49.47,39.87-7.64,3.14-11.88,3.22-17.74,2.02-.02,0-.03,0-.05-.01-4.32-.89-9.54-2.47-17.65-4.05-2.83-.55-5.36-1.46-8.12-2.8-4.79-1.39-10.08-2.99-15.71-4.78-23.84-7.59-65.97-12.36-65.97-12.36-5.45,5.11-14.48,1.2-21.46-3.06s-.17-16.02,0-23.86c.1-4.51-1.38-12.97-4.39-20.02l-21.19-12.16c-21.33-4.32-50.46-20.08-54.34-24.56-1.07-1.24-2.28-4.26-3.25-8.48l-41.98-24.08-12.49,3.32,129.45,75.34-3.25,10.6-110.25,56.15-4.06-2.6-4.57,3.69-151.03-96.6L.75,483.5l7.3-3.98,139.11,78.91,15.42-7.27s-.06-.05-.09-.08c-4.83,1.21-7.12,1.3-10.08-.01-5.12-2.26-9.95-10.79-12.45-19.32-8.83-7.38-16.93-13.85-21.3-16.59-11.15-7-10.78-19.36,7.4-29.02-4.77-3.7-9.2-8.49-11.3-14.41-5.66-16.02.56-37.49,6.35-54.87,5.79-17.38,17.38-23.51,42.6-24.53,25.22-1.03,88.94-5.12,133.92-3.07,34.42-7.84,33.52-28.97,27.73-44.64-5.79-15.68-17.25-28.97-17.25-28.97l-9.68,5.15c-27.44,14.65-47.79,25.81-48.49,26.19-.01.01-.02.01-.02.01-5.36,2.64-11.22-2.47-17.87-23.43-11.77,3.06-26.28,6.98-36.56,10.23-20.2,6.39-43.62-9.97-47.46-18.15-3.83-8.18-1.02-25.19,12.61-36.8,12.2-10.39,29.14-18.31,45.15-25.94.62-5.08,5.25-9.91,9.9-8.71,1.96.5,2.88.83,4.7,1.54.4-.21.8-.42,1.2-.63h.01c-.04-1.16.05-2.37.34-3.58,2.18-9.16,5.15-7.81,6.67-14.97.65-3.32-1.7-7.86-.51-13.14,1.19-5.28,5.62-5.8,8.01-9.71,2.39-3.92,4.78-13.12,11.26-11.76,6.47,1.36,10.24,3.24,10.24,3.24l2.73-7.3c1.62-4.34,18.06-3.57,36.22,2.49-3.96-8.73-7.31-17.77-9.26-23.33-.33-.34-.64-.69-.94-1.05.48,2.01,1.08,4.03,1.82,5.95-5.53-2.15-11-6.42-13.98-10.96l.12-.13c-2.65-3.21-5.37-8.27-7.78-15.09-3.21-9.08-8.65-37.41-.94-67.28-7.85,2.95-15.47,4.11-26.7.7-1.48-.44-1.3-2.82.23-2.6,16.4,2.37,26.28-8.86,33.7-17.98,8.33-17.31,22.28-33.8,44.91-45.96,38.12-20.5,72.82-11.73,96.89,5.63,11.62,7.25,30.84,5.44,34.69-7.28-1.12,11.78-8.16,18.49-19.2,21.08,11.03,12.09,17.68,25.46,18.43,35.74,1.57,21.58,2.41,69.5-14.28,101.68l.83.86c.03-.09.04-.14.04-.14l14.93,2.82c-.12.45-.25.88-.37,1.32l1.62.29s41.61,6.5,96.29-18.19c2.49-1.12,4.85-1.33,7.08-.74,12.9-3.94,15.55-10.95,15.55-10.95-1.29-31.44,20.38-56.14,20.38-56.14,0,0,4.83-28.04,6.67-45.08,1.56-14.41,23.55-13.99,21.72.76-1.21,9.77-6.92,43.25-7.09,44.3.34-.77,11.31-25.5,18.81-40.53,7.41-14.83,25.12-6.55,17.12,9.04-3.89,7.59-15.32,28.51-18.2,33.78,2.59-1.17,5.65-.9,9.62.66,2.36.93,5.8,4.03,7.66,7.84,1.86,1.61,3.63,3.58,5.17,5.97t.01.01c6.37,4.42,16.4,16.23-1.79,41.26Z"/>
      <path class="cls-4" d="M136.79,481.5c-28.45,9.97-31.16,25.46-18.13,33.64,13.03,8.18,59.23,49.51,59.23,49.51l34.97-9.3,133.49,76.58,13.13,39.64s42.13,4.77,65.96,12.35c23.83,7.58,41.54,11.65,41.54,11.65l33.85-65.33-202.79-98.34-161.26-50.39Z"/>
      <path class="cls-1" d="M257.62,195.17s-3.77-1.88-10.25-3.25-8.87,7.84-11.26,11.76-6.82,4.43-8.01,9.71c-1.19,5.28,1.16,9.82.51,13.14-1.52,7.16-4.49,5.81-6.67,14.97-1.28,5.37,1.41,10.99,1.41,10.99l26.42,7.49,7.85-64.82"/>
      <path class="cls-4" d="M169.69,530.09c16.86-.79,49.97,2.53,67.23,10.91,17.26,8.38,52.2,17.95,52.2,17.95l-92.35-99.09-27.08,70.24Z"/>
      <line class="cls-6" x1="236.41" y1="229.24" x2="242.81" y2="231.19"/>
      <path class="cls-6" d="M249.93,346.98c-5.37,2.64-11.22-2.48-17.88-23.43-6.66-20.95-8.96-63.89-8.96-63.89l8.84-3.58h34.61l3.58,73.1-20.19,17.81Z"/>
      <g>
        <path class="cls-1" d="M313.2,207l7.27-2.9c-2.48.91-4.9,1.88-7.27,2.9Z"/>
        <path class="cls-1" d="M547.62,156.44c-54.68,24.69-96.29,18.19-96.29,18.19l-1.63-.28c-7.53,26.64-16.48,37.89-29.55,49.96-13.29,12.27-77.18,42.51-107.19-17.19-27.71,11.94-48.85,30.69-81.03,48.97,17.02,32.2,24.55,53.67,18,90.9,0,0,25.47-13.97,58.18-31.35,0,0,11.46,13.29,17.25,28.97,5.79,15.68,6.69,36.8-27.73,44.64,36.12,10.9,49.92,73.61,81.11,81.28,31.18,7.67,47.79-4.34,83.58-1.28,35.78,3.07,39.1,5.88,73.35,43.19,9.71-36.8,19.76-98.66,20.28-138.53.51-39.87-11.32-87.75-11.32-87.75,0,0,14.51-1.98,19.59-3.49,26.91-5.38,15.14-140.55-16.6-126.22Z"/>
        <path class="cls-1" d="M320.72,204.01l-.25.1c.08-.03.17-.06.25-.09,0,0,0,0,0,0Z"/>
        <path class="cls-1" d="M312.96,207.1s0,0,0,0c.08-.03.16-.07.24-.1l-.24.1Z"/>
        <path class="cls-1" d="M435.14,170.2s-.17.56-.5,1.55c-2.01,6.02-10.2,28.42-25.57,43.35-17.89,17.38-59.53,27.8-88.35-11.09-.08.03-.17.06-.25.09l-7.27,2.9c-.08.03-.16.07-.24.1,30.01,59.7,93.9,29.46,107.19,17.19,13.07-12.07,22.02-23.32,29.55-49.96.13-.44.25-.88.38-1.33l-14.94-2.81Z"/>
      </g>
      <path class="cls-1" d="M297.64,389.24c-44.98-2.04-108.71,2.04-133.93,3.07-25.22,1.02-36.8,7.16-42.6,24.54-5.79,17.38-12.01,38.85-6.35,54.87,5.67,16.02,28.54,23.85,28.54,23.85l144.87,86.14"/>
      <path class="cls-1" d="M536.94,228.47c48.15-7.58,54.97-18.08,61.06-27.61,10.08-15.74,17.24-32.38,17.24-32.38,0,0,10.83,1.64,17.16-5.21,3.56-3.85,29.75-25.64,23.89-48.18-5.86-22.54-27.32-22.99-27.32-22.99,0,0,14.4-26.28,18.88-35,8-15.59-9.71-23.87-17.12-9.04-7.62,15.27-18.82,40.54-18.82,40.54,0,0,5.87-34.39,7.1-44.31,1.83-14.75-20.16-15.18-21.72-.76-1.84,17.04-6.67,45.08-6.67,45.08,0,0-21.67,24.7-20.38,56.15,0,0-3.81,10.08-24.54,12.85-19.06,8.77-11.14,48.97-8.76,70.87Z"/>
      <path class="cls-1" d="M648.15,103.17s26.66,9.74,2.17,43.45c-9.54,13.12-17,11.72-21.23,8.26-3.96-3.24-3.91-9.5-3.91-9.5,0,0-7.77,5.29-14-1.86-6.22-7.15-4.44-15.08,3.91-30.34,3.22-5.87,6.02-11.1,8.26-15.31,4.02-7.57,8.28-9.33,15.92-6.34,3.11,1.22,8.07,6.21,8.87,11.64Z"/>
      <path class="cls-1" d="M590.17,147.63s7.79-.77,10.27-7.25c0,0,13.85,6.98,20.94-3.13,7.09-10.12-12.24-23.09-20.05-24.65s-15.83-1.33-15.83-1.33"/>
      <path class="cls-1" d="M642.66,111.69s-6.31,22.19-17.83,34.04"/>
      <path class="cls-2" d="M274.2,160.97c2.99,4.54,8.45,8.82,13.98,10.96-3.81-9.89-3.88-22.38-3.88-22.38l-10.1,11.42Z"/>
      <path class="cls-2" d="M448.56,67.79c-2.31-31.71-60.78-92.82-130.81-55.16-70.03,37.66-57,116.74-51.2,133.12,7.6,21.47,18.18,25.49,20.48,9.25,6.59-46.56,32.37-73.99,32.37-73.99,15.2,17.01,30.06,44.46,33.65,50.57,4.95,8.43,7.36,6.78,8.42,0,.61-3.93,1.86-9.85,1.86-9.85,0,0,4.95,10.48,7.93,17.75,2.97,7.27,13.25,8.34,20.52.06,2.81,10.99,4.59,25.38,4.59,25.38l6.94-11.23s4.35-1.42,5.37,1.16c-1.14-14.53,4.21-33.11,16.6-35.3,17.52-3.1,18.93,22.1,9.7,36.44-3.56,5.53-7.33,10.06-9.82,11.51l.65,2.95c.47,1.84.72,5.74,2.49,5.76,1.34.01,4.68-5.68,5.49-5.76,17.21-32.19,16.37-80.84,14.78-102.65Z"/>
      <path class="cls-2" d="M276.95,53.59c-7.92,9.19-18.2,25.82-37.82,22.98-1.53-.22-1.71,2.16-.23,2.61,13.39,4.07,21.64,1.63,31.28-2.59,12.55-5.49,6.77-23,6.77-23Z"/>
      <path class="cls-2" d="M414.64,18.26c11.62,7.25,30.83,5.43,34.69-7.28-1.43,15.03-12.5,21.8-29.18,22.3-16.68.5-5.51-15.01-5.51-15.01Z"/>
      <path class="cls-1" d="M285.46,161.59s10.91,33.87,21.72,47.58c14.71,18.67,56.16,23.62,72.34,8.26,16.19-15.36,26.29-34.37,26.29-34.37"/>
      <g>
        <path class="cls-6" d="M359.57,173.5h-1.56c-12.28,0-22.15-10.02-22.15-22.37v-1.05c0-8.36,6.67-15.24,14.94-15.38l16.03-.26c8.44-.14,15.33,6.66,15.33,15.18v1.07c0,12.6-10.17,22.81-22.59,22.81Z"/>
        <path class="cls-6" d="M358.01,173.5h1.56c12.43,0,22.59-10.21,22.59-22.81v-1.07c0-8.52-6.89-15.32-15.33-15.18l-16.03.26c-8.27.13-14.94,7.02-14.94,15.38v1.05c0,12.35,9.86,22.37,22.15,22.37Z"/>
        <path class="cls-6" d="M359.57,173.5h-1.56c-12.28,0-22.15-10.02-22.15-22.37v-1.05c0-8.36,6.67-15.24,14.94-15.38l16.03-.26c8.44-.14,15.33,6.66,15.33,15.18v1.07c0,12.6-10.17,22.81-22.59,22.81Z"/>
        <path class="cls-6" d="M302.33,173.5h1.49c11.85,0,21.55-9.97,21.55-22.27v-1.05c0-8.32-6.57-14.96-14.62-14.83l-15.29.25c-7.9.13-14.26,6.85-14.26,15.02v1.03c0,12.07,9.41,21.86,21.13,21.86Z"/>
        <path class="cls-6" d="M325.22,147.11h0c3.18-2.28,7.45-2.33,10.65-.12h0"/>
      </g>
      <g>
        <g>
          <path class="cls-6" d="M298.05,142.99c4.46.53,8.49.32,12.75,0"/>
          <path class="cls-3" d="M310.79,143.63v3.75c0,2.05-.3,3.91-.79,5.27-.48,1.35-1.15,2.19-1.89,2.19-1.48,0-2.68-3.35-2.68-7.45v-3.75h5.37Z"/>
        </g>
        <g>
          <path class="cls-6" d="M349.54,142.12c4.46.53,8.49.32,12.75,0"/>
          <path class="cls-3" d="M361.69,142.76v3.75c0,2.05-.3,3.91-.79,5.27-.48,1.35-1.15,2.19-1.89,2.19-1.48,0-2.68-3.35-2.68-7.45v-3.75h5.37Z"/>
        </g>
      </g>
      <path class="cls-6" d="M320.72,179.11s2.15,1.65,6.77,1.98,9.74-1.98,9.74-1.98"/>
      <path class="cls-6" d="M295.78,127.89s7.18-.03,17.18,0"/>
      <path class="cls-6" d="M341.28,127.09s10.65.41,23.54,0"/>
      <line class="cls-2" x1="329.29" y1="208.77" x2="343.04" y2="208.77"/>
      <path class="cls-1" d="M252.21,318.44s-36.53,8.94-56.72,15.33-43.62-9.97-47.45-18.15-1.02-25.2,12.61-36.8c16.35-13.92,41.23-23.42,60.95-33.74"/>
      <path class="cls-1" d="M187.23,319.38c8.35,0,20.11-3.92,28.11-11.42,8.01-7.5,36.14-28.15,36.14-28.15l-29.89-34.72"/>
      <path class="cls-1" d="M260.5,539.52c-17.22-6.22-20.78-6.7-59.4,1.75-38.61,8.45-41.89,12.77-48.68,9.78s-13.06-17.01-14.09-27.44c-1.03-10.43,11.24-23.97,16.71-28.37,5.47-4.4,14.43-12.47,31.59-10.32,17.16,2.15,29.55-2.93,37.01-11.63,7.46-8.7,17.41-12,27.25-11.18,9.84.82,20.09,5.71,27.68,17.55,7.59,11.83,12.01,17.91,27.37,22.38"/>
      <path class="cls-7" d="M377.75,626.51c3.27,14.24-12.81,39.95-18.26,45.06s-14.48,1.19-21.46-3.07-.17-16.02,0-23.85-4.43-27.6-13.51-31.2l5.41-15.4,53.93,16.61-6.11,11.85Z"/>
      <path class="cls-1" d="M534.19,510.82c5.4,45.06,2.44,121.74,0,142.86s-36.18,34.42-49.47,39.87c-13.29,5.45-16.29,1.68-35.44-2.04-11.71-2.28-18.34-10.73-57.41-30.73-15.85-8.12-7.34-32.65-19.6-42.2-12.27-9.54-25.9-17.04-41.06-7.16-15.16,9.88-67.79-17.38-73.1-23.51-5.31-6.13-14.31-56.38,21.47-77.09,35.78-20.71,40.21-14.92,53.84-13.21,13.63,1.7,76.68,29.99,99.85,37.49s39.53,32.71,40.55,53.16c1.02,20.45,16.7,23.85,19.77,19.08,3.07-4.77-3.41-27.94-10.22-37.14"/>
      <path class="cls-1" d="M457.03,537.57c19.33,3.46,39.09,11.77,49.51,27.08"/>
      <path class="cls-6" d="M172.91,416.5c20.45,0,51.8.34,65.09,7.5,13.29,7.16,113.73,79.21,113.73,79.21"/>
      <line class="cls-6" x1="244.16" y1="211.53" x2="249.77" y2="213.4"/>
      <path class="cls-2" d="M381.52,215.37s-14.31,12.81,2.89,13.28c-6.97,1.43-22.41,4.62-34.68-2.12,15.34-.99,20.66.74,31.79-11.16Z"/>
      <path class="cls-6" d="M430.63,130.9s-10.48,1.98-10.35,15.34"/>
      <path class="cls-2" d="M598.39,165.14c6.57,2.68,17.79,5.98,8.72,20.03,5.58-9.07,8.14-16.69,8.14-16.69-6.21-.66-17.88-3.38-22.23-4.9"/>
      <path class="cls-2" d="M595.71,111.73s10.94,1.47,15.29-.5c4.36-1.97,10.77-10.72,10.77-10.72l-9.39,17.46s-4.99-6.19-16.68-6.24Z"/>
      <path class="cls-5" d="M227.95,409.04s25.81,11.77,34.37,31"/>
      <path class="cls-6" d="M320.48,302.17s39.27,71.11,55.7,86.5c17.65,16.53,34.79,11.81,34.79,11.81"/>
      <path class="cls-6" d="M150.48,499.52c10.27-.14,14.15,3.42,16.13,23.38,1.98,19.93,7.53,25.11.63,26.88"/>
      <path class="cls-1" d="M230.01,268.04s-8.95-3.07-17.66-5.87c-12.69-4.09-4.69-20.06,3.35-17.99,3.67.95,3.66,1.26,12.94,4.7l3.97,1.53c10.15,3.42,9.26,19.36-2.6,17.63Z"/>
      <path class="cls-6" d="M223.63,473.29c11.47-1.91,38.66,5.73,46.65-3.18"/>
      <path class="cls-5" d="M357.02,623.61s-7.92,17.64,1.53,23.26c9.46,5.62,15.2.37,16.61-3.92"/>
      <path class="cls-4" d="M369.5,657.09c1.62-4.43-3.14-7.78-3.14-7.78,3.33-.18,6.61-1.12,9.83-2.79l-6.69,10.56Z"/>
      <path class="cls-5" d="M392.03,619.01c11.5,18.4,22.58,40.07,32.37,43.42"/>
      <path class="cls-5" d="M302.58,591.66c9.46-.51,26.33-2.56,39.1-9.97"/>
      <path class="cls-2" d="M219.36,264.46c8.21,1.37,11.4,1.97,14.05-4.46,0,0-3.65,6.85,2.34,10.65-5.62-1.02-16.39-6.19-16.39-6.19Z"/>
      <path class="cls-1" d="M303.35,290.25l28.3-75.74c1.74-4.67-11.35-15.36-31.04-22.72-19.69-7.35-38.51-8.58-40.26-3.92l-28.3,75.74,71.3,26.63Z"/>
      <ellipse class="cls-1" cx="267.7" cy="276.93" rx="9.02" ry="38.05" transform="translate(-85.41 430.79) rotate(-69.52)"/>
      <path class="cls-1" d="M536.73,226.01c1.59,14.22,3.18,54.78,19.25,57.96l-31.71,6.09"/>
      <path class="cls-2" d="M230.78,295.38c7.42-5.66,16.33-4.29,18.72,3.29l-4.33-14.19-14.39,10.9Z"/>
      <path class="cls-1" d="M564.07,214.13c5.31,3.88,13.66,3.86,18.96,1.38"/>
      <path class="cls-2" d="M549.4,308.95c-2.58-13.09-10.37-20.29-18.18-20.22l13.42-2.58s3.12,13.32,4.77,22.8Z"/>
      <path class="cls-2" d="M308.11,315.63c-5.27-6.39-10.47-13.78-10.47-13.78"/>
      <path class="cls-2" d="M298.43,320.78c5.67-3.02,3.9-12.19,1.25-16.08,3.28,4.4,8.42,10.93,8.42,10.93l-9.68,5.15Z"/>
      <path class="cls-6" d="M342.82,386.37c14.67,4.53,34.94,48.84,50.36,51.85"/>
      <path class="cls-6" d="M415.04,490.96c27.09,21.98,34.31,34.4,34.31,34.4"/>
      <path class="cls-6" d="M285.46,456.15c16.87-1.48,42.22,2.75,51.78,3.7"/>
      <path class="cls-6" d="M298.49,161.59s11.28,2.99,14.71-4.3"/>
      <path class="cls-6" d="M350.86,156.64s1.99,5.63,10.93,6.22"/>
      <polygon class="cls-4" points="65.85 607.81 55.69 611.23 211.25 710.34 329.83 648.84 182.24 573.44 65.85 607.81"/>
      <path class="cls-4" d="M337.26,608.28c-2.64,2.7-7.24,8.24-4.41,14.77,0,0-2.16-6.55-7.09-9.28,4.79.07,8.5-4.67,11.5-5.5Z"/>
      <path class="cls-1" d="M424.99,167.92c.83,5.12,2.56,7.91,2.56,7.91"/>
      <path class="cls-2" d="M289.8,228.6c.8-2.56.2-5.03-2.36-5.82-2.27-.71-3.97.58-4.93,1.28-.36-1.11-.18-2.87-2.97-3.73-2.56-.8-4.81.78-5.61,3.35-.25.8-.28,1.62-.13,2.39h0c.09.45.24.88.45,1.29,1.02,2.31,2.85,5.57,4.68,7.66,3.12-.71,7.11-2.33,9.04-3.9.83-.6,1.49-1.46,1.82-2.51Z"/>
      <g>
        <polygon class="cls-1" points="216.33 700.76 326.58 644.61 329.83 634 176.33 544.67 66.77 596.27 65.85 604.39 216.33 700.76"/>
        <polygon class="cls-1" points="211.27 574.37 182.24 588.82 231.46 619.6 260.65 604.62 211.27 574.37"/>
        <line class="cls-6" x1="322.89" y1="637.67" x2="218.07" y2="690.57"/>
        <g>
          <g>
            <polygon class="cls-1" points="56.67 605.24 .75 483.48 8.06 479.5 158.26 564.69 214.42 696.43 207.7 701.85 56.67 605.24"/>
            <line class="cls-6" x1="150.39" y1="569.81" x2=".75" y2="483.48"/>
          </g>
          <g>
            <path class="cls-1" d="M108.97,580.85l-1.86-10.62-4.47,4.54c-1.92-1.47-3.97-2.75-6.1-3.76-2.05-.98-4.02-1.62-5.84-1.96l-6.95-9.57-.37,10.14c-3.05,1.36-4.92,4.31-4.85,8.66.16,9.73,9.77,22.02,20.97,26.6s17.82-.45,16.41-10c-.69-4.68-3.31-9.7-6.94-14.04Z"/>
            <path class="cls-1" d="M90.81,578.3c.06.19-.01.33-.16.32s-.32-.18-.39-.37.01-.33.16-.32.32.18.38.37Z"/>
            <path class="cls-1" d="M102.6,583.77c.07.19,0,.33-.14.32s-.31-.18-.38-.37,0-.33.14-.32.31.18.38.37Z"/>
            <path class="cls-1" d="M90.51,583.75c.52,1.66,4.14,5.04,5.82,2.57,1.56,4,4.16,4.89,5.68,4.01"/>
          </g>
        </g>
        <polyline class="cls-6" points="167.63 586.67 264.22 648.83 206.91 678.81"/>
      </g>
      <path class="cls-6" d="M342.82,482.65s-15.79-2.24-10.22,6.89"/>
      <path class="cls-2" d="M567.93,221.7c-10.83,5.08-7.5,12.98-7.87,25.24-.41,13.79-6.69,20.02-16.11,21.96-1.98-2.46-3.57-12.89-4.64-21.11-1.15-8.85-2.38-19.33-2.38-19.33,12.19-2.17,18.46-2.97,30.99-6.77Z"/>
    </g>
  </g>
</svg>