<?xml version="1.0" encoding="UTF-8"?>
<svg id="Layer_2" data-name="Layer 2" xmlns="http://www.w3.org/2000/svg" viewBox="0 0 259 549.5">
  <defs>
    <style>
      .cls-1 {
        fill: #fff;
      }

      .cls-2 {
        fill: none;
      }
    </style>
  </defs>
  <g id="stand_still" data-name="stand still">
    <g>
      <ellipse cx="123.71" cy="539.89" rx="67.53" ry="7.67"/>
      <path d="m123.71,548.31c-27.45,0-68.28-2.24-68.28-8.42s40.83-8.42,68.28-8.42,68.28,2.24,68.28,8.42-40.83,8.42-68.28,8.42Zm0-15.33c-18.01,0-34.94.8-47.67,2.24-18.9,2.14-19.11,4.65-19.11,4.68s.22,2.53,19.11,4.68c12.73,1.45,29.66,2.24,47.67,2.24s34.94-.8,47.67-2.24c18.9-2.14,19.11-4.65,19.11-4.68s-.22-2.53-19.11-4.68c-12.73-1.44-29.66-2.24-47.67-2.24Z"/>
    </g>
    <path d="m165.4,325.25c-.18,0-.36-.06-.5-.19-.31-.28-.33-.75-.06-1.06,23.51-26.13,19.91-86.3,19.87-86.9,0-21.57-8.65-35.09-26.44-41.39-.04-.02-.08-.03-.12-.06l-20.33-11.73c-.23-.13-.38-.38-.38-.65v-10.01h-32.43v10.01c0,.27-.14.52-.38.65l-20.58,11.73s-.08.04-.12.06c-17.79,6.3-26.44,19.82-26.44,41.34-.04.62-3.29,57.27,19,85.37.26.32.2.8-.12,1.05-.32.26-.8.2-1.05-.12-22.65-28.56-19.36-85.78-19.32-86.35,0-22.16,8.95-36.14,27.38-42.68l20.14-11.48v-10.32c0-.2.08-.39.22-.53s.33-.22.53-.22h33.93c.41,0,.75.34.75.75v10.33l19.9,11.48c18.42,6.55,27.38,20.52,27.38,42.73.04.56,3.68,61.35-20.25,87.95-.15.16-.35.25-.56.25Z"/>
    <g>
      <path d="m138.19,171.8v4.28s-9,3.8-17.21,3.8-16.72-3.8-16.72-3.8v-4.05c5.13,3.14,11.6,4.72,16.78,4.72s11.97-1.65,17.15-4.94Z"/>
      <path d="m120.98,180.63c-8.27,0-16.67-3.71-17.03-3.87-.27-.12-.44-.39-.44-.69v-4.05c0-.27.15-.52.38-.65.24-.13.53-.13.76.02,4.63,2.84,10.91,4.61,16.39,4.61s12.07-1.85,16.75-4.83c.23-.15.52-.16.76-.02.24.13.39.38.39.66v4.28c0,.3-.18.57-.46.69-.37.16-9.24,3.86-17.5,3.86Zm-15.97-5.05c1.84.76,9.07,3.55,15.97,3.55s14.54-2.81,16.46-3.56v-2.45c-4.78,2.71-10.93,4.37-16.4,4.37s-11.31-1.58-16.03-4.17v2.25Z"/>
    </g>
    <g>
      <path class="cls-1" d="m154.35,129.2c-.21,2.09-.45,4.1-.7,6.03-1.2,8.9-2.9,16.09-4.91,21.66-1.93,5.34-4.14,9.19-6.46,11.61-1.19,1.24-2.57,2.34-4.08,3.3-5.18,3.3-11.85,4.94-17.15,4.94s-11.65-1.57-16.78-4.72c-1.65-1.01-3.16-2.18-4.44-3.53-2.33-2.42-4.54-6.27-6.47-11.61-2.01-5.57-3.71-12.76-4.9-21.65-.26-1.93-.5-3.94-.71-6.04-2.11-20.99,7.42-42.54,33.3-42.54,28.08,0,35.41,21.55,33.31,42.54Z"/>
      <path d="m121.04,177.49c-5.74,0-12.32-1.85-17.17-4.83-1.77-1.08-3.31-2.31-4.59-3.65-2.49-2.6-4.73-6.6-6.63-11.87-2.13-5.89-3.79-13.23-4.94-21.81-.27-1.93-.5-3.97-.71-6.06-1.33-13.26,1.98-25.38,9.08-33.24,6.08-6.72,14.47-10.12,24.96-10.12,11.11,0,19.74,3.32,25.66,9.86,6.83,7.55,9.81,19.45,8.4,33.5h0c-.2,2.03-.44,4.07-.71,6.06-1.16,8.59-2.82,15.93-4.95,21.81-1.9,5.28-4.13,9.27-6.63,11.87-1.19,1.24-2.61,2.39-4.22,3.41-4.91,3.12-11.63,5.06-17.55,5.06Zm0-90.08c-10.05,0-18.07,3.24-23.85,9.63-6.82,7.54-9.99,19.24-8.7,32.08.21,2.07.44,4.09.7,6.01,1.14,8.47,2.77,15.71,4.87,21.5,1.83,5.08,3.95,8.9,6.3,11.35,1.19,1.25,2.64,2.39,4.29,3.4,4.63,2.84,10.91,4.61,16.39,4.61s12.07-1.85,16.75-4.83c1.51-.96,2.83-2.03,3.94-3.18,2.35-2.45,4.47-6.27,6.3-11.35,2.09-5.78,3.73-13.02,4.87-21.5.26-1.97.5-4,.7-6.01,1.37-13.63-1.48-25.12-8.02-32.35-5.62-6.21-13.88-9.36-24.54-9.36Zm33.31,41.79h0,0Z"/>
    </g>
    <g>
      <path d="m92.97,157.64c-.06,0-.11,0-.17-.02-2.77-.64-5.03-1.72-6.73-3.22-4.49-3.95-7.62-14.58-5.68-19.28.65-1.56,1.87-2.37,3.4-2.27,1.64.1,3.2.7,4.65,1.79.16.12.27.3.29.5,1.15,8.47,2.81,15.7,4.93,21.5.09.26.04.55-.14.75-.14.16-.35.25-.56.25Zm-9.44-23.3c-.56,0-1.27.19-1.75,1.35-1.55,3.74,1.01,13.83,5.28,17.58,1.23,1.08,2.81,1.93,4.72,2.52-1.9-5.57-3.41-12.34-4.49-20.14-1.13-.79-2.34-1.23-3.59-1.31-.06,0-.11,0-.17,0Z"/>
      <path d="m149.12,157.64c-.21,0-.42-.09-.56-.25-.18-.21-.24-.5-.14-.75,2.12-5.79,3.78-13.02,4.94-21.5.03-.2.13-.38.29-.5,1.44-1.08,3-1.68,4.64-1.78,1.54-.1,2.76.71,3.4,2.27,1.94,4.7-1.19,15.33-5.68,19.28-1.7,1.5-3.96,2.58-6.73,3.22-.06.01-.11.02-.17.02Zm5.68-21.99c-1.08,7.81-2.59,14.57-4.49,20.14,1.91-.59,3.49-1.44,4.72-2.52,0,0,0,0,0,0,4.27-3.76,6.83-13.84,5.28-17.58-.53-1.28-1.36-1.38-1.92-1.35-1.25.08-2.46.52-3.59,1.31Z"/>
    </g>
    <g>
      <path d="m121.04,82.76c-47.26,0-39.36,50.84-39.36,50.84l6.16,4.01c8.84-1.08,14.86-13.85,14.86-13.85.09,1.13,0,2.01-.34,3.14-1.89,6.05,2.73,7.92,5.87-1.51,4.12-12.36,12.81-29.65,12.81-29.65l16.27,26.62s8.09,14.18,16.93,15.26l6.16-4.01s7.9-50.84-39.36-50.84Z"/>
      <path d="m154.24,138.35s-.06,0-.09,0c-9.11-1.11-17.15-15.04-17.49-15.63l-15.55-25.44c-2.04,4.15-8.74,18.05-12.17,28.34-1.99,5.97-4.54,7.48-6.1,6.98-1.25-.4-2.1-2.08-1.46-4.96-2.52,3.98-7.28,9.97-13.45,10.72-.18.02-.35-.02-.5-.12l-6.16-4.01c-.18-.12-.3-.3-.33-.51-.04-.24-3.61-24.39,9.33-39.5,6.94-8.1,17.29-12.2,30.77-12.2s23.83,4.1,30.77,12.2c12.95,15.11,9.37,39.26,9.33,39.5-.03.21-.15.4-.33.51l-6.16,4.01c-.12.08-.26.12-.41.12Zm-71.87-5.2l5.64,3.67c8.19-1.24,13.95-13.27,14-13.39.15-.31.48-.48.81-.42.33.06.59.34.61.68.1,1.28,0,2.24-.38,3.42-.74,2.36-.34,3.87.23,4.05.63.21,2.56-1.04,4.22-6.03,4.09-12.27,12.77-29.58,12.85-29.75.12-.24.37-.4.64-.41.29-.01.53.13.67.36l16.27,26.62c.09.16,7.85,13.6,16.11,14.87l5.64-3.67c.37-2.9,2.65-24.33-9.04-37.97-6.64-7.74-16.6-11.67-29.63-11.67s-22.99,3.93-29.63,11.67c-11.69,13.64-9.41,35.07-9.04,37.97Zm78.03.44h.01-.01Z"/>
    </g>
    <g>
      <path d="m135.82,145.96h-1.05c-6.51,0-11.81-5.3-11.81-11.81v-.29c0-4.54,3.69-8.23,8.23-8.23h8.21c4.54,0,8.23,3.69,8.23,8.23v.29c0,6.51-5.3,11.81-11.81,11.81Zm-4.63-18.83c-3.71,0-6.73,3.02-6.73,6.73v.29c0,5.68,4.62,10.31,10.31,10.31h1.05c5.68,0,10.31-4.62,10.31-10.31v-.29c0-3.71-3.02-6.73-6.73-6.73h-8.21Z"/>
      <path d="m135.82,145.96h-1.05c-6.51,0-11.81-5.3-11.81-11.81v-.29c0-4.54,3.69-8.23,8.23-8.23h8.21c4.54,0,8.23,3.69,8.23,8.23v.29c0,6.51-5.3,11.81-11.81,11.81Zm-4.63-18.83c-3.71,0-6.73,3.02-6.73,6.73v.29c0,5.68,4.62,10.31,10.31,10.31h1.05c5.68,0,10.31-4.62,10.31-10.31v-.29c0-3.71-3.02-6.73-6.73-6.73h-8.21Z"/>
      <path d="m135.82,145.96h-1.05c-6.51,0-11.81-5.3-11.81-11.81v-.29c0-4.54,3.69-8.23,8.23-8.23h8.21c4.54,0,8.23,3.69,8.23,8.23v.29c0,6.51-5.3,11.81-11.81,11.81Zm-4.63-18.83c-3.71,0-6.73,3.02-6.73,6.73v.29c0,5.68,4.62,10.31,10.31,10.31h1.05c5.68,0,10.31-4.62,10.31-10.31v-.29c0-3.71-3.02-6.73-6.73-6.73h-8.21Z"/>
      <path d="m107.27,145.96h-1.05c-6.51,0-11.81-5.3-11.81-11.81v-.29c0-4.54,3.69-8.23,8.23-8.23h8.21c4.54,0,8.23,3.69,8.23,8.23v.29c0,6.51-5.3,11.81-11.81,11.81Zm-4.63-18.83c-3.71,0-6.73,3.02-6.73,6.73v.29c0,5.68,4.62,10.31,10.31,10.31h1.05c5.68,0,10.31-4.62,10.31-10.31v-.29c0-3.71-3.02-6.73-6.73-6.73h-8.21Z"/>
      <path d="m123.71,133.01c-.14,0-.29-.04-.42-.13-1.38-.93-3.24-.93-4.62,0-.34.23-.81.14-1.04-.2-.23-.34-.14-.81.2-1.04,1.88-1.27,4.41-1.27,6.29,0,.34.23.44.7.2,1.04-.15.22-.38.33-.62.33Z"/>
    </g>
    <path d="m120.98,151.72c-1.69,0-3.37-.13-5.03-.39-.41-.06-.69-.45-.62-.86.06-.41.45-.69.86-.62,3.16.5,6.41.5,9.66,0,.41-.06.79.22.85.63.06.41-.22.79-.63.85-1.7.26-3.41.39-5.1.39Z"/>
    <path d="m121.09,164.62c-2.54,0-5.11-.31-7.68-.94-.4-.1-.65-.5-.55-.91.1-.4.5-.65.91-.55,4.9,1.19,9.78,1.19,14.5,0,.4-.1.81.14.91.54.1.4-.14.81-.54.91-2.48.63-5,.94-7.54.94Z"/>
    <g>
      <path d="m139.02,131.89h-7.86c-.41,0-.75-.34-.75-.75s.34-.75.75-.75h7.86c.41,0,.75.34.75.75s-.34.75-.75.75Z"/>
      <g>
        <path d="m136.95,131.14v2.71c0,1.26-.18,2.41-.49,3.25-.3.83-.71,1.35-1.17,1.35-.91,0-1.66-2.07-1.66-4.6v-2.71h3.31Z"/>
        <path d="m135.29,139.19c-1.65,0-2.41-2.77-2.41-5.35v-2.71c0-.41.34-.75.75-.75h3.31c.41,0,.75.34.75.75v2.71c0,1.31-.19,2.56-.53,3.5-.55,1.52-1.32,1.84-1.87,1.84Zm-.91-7.31v1.96c0,2.41.68,3.73.95,3.85-.03-.03.2-.24.42-.86.28-.78.44-1.87.44-2.99v-1.96h-1.81Z"/>
      </g>
    </g>
    <g>
      <path d="m112.12,131.89h-8.27c-.41,0-.75-.34-.75-.75s.34-.75.75-.75h8.27c.41,0,.75.34.75.75s-.34.75-.75.75Z"/>
      <g>
        <path d="m109.64,131.14v2.71c0,1.26-.18,2.41-.49,3.25-.3.83-.71,1.35-1.17,1.35-.91,0-1.66-2.07-1.66-4.6v-2.71h3.31Z"/>
        <path d="m107.98,139.19c-1.65,0-2.4-2.77-2.4-5.35v-2.71c0-.41.34-.75.75-.75h3.31c.41,0,.75.34.75.75v2.71c0,1.31-.19,2.56-.53,3.5-.55,1.52-1.32,1.84-1.87,1.84Zm-.9-7.31v1.96c0,2.41.68,3.73.95,3.85-.03-.03.2-.24.42-.86.28-.78.44-1.87.44-2.99v-1.96h-1.81Z"/>
      </g>
    </g>
    <g>
      <path d="m140.26,122.17h-10.76c-.41,0-.75-.34-.75-.75s.34-.75.75-.75h10.76c.41,0,.75.34.75.75s-.34.75-.75.75Z"/>
      <path d="m112.54,122.17h-10.76c-.41,0-.75-.34-.75-.75s.34-.75.75-.75h10.76c.41,0,.75.34.75.75s-.34.75-.75.75Z"/>
    </g>
    <g>
      <path class="cls-1" d="m156.02,142.39s-3.23,1.3-4.34,6.78"/>
      <path d="m151.69,149.92s-.1,0-.15-.01c-.41-.08-.67-.48-.59-.88,1.17-5.81,4.64-7.27,4.79-7.33.38-.16.82.03.98.42.15.38-.03.82-.41.97-.12.05-2.89,1.28-3.89,6.24-.07.36-.38.6-.73.6Z"/>
    </g>
    <g>
      <path class="cls-1" d="m86.18,142.39s3.23,1.3,4.34,6.78"/>
      <path d="m90.52,149.92c-.35,0-.66-.25-.73-.6-1-4.97-3.77-6.19-3.89-6.24-.38-.16-.56-.6-.4-.98s.59-.56.97-.41c.15.06,3.62,1.52,4.79,7.33.08.41-.18.8-.59.88-.05,0-.1.01-.15.01Z"/>
    </g>
    <path d="m78.08,339.21c-.41,0-.75-.34-.75-.75v-103.11c0-.41.34-.75.75-.75s.75.34.75.75v103.11c0,.41-.34.75-.75.75Z"/>
    <path d="m164.12,339.21c-.41,0-.75-.34-.75-.75v-103.11c0-.41.34-.75.75-.75s.75.34.75.75v103.11c0,.41-.34.75-.75.75Z"/>
    <g>
      <path class="cls-1" d="m196.19,279.94l-26.31,1.9v64.34h-97.29v-64.34l-26.31-1.9s2.93-21.9,6.87-42.89c4.02-21.38,9.44-30.99,18.03-36.2,8.59-5.21,27.19-15.88,27.19-15.88,8.73,15.03,37.32,14,45.74,0,0,0,18.59,10.68,27.19,15.88,8.59,5.21,14.01,14.82,18.03,36.2,3.94,20.99,6.87,42.89,6.87,42.89Z"/>
      <path d="m169.88,346.93h-97.29c-.41,0-.75-.34-.75-.75v-63.64l-25.61-1.85c-.21-.01-.4-.11-.53-.27-.13-.16-.19-.37-.16-.57.03-.22,2.97-22.16,6.87-42.93,3.85-20.48,9.17-31.12,18.38-36.7,8.5-5.15,27.02-15.79,27.2-15.89.36-.2.81-.08,1.02.27,3.78,6.51,11.84,10.44,21.57,10.52,10.04.09,18.98-4.05,22.88-10.53.21-.35.66-.46,1.02-.26.19.11,18.7,10.74,27.2,15.89,9.2,5.59,14.53,16.22,18.38,36.7,3.9,20.77,6.85,42.71,6.87,42.93.03.21-.03.41-.16.57-.13.16-.32.26-.53.27l-25.61,1.85v63.64c0,.41-.34.75-.75.75Zm-96.54-1.5h95.79v-63.59c0-.39.3-.72.7-.75l25.51-1.85c-.56-4.11-3.28-23.55-6.76-42.06-3.76-20.02-8.88-30.36-17.68-35.7-7.6-4.61-23.24-13.61-26.55-15.52-4.3,6.5-13.4,10.63-23.49,10.63-.1,0-.19,0-.29,0-9.95-.08-18.28-4.03-22.47-10.63-3.33,1.92-18.94,10.91-26.54,15.51-8.8,5.34-13.92,15.68-17.68,35.7-3.48,18.51-6.19,37.95-6.76,42.06l25.51,1.85c.39.03.7.35.7.75v63.59Z"/>
    </g>
    <path d="m72.59,282.59c-.41,0-.75-.34-.75-.75v-49.55c0-.41.34-.75.75-.75s.75.34.75.75v49.55c0,.41-.34.75-.75.75Z"/>
    <path d="m169.89,282.59c-.41,0-.75-.34-.75-.75v-49.55c0-.41.34-.75.75-.75s.75.34.75.75v49.55c0,.41-.34.75-.75.75Z"/>
    <g>
      <path d="m119.51,346.18l-1.28,167.87h-41.83s-1.46-48.39-2.38-80.5c-.91-32.12-1.42-87.36-1.42-87.36h46.92Z"/>
      <path d="m118.23,514.8h-41.83c-.41,0-.74-.32-.75-.73,0,0-1.46-48.39-2.38-80.5-.9-31.76-1.42-86.83-1.42-87.38,0-.2.08-.39.22-.54.14-.14.33-.22.53-.22h46.92c.2,0,.39.08.53.22.14.14.22.33.22.53l-1.28,167.87c0,.41-.34.74-.75.74Zm-41.11-1.5h40.36l1.27-166.37h-45.41c.07,6.76.57,56.88,1.42,86.59.85,29.8,2.17,73.62,2.36,79.77Z"/>
    </g>
    <g>
      <path d="m168.36,346.18s-.51,55.25-1.42,87.36c-.91,32.12-2.38,80.5-2.38,80.5h-41.82l-1.29-167.87h46.92Z"/>
      <path d="m164.56,514.8h-41.82c-.41,0-.75-.33-.75-.74l-1.29-167.87c0-.2.08-.39.22-.53.14-.14.33-.22.53-.22h46.92c.2,0,.39.08.53.22.14.14.22.33.22.54,0,.55-.52,55.62-1.42,87.38-.9,31.75-2.36,80.02-2.38,80.5-.01.41-.34.73-.75.73Zm-41.08-1.5h40.35c.19-6.18,1.51-50.16,2.36-79.77.85-29.71,1.35-79.84,1.42-86.59h-45.4l1.28,166.37Z"/>
    </g>
    <path d="m113.58,525.36h-21.97c-.41,0-.75-.34-.75-.75v-21.97c0-.41.34-.75.75-.75h21.97c.41,0,.75.34.75.75v21.97c0,.41-.34.75-.75.75Zm-21.22-1.5h20.47v-20.47h-20.47v20.47Z"/>
    <g>
      <path class="cls-1" d="m115.48,536.44v-1.9c0-.63-.04-1.25-.11-1.86.02-2.34.05-4.94.1-6.59.11-3.59-1.58-5.28-1.58-5.28-.56,1.69-1.5,2.58-2.51,3.03-.64-.72-.63-1.52-1.39-2.11.23-.6,0-.96.07-1.83.28-3.34-1.13-3.24-2.75-3.87-1.44-.56-5.42-.92-9.51-.77-4.08.14-5.92.28-7.18,1.97-.5.66-1.06,1.52-1.56,2.32-6.05,2.3-10.34,8.15-10.34,15.01v1.9c0,3.73,3.03,6.76,6.76,6.76h23.24c3.26,0,5.98-2.31,6.62-5.37h0s0,0,0,0c.09-.45.14-.91.14-1.39"/>
      <path d="m108.72,543.95h-23.24c-4.14,0-7.51-3.37-7.51-7.51v-1.9c0-6.84,4.25-13.09,10.59-15.62.56-.88,1.05-1.61,1.46-2.16,1.48-1.97,3.56-2.13,7.76-2.27,4.1-.14,8.22.21,9.81.83.22.08.43.16.64.22,1.63.54,2.85,1.21,2.59,4.41-.03.3,0,.53.01.75.02.23.04.48,0,.77.31.35.49.72.64,1.06.05.11.1.21.15.31.69-.48,1.22-1.24,1.56-2.28.08-.25.29-.43.54-.49.25-.06.52.02.7.2.08.08,1.92,1.96,1.8,5.83-.05,1.64-.08,4.24-.1,6.57.07.56.11,1.21.11,1.85v1.9c0,.5-.05,1.01-.15,1.51,0,.01,0,.02,0,.03-.72,3.46-3.81,5.97-7.35,5.97Zm-9.11-27.99c-.58,0-1.18,0-1.78.03-4.15.14-5.58.3-6.61,1.67-.42.56-.93,1.32-1.52,2.27-.09.14-.22.24-.37.3-5.9,2.25-9.86,8-9.86,14.31v1.9c0,3.31,2.7,6.01,6.01,6.01h23.24c2.83,0,5.31-2.01,5.88-4.78.09-.41.13-.82.13-1.24v-1.9c0-.58-.03-1.18-.1-1.78.02-2.44.05-5.05.1-6.7.05-1.69-.34-2.92-.71-3.7-.58,1-1.36,1.73-2.34,2.15-.3.13-.64.05-.86-.19-.36-.4-.55-.81-.72-1.16-.17-.37-.3-.64-.58-.86-.26-.2-.36-.55-.24-.86.07-.18.06-.3.04-.62-.02-.26-.05-.58-.01-1.01.19-2.27-.36-2.46-1.56-2.86-.23-.08-.47-.16-.71-.25-1.03-.4-3.95-.75-7.42-.75Z"/>
    </g>
    <g>
      <path class="cls-1" d="m78.72,535.31h2.18c1.48,0,1.51,1.35,2.63-1.09,1.48-3.24,5.14-3.24,9.51-3.24s9.51.21,10.56,3.1,2.94,2.64,5.68,2.64h6.2"/>
      <path d="m108.15,537.48c-2.26,0-4.18-.2-5.26-3.14-.95-2.61-6.75-2.61-9.86-2.61-4.22,0-7.55,0-8.83,2.8-.72,1.58-1.29,2.24-2.55,1.71-.23-.09-.44-.18-.76-.18h-2.18c-.41,0-.75-.34-.75-.75s.34-.75.75-.75h2.18c.62,0,1.05.18,1.33.3.03.01.06.02.08.04.09-.12.25-.39.53-.99,1.68-3.68,5.81-3.68,10.19-3.68,4.82,0,10.06.28,11.27,3.59.8,2.18,1.99,2.17,4.37,2.15h6.8c.41,0,.75.33.75.75s-.34.75-.75.75h-6.79c-.18,0-.36,0-.53,0Z"/>
    </g>
    <path d="m150.39,525.36h-21.97c-.41,0-.75-.34-.75-.75v-21.97c0-.41.34-.75.75-.75h21.97c.41,0,.75.34.75.75v21.97c0,.41-.34.75-.75.75Zm-21.22-1.5h20.47v-20.47h-20.47v20.47Z"/>
    <g>
      <path class="cls-1" d="m126.52,536.44v-1.9c0-.63.04-1.25.11-1.86-.02-2.34-.05-4.94-.1-6.59-.11-3.59,1.58-5.28,1.58-5.28.56,1.69,1.5,2.58,2.51,3.03.64-.72.63-1.52,1.39-2.11-.23-.6,0-.96-.07-1.83-.28-3.34,1.13-3.24,2.75-3.87,1.44-.56,5.42-.92,9.51-.77,4.08.14,5.92.28,7.18,1.97.5.66,1.06,1.52,1.56,2.32,6.05,2.3,10.34,8.15,10.34,15.01v1.9c0,3.73-3.03,6.76-6.76,6.76h-23.24c-3.26,0-5.98-2.31-6.62-5.37h0s0,0,0,0c-.09-.45-.14-.91-.14-1.39"/>
      <path d="m156.52,543.95h-23.24c-3.53,0-6.61-2.5-7.35-5.94,0,0,0-.02,0-.03-.11-.51-.16-1.02-.16-1.54v-1.9c0-.65.04-1.3.11-1.95-.03-2.84-.07-5.11-.11-6.48-.11-3.87,1.73-5.76,1.8-5.83.18-.18.45-.26.7-.2.25.06.46.25.54.49.35,1.04.87,1.8,1.56,2.28.05-.1.1-.2.15-.31.16-.34.33-.71.64-1.06-.04-.28-.02-.54,0-.77.02-.22.04-.45.01-.75-.27-3.2.96-3.87,2.58-4.41.21-.07.42-.14.64-.22,1.59-.62,5.71-.96,9.81-.83,4.2.14,6.28.3,7.76,2.27.41.55.9,1.27,1.46,2.16,6.35,2.53,10.59,8.77,10.59,15.62v1.9c0,4.14-3.37,7.51-7.51,7.51Zm-29.12-6.25c.59,2.75,3.06,4.75,5.88,4.75h23.24c3.31,0,6.01-2.7,6.01-6.01v-1.9c0-6.31-3.96-12.06-9.86-14.31-.15-.06-.28-.17-.37-.3-.59-.95-1.11-1.71-1.52-2.27-1.03-1.37-2.46-1.53-6.61-1.67-4.23-.15-8.01.25-9.21.72-.24.09-.48.17-.71.25-1.21.4-1.76.59-1.56,2.86.04.43,0,.75-.01,1.01-.03.32-.03.44.04.62.12.31.02.66-.24.86-.28.22-.41.49-.58.86-.17.36-.36.76-.72,1.16-.22.24-.56.31-.86.19-.98-.43-1.77-1.15-2.35-2.16-.37.77-.75,1.99-.7,3.7.04,1.4.08,3.62.1,6.61-.07.68-.11,1.28-.11,1.87v1.9c0,.41.04.83.13,1.23,0,0,0,.02,0,.03Z"/>
    </g>
    <g>
      <path class="cls-1" d="m163.28,535.31h-2.18c-1.48,0-2.46,1.35-3.57-1.09-1.48-3.24-5.14-3.24-9.51-3.24-4.37,0-9.51.21-10.56,3.1s-1.99,2.64-4.74,2.64h-6.2"/>
      <path d="m133.65,537.48c-.11,0-.23,0-.34,0h-6.79c-.41,0-.75-.34-.75-.75s.34-.75.75-.75h6.8c2.24.02,2.64.02,3.43-2.15,1.21-3.31,6.45-3.59,11.27-3.59,4.38,0,8.51,0,10.19,3.68.53,1.17.73,1.12,1.54.89.37-.1.82-.23,1.34-.23h2.18c.41,0,.75.34.75.75s-.34.75-.75.75h-2.18c-.31,0-.61.09-.94.18-1.18.33-2.33.46-3.32-1.71-1.28-2.8-4.61-2.8-8.83-2.8-3.11,0-8.91,0-9.86,2.61-1.06,2.9-2.18,3.14-4.51,3.14Z"/>
    </g>
    <path d="m121.24,203.15c-23.88,0-28.79-14.23-28.99-14.84-.13-.39.09-.81.48-.94.39-.13.82.09.95.48.05.14,4.83,13.81,27.56,13.81s26.99-13.23,27.16-13.79c.12-.4.54-.62.93-.5.4.12.62.54.5.93-.18.61-4.7,14.86-28.6,14.86Z"/>
    <g>
      <rect x="102.74" y="346.18" width="35.17" height="30.32"/>
      <path d="m137.9,377.25h-35.17c-.41,0-.75-.34-.75-.75v-30.32c0-.41.34-.75.75-.75h35.17c.41,0,.75.34.75.75v30.32c0,.41-.34.75-.75.75Zm-34.42-1.5h33.67v-28.82h-33.67v28.82Z"/>
    </g>
    <rect class="cls-2" width="259" height="549.5"/>
  </g>
</svg>