<?xml version="1.0" encoding="UTF-8"?>
<svg id="Layer_2" data-name="Layer 2" xmlns="http://www.w3.org/2000/svg" viewBox="0 0 905.59 1305.91">
  <defs>
    <style>
      .cls-1, .cls-2, .cls-3, .cls-4, .cls-5, .cls-6, .cls-7, .cls-8 {
        fill: none;
        stroke: #000;
        stroke-miterlimit: 10;
      }

      .cls-2, .cls-7 {
        stroke-width: .75px;
      }

      .cls-3 {
        stroke-dasharray: 0 0 0 0 0 0 4.97 4.97;
      }

      .cls-4, .cls-6 {
        stroke-dasharray: 0 0 0 5;
      }

      .cls-9, .cls-6 {
        opacity: .3;
      }

      .cls-5 {
        stroke-dasharray: 0 0 0 0 0 0 5.04 5.04;
      }

      .cls-6 {
        isolation: isolate;
      }

      .cls-7, .cls-8 {
        stroke-dasharray: 0 0 0 0 0 0 5.02 5.02;
      }

      .cls-10 {
        fill: #c4c4c4;
      }
    </style>
  </defs>
  <g id="Layer_2-2" data-name="Layer 2">
    <g>
      <g>
        <rect class="cls-1" x="75.57" y="1095.41" width="180" height="180" rx="34.1" ry="34.1"/>
        <circle class="cls-1" cx="165.57" cy="1275.41" r="30"/>
        <circle class="cls-1" cx="165.57" cy="1095.41" r="30"/>
        <circle class="cls-1" cx="255.57" cy="1185.41" r="30"/>
        <circle class="cls-1" cx="75.57" cy="1185.41" r="30"/>
        <circle class="cls-1" cx="60.57" cy="1185.41" r="15"/>
        <circle class="cls-1" cx="270.57" cy="1185.41" r="15"/>
        <circle class="cls-1" cx="165.57" cy="1290.41" r="15"/>
        <circle class="cls-1" cx="165.57" cy="1080.41" r="15"/>
      </g>
      <g>
        <path class="cls-1" d="m771.32,1185.41c0,10.59,5.48,19.89,13.76,25.23,9.96,6.42,16.24,17.2,16.24,29.05v1.62c0,18.83-15.27,34.1-34.1,34.1h-1.62c-11.85,0-22.63-6.28-29.05-16.24-5.34-8.28-14.64-13.76-25.23-13.76s-19.89,5.48-25.23,13.76c-6.42,9.96-17.2,16.24-29.05,16.24h-1.62c-18.83,0-34.1-15.27-34.1-34.1v-1.62c0-11.85,6.28-22.63,16.24-29.05,8.28-5.34,13.76-14.64,13.76-25.23s-5.48-19.89-13.76-25.23c-9.88-6.37-16.14-17.03-16.24-28.77v-1.9c0-18.83,15.27-34.1,34.1-34.1h1.84c11.76.08,22.45,6.34,28.83,16.24,5.34,8.28,14.64,13.76,25.23,13.76s19.89-5.48,25.23-13.76c6.42-9.96,17.2-16.24,29.05-16.24h1.62c18.83,0,34.1,15.27,34.1,34.1v1.9c-.1,11.74-6.36,22.4-16.24,28.77-8.28,5.34-13.76,14.65-13.76,25.23h0Z"/>
        <g>
          <path class="cls-1" d="m765.6,1095.41c-11.85,0-22.63,6.28-29.05,16.24-5.34,8.28-14.64,13.76-25.23,13.76s-19.89-5.48-25.23-13.76c-6.38-9.9-17.07-16.16-28.83-16.24,13.06,0,19.95-2,28.95-11,8.32-8.32,10.66-17.5,22.83-18.83.17-.02.33-.04.5-.06.67-.06,1.37-.09,2.1-.1.01,0,.03-.01.05-.01s.04.01.05.01c.12,0,.23,0,.35.01,14.25.35,16.34,10.15,25.17,18.98,8.86,8.86,15.67,10.94,28.34,11h0Z"/>
          <path class="cls-1" d="m766.29,1275.41c-13.05,0-19.94,2-28.94,11s-10.93,18.67-25.26,18.98c-.06.01-.13.01-.19.01h-.08s-.02.01-.03.01-.02-.01-.03-.01c-1-.01-1.94-.07-2.83-.18-12-1.4-14.36-10.53-22.64-18.81-9-9-15.89-11-28.94-11h-.31c11.85,0,22.63-6.28,29.05-16.24,5.34-8.28,14.64-13.76,25.23-13.76s19.89,5.48,25.23,13.76c6.42,9.96,17.2,16.24,29.05,16.24h.69Z"/>
          <path class="cls-1" d="m651.32,1185.41c0,10.59-5.48,19.89-13.76,25.23-9.96,6.42-16.24,17.2-16.24,29.05v.67c0-13.06-2-19.95-11-28.95-8.84-8.84-18.65-10.93-18.98-25.23-.01-.07-.01-.14-.01-.2v-.14c.01-.96.07-1.86.16-2.71,0-.02.01-.05.01-.07,1.38-12.06,10.53-14.41,18.82-22.7,9-9,11-15.89,11-28.95.1,11.74,6.36,22.4,16.24,28.77,8.28,5.34,13.76,14.65,13.76,25.23Z"/>
          <path class="cls-1" d="m831.32,1185.86v.12c0,.06,0,.13-.01.2-.33,14.3-10.14,16.39-18.98,25.23-9,9-11,15.89-11,28.95v-.67c0-11.85-6.28-22.63-16.24-29.05-8.28-5.34-13.76-14.64-13.76-25.23s5.48-19.89,13.76-25.23c9.88-6.37,16.14-17.03,16.24-28.77,0,13.06,2,19.95,11,28.95,8.29,8.29,17.44,10.64,18.82,22.7,0,.02.01.05.01.07.09.85.15,1.75.16,2.71v.02Z"/>
        </g>
      </g>
      <g>
        <path class="cls-1" d="m498.45,1185.41c0-10.59,5.48-19.89,13.76-25.23,9.95-6.42,16.24-17.2,16.24-29.05v-1.62c0-18.83-15.27-34.1-34.1-34.1h-1.62c-11.85,0-22.63,6.28-29.05,16.24-5.34,8.28-14.64,13.76-25.23,13.76s-19.89-5.48-25.23-13.76c-6.42-9.95-17.2-16.24-29.05-16.24h-1.62c-18.83,0-34.1,15.27-34.1,34.1v1.62c0,11.85,6.28,22.63,16.24,29.05,8.28,5.34,13.76,14.64,13.76,25.23s-5.48,19.89-13.76,25.23c-9.95,6.42-16.24,17.2-16.24,29.05v1.62c0,18.83,15.27,34.1,34.1,34.1h1.62c11.85,0,22.63-6.28,29.05-16.24,5.34-8.28,14.64-13.76,25.23-13.76s19.89,5.48,25.23,13.76c6.42,9.95,17.2,16.24,29.05,16.24h1.62c18.83,0,34.1-15.27,34.1-34.1v-1.62c0-11.85-6.28-22.63-16.24-29.05-8.28-5.34-13.76-14.64-13.76-25.23Z"/>
        <g>
          <g>
            <rect class="cls-1" x="348.45" y="1095.41" width="180" height="180" rx="34.1" ry="34.1"/>
            <circle class="cls-1" cx="333.45" cy="1185.41" r="15"/>
            <circle class="cls-1" cx="543.45" cy="1185.41" r="15"/>
            <circle class="cls-1" cx="438.45" cy="1290.41" r="15"/>
            <circle class="cls-1" cx="438.45" cy="1080.41" r="15"/>
            <path class="cls-1" d="m348.45,1240.35c0-13.06-2-19.94-11-28.94s-19-11-19-26v.94c0-15,10-17,19-26s11-15.89,11-28.94v108.94Z"/>
            <path class="cls-1" d="m528.45,1240.35c0-13.06,2-19.94,11-28.94s19-11,19-26v.94c0-15-10-17-19-26s-11-15.89-11-28.94v108.94Z"/>
          </g>
          <path class="cls-1" d="m493.33,1095.41c-13.06,0-19.94-2-28.94-11s-11-19-26-19h.94c-15,0-17,10-26,19s-15.89,11-28.94,11h108.94Z"/>
          <path class="cls-1" d="m384.47,1275.41c13.06,0,19.94,2,28.94,11s11,19,26,19h-.94c15,0,17-10,26-19s15.89-11,28.94-11h-108.94Z"/>
        </g>
      </g>
      <g class="cls-9">
        <g>
          <line class="cls-1" x1="17.25" y1="1065.41" x2="19.75" y2="1065.41"/>
          <line class="cls-8" x1="24.77" y1="1065.41" x2="844.77" y2="1065.41"/>
          <line class="cls-1" x1="847.28" y1="1065.41" x2="849.78" y2="1065.41"/>
        </g>
      </g>
      <g class="cls-9">
        <g>
          <line class="cls-1" x1="17.25" y1="1095.41" x2="19.75" y2="1095.41"/>
          <line class="cls-8" x1="24.77" y1="1095.41" x2="844.77" y2="1095.41"/>
          <line class="cls-1" x1="847.28" y1="1095.41" x2="849.78" y2="1095.41"/>
        </g>
      </g>
      <g class="cls-9">
        <g>
          <line class="cls-1" x1="17.25" y1="1275.41" x2="19.75" y2="1275.41"/>
          <line class="cls-8" x1="24.77" y1="1275.41" x2="844.77" y2="1275.41"/>
          <line class="cls-1" x1="847.28" y1="1275.41" x2="849.78" y2="1275.41"/>
        </g>
      </g>
      <g class="cls-9">
        <g>
          <line class="cls-2" x1="17.25" y1="1305.41" x2="19.75" y2="1305.41"/>
          <line class="cls-7" x1="24.77" y1="1305.41" x2="844.77" y2="1305.41"/>
          <line class="cls-2" x1="847.28" y1="1305.41" x2="849.78" y2="1305.41"/>
        </g>
      </g>
      <g>
        <g class="cls-9">
          <g>
            <line class="cls-1" x1="287.77" y1="950.91" x2="290.27" y2="950.91"/>
            <line class="cls-3" x1="295.25" y1="950.91" x2="620.93" y2="950.91"/>
            <line class="cls-1" x1="623.41" y1="950.91" x2="625.91" y2="950.91"/>
          </g>
        </g>
        <g class="cls-9">
          <g>
            <line class="cls-1" x1="287.77" y1="980.91" x2="290.27" y2="980.91"/>
            <line class="cls-3" x1="295.25" y1="980.91" x2="620.93" y2="980.91"/>
            <line class="cls-1" x1="623.41" y1="980.91" x2="625.91" y2="980.91"/>
          </g>
        </g>
        <g class="cls-9">
          <g>
            <line class="cls-1" x1="287.77" y1="1010.91" x2="290.27" y2="1010.91"/>
            <line class="cls-3" x1="295.25" y1="1010.91" x2="620.93" y2="1010.91"/>
            <line class="cls-1" x1="623.41" y1="1010.91" x2="625.91" y2="1010.91"/>
          </g>
        </g>
        <circle class="cls-1" cx="536.77" cy="980.91" r="30"/>
        <circle class="cls-1" cx="437.8" cy="980.91" r="30"/>
        <circle class="cls-1" cx="536.77" cy="965.91" r="15"/>
        <circle class="cls-1" cx="345.77" cy="965.91" r="15"/>
      </g>
      <path d="m660.77,985.61l-2.94-4.05-2.9,4.05h-1.61l3.68-5.03-3.46-4.77h1.6l2.74,3.77,2.72-3.77h1.53l-3.46,4.73,3.71,5.07h-1.61,0Z"/>
      <line class="cls-1" x1="644.87" y1="1010.91" x2="644.87" y2="950.91"/>
      <line class="cls-1" x1="640.26" y1="1010.91" x2="649.26" y2="1010.91"/>
      <line class="cls-1" x1="640.26" y1="950.91" x2="649.26" y2="950.91"/>
      <line class="cls-1" x1="644.87" y1="1010.91" x2="644.87" y2="950.91"/>
      <line class="cls-1" x1="640.26" y1="1010.91" x2="649.26" y2="1010.91"/>
      <line class="cls-1" x1="640.26" y1="950.91" x2="649.26" y2="950.91"/>
      <line class="cls-1" x1="272.78" y1="980.91" x2="272.78" y2="950.91"/>
      <line class="cls-1" x1="268.17" y1="980.91" x2="277.17" y2="980.91"/>
      <line class="cls-1" x1="268.17" y1="950.91" x2="277.17" y2="950.91"/>
      <line class="cls-1" x1="272.78" y1="980.91" x2="272.78" y2="950.91"/>
      <line class="cls-1" x1="268.17" y1="980.91" x2="277.17" y2="980.91"/>
      <line class="cls-1" x1="268.17" y1="950.91" x2="277.17" y2="950.91"/>
      <g>
        <path d="m229.17,960.52v9.8h-1.39v-8.58h-2.21v-1.22h3.6Z"/>
        <path d="m236.27,958.53h1.22l-4.62,13.19h-1.22l4.62-13.19Z"/>
        <path d="m245.93,969.1v1.22h-7.04v-.95l3.99-3.85c.49-.47.81-.87.98-1.21s.25-.68.25-1.03c0-.51-.18-.91-.54-1.2-.36-.28-.88-.43-1.55-.43-1.08,0-1.92.35-2.51,1.06l-.95-.83c.38-.47.88-.83,1.5-1.09s1.31-.39,2.08-.39c1.03,0,1.84.25,2.45.74s.91,1.15.91,2c0,.52-.11,1.02-.34,1.48-.22.47-.65,1-1.27,1.6l-3,2.88h5.04Z"/>
        <path d="m255.43,970.32l-2.94-4.05-2.9,4.05h-1.61l3.68-5.03-3.46-4.77h1.6l2.74,3.77,2.72-3.77h1.53l-3.46,4.73,3.71,5.07h-1.61Z"/>
      </g>
    </g>
    <g>
      <g>
        <g>
          <path class="cls-10" d="m757.21,103.57h-111.8c-18.83,0-34.1,15.27-34.1,34.1v111.8c0,18.83,15.27,34.1,34.1,34.1h111.8c18.83,0,34.1-15.27,34.1-34.1v-111.8c0-18.83-15.27-34.1-34.1-34.1Zm-55.9,120c-16.57,0-30-13.43-30-30s13.43-30,30-30,30,13.43,30,30-13.43,30-30,30Z"/>
          <circle class="cls-1" cx="701.31" cy="193.57" r="30"/>
        </g>
        <rect class="cls-1" x="79.69" y="103.57" width="180" height="180"/>
        <circle class="cls-1" cx="169.69" cy="193.57" r="30"/>
        <circle class="cls-1" cx="169.69" cy="283.57" r="30"/>
        <circle class="cls-1" cx="169.69" cy="103.57" r="30"/>
        <circle class="cls-1" cx="259.69" cy="193.57" r="30"/>
        <circle class="cls-1" cx="79.69" cy="193.57" r="30"/>
        <g>
          <path class="cls-10" d="m490.84,193.57c0-10.59,5.48-19.89,13.76-25.23,9.95-6.42,16.24-17.2,16.24-29.05v-1.62c0-18.83-15.27-34.1-34.1-34.1h-1.62c-11.85,0-22.63,6.28-29.05,16.24-5.34,8.28-14.64,13.76-25.23,13.76s-19.89-5.48-25.23-13.76c-6.42-9.95-17.2-16.24-29.05-16.24h-1.62c-18.83,0-34.1,15.27-34.1,34.1v1.62c0,11.85,6.28,22.63,16.24,29.05,8.28,5.34,13.76,14.64,13.76,25.23s-5.48,19.89-13.76,25.23c-9.95,6.42-16.24,17.2-16.24,29.05v1.62c0,18.83,15.27,34.1,34.1,34.1h1.62c11.85,0,22.63-6.28,29.05-16.24,5.34-8.28,14.64-13.76,25.23-13.76s19.89,5.48,25.23,13.76c6.42,9.95,17.2,16.24,29.05,16.24h1.62c18.83,0,34.1-15.27,34.1-34.1v-1.62c0-11.85-6.28-22.63-16.24-29.05-8.28-5.34-13.76-14.64-13.76-25.23h0Z"/>
          <g>
            <circle class="cls-1" cx="430.84" cy="283.57" r="30"/>
            <circle class="cls-1" cx="430.84" cy="103.57" r="30"/>
            <circle class="cls-1" cx="375.19" cy="137.92" r="34.35"/>
            <circle class="cls-1" cx="486.35" cy="137.92" r="34.35"/>
            <circle class="cls-1" cx="375.19" cy="249.23" r="34.35"/>
            <circle class="cls-1" cx="486.35" cy="249.23" r="34.35"/>
            <circle class="cls-1" cx="520.84" cy="193.57" r="30"/>
            <circle class="cls-1" cx="340.84" cy="193.57" r="30"/>
          </g>
        </g>
        <g class="cls-9">
          <g>
            <line class="cls-1" x1="31.15" y1="163.57" x2="33.65" y2="163.57"/>
            <line class="cls-8" x1="38.66" y1="163.57" x2="849.06" y2="163.57"/>
            <line class="cls-1" x1="851.57" y1="163.57" x2="854.07" y2="163.57"/>
          </g>
        </g>
        <g class="cls-9">
          <g>
            <line class="cls-1" x1="31.15" y1="103.57" x2="33.65" y2="103.57"/>
            <line class="cls-8" x1="38.66" y1="103.57" x2="849.06" y2="103.57"/>
            <line class="cls-1" x1="851.57" y1="103.57" x2="854.07" y2="103.57"/>
          </g>
        </g>
        <g class="cls-9">
          <g>
            <line class="cls-1" x1="31.15" y1="223.57" x2="33.65" y2="223.57"/>
            <line class="cls-8" x1="38.66" y1="223.57" x2="849.06" y2="223.57"/>
            <line class="cls-1" x1="851.57" y1="223.57" x2="854.07" y2="223.57"/>
          </g>
        </g>
        <g class="cls-9">
          <g>
            <line class="cls-1" x1="31.15" y1="283.57" x2="33.65" y2="283.57"/>
            <line class="cls-8" x1="38.66" y1="283.57" x2="849.06" y2="283.57"/>
            <line class="cls-1" x1="851.57" y1="283.57" x2="854.07" y2="283.57"/>
          </g>
        </g>
        <line class="cls-6" x1="79.69" y1="33.91" x2="79.69" y2="347.26"/>
        <line class="cls-6" x1="139.69" y1="33.91" x2="139.69" y2="347.26"/>
        <line class="cls-6" x1="199.69" y1="33.91" x2="199.69" y2="347.26"/>
        <line class="cls-6" x1="259.69" y1="33.91" x2="259.69" y2="347.26"/>
        <line class="cls-6" x1="340.69" y1="33.91" x2="340.69" y2="347.26"/>
        <line class="cls-6" x1="400.69" y1="33.91" x2="400.69" y2="347.26"/>
        <line class="cls-6" x1="460.69" y1="33.91" x2="460.69" y2="347.26"/>
        <line class="cls-6" x1="520.69" y1="33.91" x2="520.69" y2="347.26"/>
        <line class="cls-6" x1="611.31" y1="33.91" x2="611.31" y2="347.26"/>
        <line class="cls-6" x1="671.31" y1="33.91" x2="671.31" y2="347.26"/>
        <line class="cls-6" x1="731.31" y1="33.91" x2="731.31" y2="347.26"/>
        <line class="cls-6" x1="791.31" y1="33.91" x2="791.31" y2="347.26"/>
        <g>
          <g>
            <path d="m166.97,356.79c.5.5.76,1.14.76,1.91,0,.56-.14,1.07-.42,1.52-.28.45-.7.81-1.25,1.08-.56.27-1.23.4-2.04.4-.7,0-1.37-.11-2.02-.32-.64-.21-1.17-.5-1.58-.88l.64-1.11c.34.32.77.57,1.29.76s1.08.29,1.67.29c.73,0,1.29-.15,1.7-.46.41-.31.61-.73.61-1.27s-.2-.96-.6-1.26-1.01-.45-1.82-.45h-.78v-.98l2.46-3.02h-4.72v-1.22h6.47v.95l-2.56,3.16c.96.09,1.69.39,2.2.89h0Z"/>
            <path d="m177.25,361.58l-2.94-4.05-2.9,4.05h-1.61l3.68-5.03-3.46-4.77h1.6l2.74,3.77,2.72-3.77h1.53l-3.46,4.73,3.71,5.07h-1.61Z"/>
          </g>
          <line class="cls-1" x1="79.69" y1="371.91" x2="259.69" y2="371.91"/>
          <line class="cls-1" x1="79.69" y1="367.31" x2="79.69" y2="376.31"/>
          <line class="cls-1" x1="259.69" y1="367.31" x2="259.69" y2="376.31"/>
        </g>
        <g>
          <path d="m893.71,193.47c.5.5.76,1.14.76,1.91,0,.56-.14,1.07-.42,1.52-.28.45-.7.81-1.25,1.08-.56.27-1.23.4-2.04.4-.7,0-1.37-.11-2.02-.32-.64-.21-1.17-.5-1.58-.88l.64-1.11c.34.32.77.57,1.29.76s1.08.29,1.67.29c.73,0,1.29-.15,1.7-.46.41-.31.61-.73.61-1.27s-.2-.96-.6-1.26-1.01-.45-1.82-.45h-.78v-.98l2.46-3.02h-4.72v-1.22h6.47v.95l-2.56,3.16c.96.09,1.69.39,2.2.89h-.01Z"/>
          <path d="m903.98,198.27l-2.94-4.05-2.9,4.05h-1.61l3.68-5.03-3.46-4.77h1.6l2.74,3.77,2.72-3.77h1.53l-3.46,4.73,3.71,5.07h-1.61,0Z"/>
        </g>
        <path d="m7.45,198.27l-2.94-4.05-2.9,4.05H0l3.68-5.03-3.46-4.77h1.6l2.74,3.77,2.72-3.77h1.53l-3.46,4.73,3.71,5.07h-1.61,0Z"/>
        <line class="cls-1" x1="877.29" y1="283.57" x2="877.29" y2="103.57"/>
        <line class="cls-1" x1="872.69" y1="103.57" x2="881.69" y2="103.57"/>
        <line class="cls-1" x1="877.29" y1="283.57" x2="877.29" y2="103.57"/>
        <line class="cls-1" x1="872.79" y1="283.57" x2="881.79" y2="283.57"/>
        <line class="cls-1" x1="872.69" y1="103.57" x2="881.69" y2="103.57"/>
        <line class="cls-1" x1="17.23" y1="223.57" x2="17.23" y2="163.57"/>
        <line class="cls-1" x1="12.63" y1="223.57" x2="21.63" y2="223.57"/>
        <line class="cls-1" x1="12.63" y1="163.57" x2="21.63" y2="163.57"/>
        <line class="cls-1" x1="17.23" y1="223.57" x2="17.23" y2="163.57"/>
        <line class="cls-1" x1="12.63" y1="223.57" x2="21.63" y2="223.57"/>
        <line class="cls-1" x1="12.63" y1="163.57" x2="21.63" y2="163.57"/>
        <g>
          <path d="m171.33,9.8l-2.94-4.05-2.9,4.05h-1.61l3.68-5.03-3.46-4.77h1.6l2.74,3.77,2.72-3.77h1.53l-3.46,4.73,3.71,5.07h-1.61Z"/>
          <line class="cls-1" x1="139.69" y1="17.7" x2="199.69" y2="17.7"/>
          <line class="cls-1" x1="139.69" y1="13.09" x2="139.69" y2="22.09"/>
          <line class="cls-1" x1="199.69" y1="13.09" x2="199.69" y2="22.09"/>
        </g>
      </g>
      <g>
        <g>
          <path d="m425.69,583.11c0,10.53,5.45,19.78,13.68,25.09,9.9,6.38,16.15,17.1,16.15,28.89v1.61c0,18.73-15.19,33.91-33.91,33.91h-1.61c-11.78,0-22.51-6.25-28.89-16.15-5.31-8.23-14.56-13.68-25.09-13.68s-19.78,5.45-25.09,13.68c-6.38,9.9-17.11,16.15-28.89,16.15h-1.61c-18.73,0-33.91-15.19-33.91-33.91v-1.61c0-11.78,6.25-22.51,16.15-28.89,8.23-5.31,13.68-14.56,13.68-25.09s-5.45-19.78-13.68-25.09c-9.83-6.33-16.05-16.94-16.15-28.61v-1.89c0-18.73,15.19-33.91,33.91-33.91h1.83c11.7.08,22.33,6.3,28.67,16.15,5.31,8.23,14.56,13.68,25.09,13.68s19.78-5.45,25.09-13.68c6.38-9.9,17.11-16.15,28.89-16.15h1.61c18.73,0,33.91,15.19,33.91,33.91v1.89c-.1,11.68-6.32,22.28-16.15,28.61-8.23,5.31-13.68,14.57-13.68,25.09Z"/>
          <path d="m611.56,494.61h-111.18c-18.73,0-33.91,15.18-33.91,33.91v111.18c0,18.73,15.18,33.91,33.91,33.91h111.18c18.73,0,33.91-15.18,33.91-33.91v-111.18c0-18.73-15.18-33.91-33.91-33.91Zm-55.59,119.34c-16.48,0-29.83-13.36-29.83-29.83s13.36-29.83,29.83-29.83,29.83,13.36,29.83,29.83-13.36,29.83-29.83,29.83Z"/>
        </g>
        <g class="cls-9">
          <g>
            <line class="cls-1" x1="206.57" y1="494.61" x2="209.07" y2="494.61"/>
            <line class="cls-5" x1="214.11" y1="494.61" x2="705.09" y2="494.61"/>
            <line class="cls-1" x1="707.61" y1="494.61" x2="710.11" y2="494.61"/>
          </g>
          <g>
            <line class="cls-1" x1="206.57" y1="672.62" x2="209.07" y2="672.62"/>
            <line class="cls-5" x1="214.11" y1="672.62" x2="705.09" y2="672.62"/>
            <line class="cls-1" x1="707.61" y1="672.62" x2="710.11" y2="672.62"/>
          </g>
          <line class="cls-4" x1="276.52" y1="460.97" x2="276.52" y2="705.26"/>
          <line class="cls-4" x1="455.52" y1="460.97" x2="455.52" y2="705.26"/>
          <line class="cls-4" x1="526.13" y1="460.97" x2="526.13" y2="705.26"/>
          <line class="cls-4" x1="585.8" y1="460.97" x2="585.8" y2="705.26"/>
          <line class="cls-4" x1="466.46" y1="460.97" x2="466.46" y2="705.26"/>
          <line class="cls-4" x1="645.47" y1="460.97" x2="645.47" y2="705.26"/>
        </g>
        <g>
          <line class="cls-1" x1="455.52" y1="439.91" x2="466.46" y2="439.91"/>
          <line class="cls-1" x1="455.52" y1="435.3" x2="455.52" y2="444.3"/>
          <line class="cls-1" x1="466.46" y1="435.3" x2="466.46" y2="444.3"/>
        </g>
        <g>
          <path d="m447.26,418.39v9.8h-1.39v-8.58h-2.21v-1.22h3.6Z"/>
          <path d="m454.35,416.4h1.22l-4.62,13.19h-1.22l4.62-13.19Z"/>
          <path d="m462.8,422.61c.51.24.91.59,1.2,1.04.29.45.43.97.43,1.56s-.15,1.16-.46,1.62c-.3.47-.72.83-1.25,1.08-.53.26-1.12.39-1.77.39-1.32,0-2.33-.42-3.04-1.27-.71-.85-1.07-2.05-1.07-3.61,0-1.09.19-2.02.58-2.79.39-.77.93-1.35,1.62-1.75.7-.4,1.5-.59,2.43-.59.48,0,.92.05,1.34.15.42.1.78.24,1.09.43l-.53,1.09c-.47-.31-1.09-.46-1.88-.46-1.02,0-1.82.32-2.39.95-.58.63-.87,1.55-.87,2.75,0,.15,0,.27.01.35.28-.42.67-.74,1.16-.96s1.04-.33,1.66-.33,1.22.12,1.73.36h.01Zm-.33,4.05c.4-.34.6-.81.6-1.39s-.2-1.04-.61-1.38-.95-.51-1.63-.51c-.44,0-.83.08-1.17.25s-.61.4-.8.69c-.19.29-.29.61-.29.97s.09.66.27.95c.18.28.45.51.8.69.35.17.77.26,1.25.26.64,0,1.17-.17,1.57-.52h.01Z"/>
          <path d="m479.01,428.19l-2.94-4.05-2.9,4.05h-1.61l3.68-5.03-3.46-4.77h1.6l2.74,3.77,2.72-3.77h1.53l-3.46,4.73,3.71,5.07h-1.61Z"/>
        </g>
        <g>
          <g>
            <path d="m363.3,714.47c.5.5.76,1.14.76,1.91,0,.56-.14,1.07-.42,1.52-.28.45-.7.81-1.25,1.08-.56.27-1.23.4-2.04.4-.7,0-1.37-.11-2.02-.32-.64-.21-1.17-.5-1.58-.88l.64-1.11c.34.32.77.57,1.29.76s1.08.29,1.67.29c.73,0,1.29-.15,1.7-.46.41-.31.61-.73.61-1.27s-.2-.96-.6-1.26-1.01-.45-1.82-.45h-.78v-.98l2.46-3.02h-4.72v-1.22h6.47v.95l-2.56,3.16c.96.09,1.69.39,2.2.89h-.01Z"/>
            <path d="m373.57,719.27l-2.94-4.05-2.9,4.05h-1.61l3.68-5.03-3.46-4.77h1.6l2.74,3.77,2.72-3.77h1.53l-3.46,4.73,3.71,5.07h-1.61Z"/>
          </g>
          <line class="cls-1" x1="276.02" y1="729.6" x2="456.02" y2="729.6"/>
          <line class="cls-1" x1="276.02" y1="724.99" x2="276.02" y2="733.99"/>
          <line class="cls-1" x1="456.02" y1="724.99" x2="456.02" y2="733.99"/>
        </g>
      </g>
      <circle class="cls-1" cx="645.73" cy="137.92" r="34.35"/>
      <circle class="cls-1" cx="756.89" cy="137.92" r="34.35"/>
      <circle class="cls-1" cx="645.73" cy="249.23" r="34.35"/>
      <circle class="cls-1" cx="756.89" cy="249.23" r="34.35"/>
    </g>
  </g>
</svg>