<?xml version="1.0" encoding="utf-8"?>
<!-- Generator: Adobe Illustrator 28.1.0, SVG Export Plug-In . SVG Version: 6.00 Build 0)  -->
<svg version="1.1" id="Layer_2_00000070832687257069993010000006508615960638687916_"
	 xmlns="http://www.w3.org/2000/svg" xmlns:xlink="http://www.w3.org/1999/xlink" x="0px" y="0px" viewBox="0 0 3311.4 753.3"
	 style="enable-background:new 0 0 3311.4 753.3;" xml:space="preserve">
<style type="text/css">
	.st0{fill:#FF6635;}
	.st1{fill:#FFFFFF;}
</style>
<g id="Layer_4">
	<rect class="st0" width="3311.4" height="753.3"/>
	<g>
		<polygon class="st0" points="2121.7,544.1 2125.1,499.3 2119.5,543.1 1965.2,543.1 2025.6,209.2 2141.4,210 2246,209.2 
			2272.3,544.1 		"/>
		<polygon class="st1" points="2120.1,366.6 2156.8,368.9 2145.3,522.2 2248.7,522.2 2225.8,231.2 2153,231.8 2149.8,303 
			2118.1,301.5 2128.1,231.8 2043.8,231.2 1991.4,521.3 2100.3,521.3 		"/>
		<polygon class="st0" points="2282.7,448.6 2282.7,199.1 2437.3,195.4 2424.3,460.9 		"/>
		<polygon class="st1" points="2403.6,437.2 2304.5,428.6 2304.5,220.4 2414.4,217.8 		"/>
		<polygon class="st0" points="2277.3,540.1 2285.9,432.2 2421.3,443.2 2411.9,560.8 		"/>
		<polygon class="st1" points="2392,535.6 2300.7,521.6 2305.9,455.8 2397.8,463.2 		"/>
		<path class="st0" d="M1900.7,544.1c-79.7,0-129.9-34.4-132-35.8l-17.8-12.4l12.3-17.9c0.1-0.2,14.7-21.5,29.5-42.5
			c8.7-12.4,15.8-22.3,21.1-29.5c10.9-14.7,16.3-22.1,28.3-22.1h4.8l4.4,2c1.2,0.6,2.2,1.1,3.8,2.1c21.3,12.6,31.6,14.5,35.3,14.6
			c0,0,0.1-0.1,0.1-0.2c-3.4-2.5-11.3-7.2-29.1-13.2c-33.7-11.3-48.5-31.5-55-46.5c-9.4-21.8-8.3-47.4,3.1-72.3
			c12.6-27.4,43.2-56.6,91.7-56.6c27.4,0,56.2,9.5,85.7,28.2l20,12.7l-48.3,63.8c52.9,22.5,82.8,64.8,82.8,118.2
			c0,28.5-14.7,56.2-40.3,76.2C1975.1,533.3,1940.3,544.1,1900.7,544.1L1900.7,544.1z"/>
		<path class="st1" d="M1975.4,260.6l-29.2,38.6c0,0-36.2-14.6-46.2,2.8c-10,17.4,6.1,22,35.3,31.3c60.6,19.3,84.5,60.5,84.5,103.6
			s-45.4,85.4-119.1,85.4s-119.5-31.9-119.5-31.9s58.7-85.6,61-84.5c2.3,1.1,47.8,31,63.3,12.9s12.7-33.4-37.1-50.1
			s-53.5-57.4-39-89C1846.7,242.4,1900,212.8,1975.4,260.6L1975.4,260.6z"/>
		<polygon class="st0" points="1734.7,553.9 1705,452.6 1690,553.9 1522.9,553.9 1654.2,218.9 1731.6,227.4 1870.3,553.9 		"/>
		<path class="st1" d="M1687.8,419.5l29.2-3.5l34.1,116.1h86.2l-120.8-284.3l-48.1-5.3L1554.9,532h116.3L1687.8,419.5L1687.8,419.5z
			 M1690.9,326l16,57.3h-25.7L1690.9,326z"/>
		<path class="st0" d="M1327.1,554.7l27.3-333.8h20.1c131.8,0,195.3,13,199.9,87c1.3,21.6-3,37.5-9.6,49
			c27.9,15.6,49.1,44.6,49.1,85.1c0,71.6-38.4,112.6-105.3,112.6H1327.1L1327.1,554.7z M1506.6,445.4c4.3-0.6,8.1-1.6,11-2.9
			c4.7-2.1,5.2-4,5.3-7.3c-1.7-1.1-6.7-3.2-16.7-4L1506.6,445.4L1506.6,445.4z M1479.7,311.5c3.5-0.9,6-1.9,7.4-2.8
			c-1.5-0.7-3.9-1.5-7.3-2.2L1479.7,311.5L1479.7,311.5z"/>
		<path class="st1" d="M1520.1,365.8c17.6-4.7,34.7-20.3,32.5-56.5c-3-48.3-33-66.5-178.1-66.5l-23.7,290.1h157.8
			c50.7,0,83.5-27.8,83.5-90.8C1592.1,394.3,1555.9,368.5,1520.1,365.8L1520.1,365.8z M1458.8,283.5c0,0,52-4.1,51,25.4
			s-52.7,26.2-52.7,26.2L1458.8,283.5L1458.8,283.5z M1544.7,435.1c-0.1,39.6-59.3,32.3-59.3,32.3l-1.7-57.4
			C1483.7,410,1544.8,402,1544.7,435.1L1544.7,435.1z"/>
		<path class="st0" d="M1080.3,555.1l54.9-334.5l193.2,1.1l12.1,70l4.3-0.6l8.3,107.1l15.6-2l20.1,158.9L1080.3,555.1L1080.3,555.1z
			 M1249,411.7l31.9-4.1l-31.8-1.3L1249,411.7L1249,411.7z M1255.9,303.8l15.7-2.2l-15.8,0.3L1255.9,303.8L1255.9,303.8z"/>
		<polygon class="st1" points="1226.7,436.6 1227.6,383.5 1330.3,387.8 1324.8,316 1234.9,328.8 1233.3,280.3 1316.1,279 
			1310,243.4 1153.8,242.5 1106,533.2 1363.9,533.2 1349.7,420.6 		"/>
		<polygon class="st0" points="1024.1,509.8 1021.9,552.7 874.1,552 903.6,227 1007.3,216.4 1010,293.8 1064.8,205.1 1188.1,283.6 
			1097.3,373.8 1208.4,536.7 1050.4,564.8 		"/>
		<polygon class="st1" points="923.7,246.9 986.3,240.5 990.6,366.6 1071.7,235.4 1153.3,287.4 1069.1,371.1 1171.4,521.1 
			1062.9,540.4 1006.5,422.6 1001.2,530.7 898,530.2 		"/>
	</g>
</g>
<g id="Layer_4_00000157288086751854932200000017916910531770409149_">
	<rect y="-1233.7" class="st1" width="3311.4" height="753.3"/>
	<g>
		<polygon class="st1" points="2121.7,-689.6 2125.1,-734.4 2119.5,-690.6 1965.2,-690.6 2025.6,-1024.5 2141.4,-1023.7 
			2246,-1024.5 2272.3,-689.6 		"/>
		<polygon class="st0" points="2120.1,-867.1 2156.8,-864.8 2145.3,-711.5 2248.7,-711.5 2225.8,-1002.5 2153,-1002 2149.8,-930.8 
			2118.1,-932.2 2128.1,-1002 2043.8,-1002.5 1991.4,-712.4 2100.3,-712.4 		"/>
		<polygon class="st1" points="2282.7,-785.1 2282.7,-1034.6 2437.3,-1038.3 2424.3,-772.9 		"/>
		<polygon class="st0" points="2403.6,-796.5 2304.5,-805.1 2304.5,-1013.3 2414.4,-1015.9 		"/>
		<polygon class="st1" points="2277.3,-693.6 2285.9,-801.5 2421.3,-790.5 2411.9,-672.9 		"/>
		<polygon class="st0" points="2392,-698.1 2300.7,-712.1 2305.9,-777.9 2397.8,-770.5 		"/>
		<path class="st1" d="M1900.7-689.6c-79.7,0-129.9-34.3-132-35.8l-17.8-12.4l12.3-17.9c0.1-0.2,14.7-21.5,29.5-42.5
			c8.7-12.4,15.8-22.3,21.1-29.5c10.9-14.7,16.3-22.1,28.3-22.1h4.8l4.4,2c1.2,0.6,2.2,1.1,3.8,2.1c21.3,12.6,31.6,14.5,35.3,14.6
			c0,0,0.1-0.1,0.1-0.2c-3.4-2.5-11.3-7.2-29.1-13.2c-33.7-11.3-48.5-31.5-55-46.5c-9.4-21.8-8.3-47.4,3.1-72.3
			c12.6-27.4,43.2-56.6,91.7-56.6c27.4,0,56.2,9.5,85.7,28.2l20,12.7l-48.3,63.8c52.9,22.5,82.8,64.8,82.8,118.2
			c0,28.5-14.7,56.2-40.3,76.2C1975.1-700.4,1940.3-689.6,1900.7-689.6L1900.7-689.6z"/>
		<path class="st0" d="M1975.4-973.1l-29.2,38.6c0,0-36.2-14.6-46.2,2.8c-10,17.4,6.1,22,35.3,31.3c60.6,19.3,84.5,60.5,84.5,103.7
			c0,43.2-45.4,85.4-119.1,85.4s-119.5-31.9-119.5-31.9s58.7-85.6,61-84.5c2.3,1.1,47.8,31,63.3,12.9c15.5-18.1,12.7-33.4-37.1-50.1
			s-53.5-57.4-39-89C1846.7-991.3,1900-1020.9,1975.4-973.1L1975.4-973.1z"/>
		<polygon class="st1" points="1734.7,-679.8 1705,-781.1 1690,-679.8 1522.9,-679.8 1654.2,-1014.8 1731.6,-1006.3 1870.3,-679.8 
					"/>
		<path class="st0" d="M1687.8-814.2l29.2-3.5l34.1,116.1h86.2L1716.5-986l-48.1-5.3l-113.5,289.6h116.3L1687.8-814.2L1687.8-814.2z
			 M1690.9-907.7l16,57.3h-25.7L1690.9-907.7z"/>
		<path class="st1" d="M1327.1-679l27.3-333.8h20.1c131.8,0,195.3,13,199.9,87c1.3,21.6-3,37.5-9.6,49
			c27.9,15.6,49.1,44.6,49.1,85.1c0,71.6-38.4,112.6-105.3,112.6H1327.1L1327.1-679z M1506.6-788.3c4.3-0.6,8.1-1.6,11-2.9
			c4.7-2.1,5.2-4,5.3-7.3c-1.7-1.1-6.7-3.2-16.7-4L1506.6-788.3L1506.6-788.3z M1479.7-922.2c3.5-0.9,6-1.9,7.4-2.8
			c-1.5-0.7-3.9-1.5-7.3-2.2L1479.7-922.2L1479.7-922.2z"/>
		<path class="st0" d="M1520.1-867.9c17.6-4.7,34.7-20.3,32.5-56.5c-3-48.3-33-66.5-178.1-66.5l-23.7,290.1h157.8
			c50.7,0,83.5-27.8,83.5-90.8C1592.1-839.4,1555.9-865.2,1520.1-867.9L1520.1-867.9z M1458.8-950.2c0,0,52-4.1,51,25.4
			c-1,29.5-52.7,26.2-52.7,26.2L1458.8-950.2L1458.8-950.2z M1544.7-798.6c-0.1,39.6-59.3,32.3-59.3,32.3l-1.7-57.4
			C1483.7-823.7,1544.8-831.7,1544.7-798.6L1544.7-798.6z"/>
		<path class="st1" d="M1080.3-678.6l54.9-334.5l193.2,1.1l12.1,70l4.3-0.6l8.3,107.1l15.6-2l20.1,158.9L1080.3-678.6L1080.3-678.6z
			 M1249-822l31.9-4.1l-31.8-1.3L1249-822L1249-822z M1255.9-929.9l15.7-2.2l-15.8,0.3L1255.9-929.9L1255.9-929.9z"/>
		<polygon class="st0" points="1226.7,-797.1 1227.6,-850.2 1330.3,-845.9 1324.8,-917.7 1234.9,-904.9 1233.3,-953.4 
			1316.1,-954.8 1310,-990.3 1153.8,-991.2 1106,-700.5 1363.9,-700.5 1349.7,-813.1 		"/>
		<polygon class="st1" points="1024.1,-723.9 1021.9,-681 874.1,-681.7 903.6,-1006.7 1007.3,-1017.3 1010,-939.9 1064.8,-1028.7 
			1188.1,-950.1 1097.3,-859.9 1208.4,-697 1050.4,-669 		"/>
		<polygon class="st0" points="923.7,-986.9 986.3,-993.2 990.6,-867.1 1071.7,-998.3 1153.3,-946.3 1069.1,-862.6 1171.4,-712.6 
			1062.9,-693.3 1006.5,-811.1 1001.2,-703 898,-703.5 		"/>
	</g>
</g>
</svg>
