<?xml version="1.0" encoding="utf-8"?>
<!-- Generator: Adobe Illustrator 28.1.0, SVG Export Plug-In . SVG Version: 6.00 Build 0)  -->
<svg version="1.1" id="Layer_2_00000148622121331094319030000004003337712961211021_"
	 xmlns="http://www.w3.org/2000/svg" xmlns:xlink="http://www.w3.org/1999/xlink" x="0px" y="0px" viewBox="0 0 1000 750"
	 style="enable-background:new 0 0 1000 750;" xml:space="preserve">
<style type="text/css">
	.st0{fill:#231F20;}
</style>
<g id="Layer_2-2">
	<g>
		<path class="st0" d="M252.8,377.9c-3.5,0-7.1-0.3-10.5-0.9c-18.4-3.1-34.2-14.3-43.5-30.6c-1.7-3-3.1-6.1-4.3-9.2l0-0.1
			c0,0,0-0.1,0-0.1c-1.4-3.7-2.4-7.7-3-11.7c-0.5-3.1-0.7-6.3-0.7-9.4c0-3.1,0.2-6.3,0.7-9.4c0.5-3.5,1.4-6.9,2.5-10.2l0.1-0.2
			c1.1-3.2,2.5-6.4,4.1-9.4c10.8-20.2,31.8-32.7,54.7-32.7s43.8,12.5,54.7,32.7c1.6,3,3,6.2,4.1,9.4l0.1,0.2
			c1.1,3.3,1.9,6.7,2.5,10.2c0.5,3.1,0.7,6.3,0.7,9.4s-0.2,6.3-0.7,9.4c-0.6,4-1.6,7.9-3,11.7c0,0,0,0.1,0,0.1l0,0.1
			c-1.2,3.2-2.6,6.3-4.3,9.2c-9.2,16.3-25.1,27.4-43.5,30.6C259.8,377.6,256.3,377.9,252.8,377.9L252.8,377.9z M196,296.6L196,296.6
			l-0.1,0.2c-1.1,3.2-1.9,6.6-2.4,10.1c-0.5,3-0.7,6.1-0.7,9.1c0,3,0.2,6.1,0.7,9.1c0.6,3.9,1.6,7.7,2.9,11.3l0.1,0.2
			c1.1,3,2.5,6,4.1,8.9c8.9,15.8,24.3,26.6,42.1,29.6c6.6,1.1,13.7,1.1,20.3,0c17.8-3,33.1-13.8,42.1-29.6c1.6-2.8,3-5.8,4.1-8.9
			l0.1-0.2c1.3-3.7,2.3-7.5,2.9-11.3c0.5-3,0.7-6.1,0.7-9.1s-0.2-6.1-0.7-9.1c-0.5-3.4-1.3-6.8-2.4-10.1l-0.1-0.2
			c-1-3.1-2.3-6.1-3.9-8.9c-10.5-19.5-30.7-31.7-52.9-31.7s-42.4,12.1-52.9,31.7C198.4,290.5,197.1,293.5,196,296.6L196,296.6z"/>
		<path class="st0" d="M195.5,337.7h-64.3c-0.6,0-1-0.5-1-1v-40.3c0-0.6,0.5-1,1-1H195c0.6,0,1,0.5,1,1c0,0.1,0,0.2-0.1,0.3
			c-1.1,3.2-1.9,6.6-2.4,10.1c-0.5,3-0.7,6.1-0.7,9.1c0,3,0.2,6.1,0.7,9.1c0.6,3.9,1.6,7.7,2.9,11.3c0.1,0.3,0.1,0.7-0.1,0.9
			C196.1,337.5,195.8,337.7,195.5,337.7L195.5,337.7z M132.1,335.7H194c-1.1-3.3-2-6.8-2.5-10.3c-0.5-3.1-0.7-6.3-0.7-9.4
			s0.2-6.3,0.7-9.4c0.5-3.1,1.2-6.1,2.1-9.1h-61.5C132.1,297.4,132.1,335.7,132.1,335.7z"/>
		<path class="st0" d="M324.8,337.7h-14.7c-0.3,0-0.6-0.2-0.8-0.4c-0.2-0.3-0.2-0.6-0.1-0.9c1.3-3.6,2.3-7.4,2.9-11.3
			c0.5-3,0.7-6.1,0.7-9.1c0-3-0.2-6.1-0.7-9.1c-0.5-3.4-1.3-6.8-2.4-10.1c0-0.1-0.1-0.2-0.1-0.3c0-0.6,0.5-1,1-1h14.3
			c0.6,0,1,0.5,1,1v40.3C325.8,337.2,325.4,337.7,324.8,337.7L324.8,337.7z M311.6,335.7h12.3v-38.2H312c0.9,2.9,1.6,6,2.1,9.1
			c0.5,3.1,0.7,6.3,0.7,9.4c0,3.1-0.2,6.3-0.7,9.4C313.5,328.8,312.7,332.3,311.6,335.7L311.6,335.7z"/>
		<path class="st0" d="M372.8,337.7h-13.5c-0.6,0-1-0.5-1-1v-40.3c0-0.6,0.5-1,1-1h13.5c0.6,0,1,0.5,1,1v40.3
			C373.8,337.2,373.4,337.7,372.8,337.7z M360.4,335.7h11.5v-38.2h-11.5V335.7z"/>
		<path class="st0" d="M420.8,337.7h-13.5c-0.6,0-1-0.5-1-1v-40.3c0-0.6,0.5-1,1-1h13.5c0.6,0,1,0.5,1,1v40.3
			C421.8,337.2,421.4,337.7,420.8,337.7z M408.3,335.7h11.5v-38.2h-11.5V335.7z"/>
		<path class="st0" d="M468.8,337.7h-13.5c-0.6,0-1-0.5-1-1v-40.3c0-0.6,0.5-1,1-1h13.5c0.6,0,1,0.5,1,1v40.3
			C469.8,337.2,469.4,337.7,468.8,337.7z M456.3,335.7h11.5v-38.2h-11.5V335.7z"/>
		<path class="st0" d="M513.8,337.7h-10.5c-0.6,0-1-0.5-1-1v-40.3c0-0.6,0.5-1,1-1h10.5c0.6,0,1,0.5,1,1v40.3
			C514.8,337.2,514.4,337.7,513.8,337.7z M504.3,335.7h8.5v-38.2h-8.5V335.7z"/>
		<path class="st0" d="M513.8,337.8c-0.2,0-0.4-0.1-0.6-0.2c-0.3-0.2-0.4-0.5-0.4-0.8v-40.5c0-0.3,0.2-0.6,0.4-0.8
			c0.3-0.2,0.6-0.2,0.9-0.1l35.1,13.7c3.6,1.4,5.8,4.3,5.8,7.5s-2.2,6.1-5.8,7.5l-35.1,13.7C514.1,337.7,513.9,337.8,513.8,337.8
			L513.8,337.8z M514.8,297.8v37.5l33.7-13.1c2.8-1.1,4.5-3.2,4.5-5.6s-1.7-4.5-4.5-5.6L514.8,297.8L514.8,297.8z"/>
		<path class="st0" d="M252.8,572.7c-3.5,0-7.1-0.3-10.5-0.9c-18.4-3.1-34.2-14.3-43.5-30.6c-1.7-3-3.1-6.1-4.3-9.2l0-0.1
			c0,0,0-0.1,0-0.1c-1.4-3.7-2.4-7.7-3-11.7c-0.5-3.1-0.7-6.3-0.7-9.4s0.2-6.3,0.7-9.4c0.5-3.5,1.4-6.9,2.5-10.2l0.1-0.2
			c1.1-3.2,2.5-6.4,4.1-9.4c10.8-20.2,31.8-32.7,54.7-32.7s43.8,12.5,54.7,32.7c1.6,3,3,6.2,4.1,9.4l0.1,0.2
			c1.1,3.3,1.9,6.7,2.5,10.2c0.5,3.1,0.7,6.3,0.7,9.4s-0.2,6.3-0.7,9.4c-0.6,4-1.6,7.9-3,11.7c0,0,0,0.1,0,0.1l0,0.1
			c-1.2,3.2-2.6,6.3-4.3,9.2c-9.2,16.3-25.1,27.4-43.5,30.6C259.8,572.4,256.3,572.7,252.8,572.7L252.8,572.7z M196,491.3L196,491.3
			l-0.1,0.2c-1.1,3.2-1.9,6.6-2.4,10.1c-0.5,3-0.7,6.1-0.7,9.1c0,3,0.2,6.1,0.7,9.1c0.6,3.9,1.6,7.7,2.9,11.3l0.1,0.2
			c1.1,3,2.5,6,4.1,8.9c8.9,15.8,24.3,26.6,42.1,29.6c6.6,1.1,13.7,1.1,20.3,0c17.8-3,33.1-13.8,42.1-29.6c1.6-2.8,3-5.8,4.1-8.9
			l0.1-0.2c1.3-3.7,2.3-7.5,2.9-11.3c0.5-3,0.7-6.1,0.7-9.1c0-3-0.2-6.1-0.7-9.1c-0.5-3.4-1.3-6.8-2.4-10.1l-0.1-0.2
			c-1-3.1-2.3-6.1-3.9-8.9c-10.5-19.5-30.7-31.7-52.9-31.7s-42.4,12.1-52.9,31.7C198.4,485.3,197.1,488.3,196,491.3L196,491.3z"/>
		<path class="st0" d="M195.5,532.4h-64.3c-0.6,0-1-0.5-1-1v-40.3c0-0.6,0.5-1,1-1H195c0.6,0,1,0.5,1,1c0,0.1,0,0.2-0.1,0.3
			c-1.1,3.2-1.9,6.6-2.4,10.1c-0.5,3-0.7,6.1-0.7,9.1c0,3,0.2,6.1,0.7,9.1c0.6,3.9,1.6,7.7,2.9,11.3c0.1,0.3,0.1,0.7-0.1,0.9
			C196.1,532.3,195.8,532.4,195.5,532.4L195.5,532.4z M132.1,530.4H194c-1.1-3.3-2-6.8-2.5-10.3c-0.5-3.1-0.7-6.3-0.7-9.4
			c0-3.1,0.2-6.3,0.7-9.4c0.5-3.1,1.2-6.1,2.1-9.1h-61.5C132.1,492.2,132.1,530.4,132.1,530.4z"/>
		<path class="st0" d="M324.8,532.4h-14.7c-0.3,0-0.6-0.2-0.8-0.4c-0.2-0.3-0.2-0.6-0.1-0.9c1.3-3.6,2.3-7.4,2.9-11.3
			c0.5-3,0.7-6.1,0.7-9.1s-0.2-6.1-0.7-9.1c-0.5-3.4-1.3-6.8-2.4-10.1c0-0.1-0.1-0.2-0.1-0.3c0-0.6,0.5-1,1-1h14.3c0.6,0,1,0.5,1,1
			v40.3C325.8,532,325.4,532.5,324.8,532.4L324.8,532.4z M311.6,530.4h12.3v-38.3H312c0.9,2.9,1.6,6,2.1,9.1
			c0.5,3.1,0.7,6.3,0.7,9.4c0,3.1-0.2,6.3-0.7,9.4C313.5,523.6,312.7,527.1,311.6,530.4L311.6,530.4z"/>
		<path class="st0" d="M372.8,532.4h-13.5c-0.6,0-1-0.5-1-1v-40.3c0-0.6,0.5-1,1-1h13.5c0.6,0,1,0.5,1,1v40.3
			C373.8,532,373.4,532.4,372.8,532.4z M360.4,530.4h11.5v-38.3h-11.5V530.4z"/>
		<path class="st0" d="M420.8,532.4h-13.5c-0.6,0-1-0.5-1-1v-40.3c0-0.6,0.5-1,1-1h13.5c0.6,0,1,0.5,1,1v40.3
			C421.8,532,421.4,532.4,420.8,532.4z M408.3,530.4h11.5v-38.3h-11.5V530.4z"/>
		<path class="st0" d="M468.8,532.4h-13.5c-0.6,0-1-0.5-1-1v-40.3c0-0.6,0.5-1,1-1h13.5c0.6,0,1,0.5,1,1v40.3
			C469.8,532,469.4,532.4,468.8,532.4z M456.3,530.4h11.5v-38.3h-11.5V530.4z"/>
		<path class="st0" d="M513.8,532.4h-10.5c-0.6,0-1-0.5-1-1v-40.3c0-0.6,0.5-1,1-1h10.5c0.6,0,1,0.5,1,1v40.3
			C514.8,532,514.4,532.4,513.8,532.4z M504.3,530.4h8.5v-38.3h-8.5V530.4z"/>
		<path class="st0" d="M513.8,532.5c-0.2,0-0.4-0.1-0.6-0.2c-0.3-0.2-0.4-0.5-0.4-0.8v-40.5c0-0.3,0.2-0.6,0.4-0.8
			c0.3-0.2,0.6-0.2,0.9-0.1l35.1,13.7c3.6,1.4,5.8,4.3,5.8,7.5s-2.2,6.1-5.8,7.5l-35.1,13.7C514.1,532.5,513.9,532.5,513.8,532.5
			L513.8,532.5z M514.8,492.6v37.5l33.7-13.1c2.8-1.1,4.5-3.2,4.5-5.6s-1.7-4.5-4.5-5.6L514.8,492.6L514.8,492.6z"/>
		<path class="st0" d="M360.4,378.5h-36.5V254.5h36.5V378.5z M325.9,376.5h32.5V256.6h-32.5L325.9,376.5L325.9,376.5z"/>
		<path class="st0" d="M408.3,378.5h-36.5V254.5h36.5V378.5z M373.8,376.5h32.5V256.6h-32.5V376.5L373.8,376.5z"/>
		<path class="st0" d="M456.3,378.5h-36.5V254.5h36.5V378.5z M421.8,376.5h32.5V256.6h-32.5V376.5L421.8,376.5z"/>
		<path class="st0" d="M504.3,378.5h-36.5V254.5h36.5V378.5z M469.8,376.5h32.5V256.6h-32.5V376.5L469.8,376.5z"/>
		<path class="st0" d="M360.4,573.3h-36.5V449.3h36.5V573.3z M325.9,571.3h32.5V451.3h-32.5L325.9,571.3L325.9,571.3z"/>
		<path class="st0" d="M408.3,573.3h-36.5V449.3h36.5V573.3z M373.8,571.3h32.5V451.3h-32.5V571.3z"/>
		<path class="st0" d="M456.3,573.3h-36.5V449.3h36.5V573.3z M421.8,571.3h32.5V451.3h-32.5V571.3z"/>
		<path class="st0" d="M504.3,573.3h-36.5V449.3h36.5V573.3z M469.8,571.3h32.5V451.3h-32.5V571.3z"/>
		<path class="st0" d="M747.6,378.5c-6.2,0-12.2-0.9-18.1-2.7c-7.7-2.3-14.7-6.1-20.9-11.1c-14.6-11.8-23-29.4-23-48.2
			c0-34.2,27.8-62,62-62c34.2,0,62,27.8,62,62c0,18.8-8.4,36.3-23,48.2c-6.2,5.1-13.3,8.8-20.9,11.1
			C759.8,377.6,753.7,378.5,747.6,378.5L747.6,378.5z M747.6,256.6c-33.1,0-60,26.9-60,60c0,18.2,8.1,35.1,22.2,46.6
			c6,4.9,12.9,8.5,20.3,10.8c5.6,1.7,11.5,2.6,17.5,2.6c6,0,11.9-0.9,17.5-2.6c7.4-2.2,14.2-5.9,20.3-10.8
			c14.1-11.4,22.2-28.4,22.2-46.6C807.5,283.5,780.6,256.6,747.6,256.6L747.6,256.6z"/>
		<path class="st0" d="M733.6,419h-28.1c-3,0-5.8-1.1-8-3.2c-2.1-2.1-3.3-4.8-3.3-7.7c0-6,5.1-10.9,11.3-10.9h2.8v-35.3l1.6,1.3
			c6,4.7,12.9,8.2,20.3,10.4l0.7,0.2v23.4h2.8c3,0,5.8,1.1,8,3.2c2.1,2.1,3.3,4.8,3.3,7.7C744.9,414,739.8,419,733.6,419L733.6,419z
			 M705.4,399.1c-5.1,0-9.3,4-9.3,8.9c0,2.4,1,4.6,2.7,6.3c1.8,1.7,4.1,2.6,6.6,2.6h28.1c5.1,0,9.3-4,9.3-8.9c0-2.4-1-4.6-2.7-6.3
			c-1.8-1.7-4.1-2.6-6.6-2.6h-4.8v-23.9c-6.7-2-13-5.2-18.6-9.3v33.2H705.4L705.4,399.1z"/>
		<path class="st0" d="M789.7,419h-28.1c-3,0-5.8-1.1-8-3.2c-2.1-2.1-3.3-4.8-3.3-7.7c0-6,5.1-10.9,11.3-10.9h2.8v-23.4l0.7-0.2
			c7.4-2.2,14.2-5.7,20.3-10.4l1.6-1.3v35.3h2.8c3,0,5.8,1.1,8,3.2c2.1,2.1,3.3,4.8,3.3,7.7C801,414,796,419,789.7,419L789.7,419z
			 M761.6,399.1c-5.1,0-9.3,4-9.3,8.9c0,2.4,1,4.6,2.7,6.3c1.8,1.7,4.1,2.6,6.6,2.6h28.1c5.1,0,9.3-4,9.3-8.9c0-2.4-1-4.6-2.7-6.3
			c-1.8-1.7-4.1-2.6-6.6-2.6H785v-33.2c-5.6,4.1-11.9,7.2-18.6,9.3v23.9H761.6L761.6,399.1z"/>
		<path class="st0" d="M748.5,337.9c-11.8,0-21.3-9.6-21.3-21.3c0-11.8,9.6-21.3,21.3-21.3s21.3,9.6,21.3,21.3
			C769.9,328.3,760.3,337.9,748.5,337.9z M748.5,297.2c-10.6,0-19.3,8.7-19.3,19.3s8.7,19.3,19.3,19.3s19.3-8.7,19.3-19.3
			S759.2,297.2,748.5,297.2z"/>
		<path class="st0" d="M277,419.2h-36.7c-6.9,0-12.5-5.4-12.5-12c0-6.6,5.6-12,12.5-12h1.2v-20.3l1.2,0.2c6.6,1.1,13.7,1.1,20.3,0
			l1.2-0.2v20.3H277c6.9,0,12.5,5.4,12.5,12C289.5,413.8,283.9,419.2,277,419.2L277,419.2z M240.3,397.2c-5.8,0-10.4,4.5-10.4,10
			s4.7,10,10.4,10H277c5.8,0,10.4-4.5,10.4-10c0-5.5-4.7-10-10.4-10h-14.9v-20c-6.1,0.9-12.5,0.9-18.6,0v20H240.3L240.3,397.2z"/>
	</g>
	<g>
		<g>
			<rect x="849.3" y="255.2" class="st0" width="2.4" height="0.7"/>
			<path class="st0" d="M844.6,255.9h-4.7v-0.7h4.7V255.9z M835.1,255.9h-4.7v-0.7h4.7V255.9z M825.6,255.9h-4.7v-0.7h4.7V255.9z
				 M816.1,255.9h-4.7v-0.7h4.7V255.9z M806.6,255.9h-4.7v-0.7h4.7V255.9z M797.1,255.9h-4.7v-0.7h4.7V255.9z M787.7,255.9h-4.7
				v-0.7h4.7V255.9z M778.2,255.9h-4.7v-0.7h4.7V255.9z M768.7,255.9h-4.7v-0.7h4.7V255.9z M759.2,255.9h-4.7v-0.7h4.7V255.9z
				 M749.7,255.9H745v-0.7h4.7V255.9z M740.2,255.9h-4.7v-0.7h4.7V255.9z M730.7,255.9H726v-0.7h4.7V255.9z M721.3,255.9h-4.7v-0.7
				h4.7V255.9z M711.8,255.9H707v-0.7h4.7V255.9z M702.3,255.9h-4.7v-0.7h4.7V255.9z M692.8,255.9H688v-0.7h4.7V255.9z M683.3,255.9
				h-4.7v-0.7h4.7V255.9z M673.8,255.9h-4.7v-0.7h4.7V255.9z M664.3,255.9h-4.7v-0.7h4.7V255.9z M654.8,255.9h-4.7v-0.7h4.7V255.9z
				 M645.4,255.9h-4.7v-0.7h4.7V255.9z M635.9,255.9h-4.7v-0.7h4.7V255.9z M626.4,255.9h-4.7v-0.7h4.7V255.9z M616.9,255.9h-4.7
				v-0.7h4.7V255.9z M607.4,255.9h-4.7v-0.7h4.7V255.9z M597.9,255.9h-4.7v-0.7h4.7V255.9z M588.4,255.9h-4.7v-0.7h4.7V255.9z
				 M578.9,255.9h-4.7v-0.7h4.7V255.9z M569.5,255.9h-4.7v-0.7h4.7V255.9z M560,255.9h-4.7v-0.7h4.7V255.9z M550.5,255.9h-4.7v-0.7
				h4.7V255.9z M541,255.9h-4.7v-0.7h4.7V255.9z M531.5,255.9h-4.7v-0.7h4.7V255.9z M522,255.9h-4.7v-0.7h4.7V255.9z M512.5,255.9
				h-4.7v-0.7h4.7V255.9z M503,255.9h-4.7v-0.7h4.7V255.9z M493.6,255.9h-4.7v-0.7h4.7V255.9z M484.1,255.9h-4.7v-0.7h4.7V255.9z
				 M474.6,255.9h-4.7v-0.7h4.7V255.9z M465.1,255.9h-4.7v-0.7h4.7V255.9z M455.6,255.9h-4.7v-0.7h4.7V255.9z M446.1,255.9h-4.7
				v-0.7h4.7V255.9z M436.6,255.9h-4.7v-0.7h4.7V255.9z M427.2,255.9h-4.7v-0.7h4.7V255.9z M417.7,255.9h-4.7v-0.7h4.7V255.9z
				 M408.2,255.9h-4.7v-0.7h4.7V255.9z M398.7,255.9H394v-0.7h4.7V255.9z M389.2,255.9h-4.7v-0.7h4.7V255.9z M379.7,255.9H375v-0.7
				h4.7V255.9z M370.2,255.9h-4.7v-0.7h4.7V255.9z M360.7,255.9H356v-0.7h4.7V255.9z M351.3,255.9h-4.7v-0.7h4.7V255.9z
				 M341.8,255.9H337v-0.7h4.7V255.9z M332.3,255.9h-4.7v-0.7h4.7V255.9z M322.8,255.9h-4.7v-0.7h4.7V255.9z M313.3,255.9h-4.7v-0.7
				h4.7V255.9z M303.8,255.9h-4.7v-0.7h4.7V255.9z M294.3,255.9h-4.7v-0.7h4.7V255.9z M284.8,255.9h-4.7v-0.7h4.7V255.9z
				 M275.4,255.9h-4.7v-0.7h4.7V255.9z M265.9,255.9h-4.7v-0.7h4.7V255.9z"/>
			<rect x="254.1" y="255.2" class="st0" width="2.4" height="0.7"/>
		</g>
		<g>
			<rect x="263.8" y="377.2" class="st0" width="2.4" height="0.7"/>
			<path class="st0" d="M845.4,377.8h-4.7v-0.7h4.7V377.8z M836.1,377.8h-4.7v-0.7h4.7V377.8z M826.7,377.8H822v-0.7h4.7V377.8z
				 M817.4,377.8h-4.7v-0.7h4.7V377.8z M808,377.8h-4.7v-0.7h4.7V377.8z M798.7,377.8H794v-0.7h4.7V377.8z M789.3,377.8h-4.7v-0.7
				h4.7V377.8z M780,377.8h-4.7v-0.7h4.7V377.8z M770.7,377.8H766v-0.7h4.7V377.8z M761.3,377.8h-4.7v-0.7h4.7V377.8z M752,377.8
				h-4.7v-0.7h4.7V377.8z M742.6,377.8H738v-0.7h4.7V377.8z M733.3,377.8h-4.7v-0.7h4.7V377.8z M723.9,377.8h-4.7v-0.7h4.7V377.8z
				 M714.6,377.8h-4.7v-0.7h4.7V377.8z M705.3,377.8h-4.7v-0.7h4.7V377.8z M695.9,377.8h-4.7v-0.7h4.7V377.8z M686.6,377.8h-4.7
				v-0.7h4.7V377.8z M677.2,377.8h-4.7v-0.7h4.7V377.8z M667.9,377.8h-4.7v-0.7h4.7V377.8z M658.5,377.8h-4.7v-0.7h4.7V377.8z
				 M649.2,377.8h-4.7v-0.7h4.7V377.8z M639.9,377.8h-4.7v-0.7h4.7V377.8z M630.5,377.8h-4.7v-0.7h4.7V377.8z M621.2,377.8h-4.7
				v-0.7h4.7V377.8z M611.8,377.8h-4.7v-0.7h4.7V377.8z M602.5,377.8h-4.7v-0.7h4.7V377.8z M593.2,377.8h-4.7v-0.7h4.7V377.8z
				 M583.8,377.8h-4.7v-0.7h4.7V377.8z M574.5,377.8h-4.7v-0.7h4.7V377.8z M565.1,377.8h-4.7v-0.7h4.7V377.8z M555.8,377.8h-4.7
				v-0.7h4.7V377.8z M546.4,377.8h-4.7v-0.7h4.7V377.8z M537.1,377.8h-4.7v-0.7h4.7V377.8z M527.8,377.8h-4.7v-0.7h4.7V377.8z
				 M518.4,377.8h-4.7v-0.7h4.7V377.8z M509.1,377.8h-4.7v-0.7h4.7V377.8z M499.7,377.8h-4.7v-0.7h4.7V377.8z M490.4,377.8h-4.7
				v-0.7h4.7V377.8z M481,377.8h-4.7v-0.7h4.7V377.8z M471.7,377.8H467v-0.7h4.7V377.8z M462.4,377.8h-4.7v-0.7h4.7V377.8z
				 M453,377.8h-4.7v-0.7h4.7V377.8z M443.7,377.8H439v-0.7h4.7V377.8z M434.3,377.8h-4.7v-0.7h4.7V377.8z M425,377.8h-4.7v-0.7h4.7
				V377.8z M415.7,377.8H411v-0.7h4.7V377.8z M406.3,377.8h-4.7v-0.7h4.7V377.8z M397,377.8h-4.7v-0.7h4.7V377.8z M387.6,377.8H383
				v-0.7h4.7V377.8z M378.3,377.8h-4.7v-0.7h4.7V377.8z M368.9,377.8h-4.7v-0.7h4.7V377.8z M359.6,377.8h-4.7v-0.7h4.7V377.8z
				 M350.3,377.8h-4.7v-0.7h4.7V377.8z M340.9,377.8h-4.7v-0.7h4.7V377.8z M331.6,377.8h-4.7v-0.7h4.7V377.8z M322.2,377.8h-4.7
				v-0.7h4.7V377.8z M312.9,377.8h-4.7v-0.7h4.7V377.8z M303.5,377.8h-4.7v-0.7h4.7V377.8z M294.2,377.8h-4.7v-0.7h4.7V377.8z
				 M284.9,377.8h-4.7v-0.7h4.7V377.8z M275.5,377.8h-4.7v-0.7h4.7V377.8z"/>
			<rect x="850.1" y="377.2" class="st0" width="2.4" height="0.7"/>
		</g>
		<g>
			<rect x="851.8" y="417.8" class="st0" width="2.4" height="0.7"/>
			<path class="st0" d="M847.1,418.5h-4.7v-0.7h4.7V418.5z M837.6,418.5h-4.7v-0.7h4.7V418.5z M828.2,418.5h-4.7v-0.7h4.7V418.5z
				 M818.8,418.5h-4.7v-0.7h4.7V418.5z M809.3,418.5h-4.7v-0.7h4.7V418.5z M799.9,418.5h-4.7v-0.7h4.7V418.5z M790.5,418.5h-4.7
				v-0.7h4.7V418.5z M781,418.5h-4.7v-0.7h4.7V418.5z M771.6,418.5h-4.7v-0.7h4.7V418.5z M762.2,418.5h-4.7v-0.7h4.7V418.5z
				 M752.7,418.5H748v-0.7h4.7V418.5z M743.3,418.5h-4.7v-0.7h4.7V418.5z M733.8,418.5h-4.7v-0.7h4.7V418.5z M724.4,418.5h-4.7v-0.7
				h4.7V418.5z M715,418.5h-4.7v-0.7h4.7V418.5z M705.5,418.5h-4.7v-0.7h4.7V418.5z M696.1,418.5h-4.7v-0.7h4.7V418.5z M686.7,418.5
				h-4.7v-0.7h4.7V418.5z M677.2,418.5h-4.7v-0.7h4.7V418.5z M667.8,418.5h-4.7v-0.7h4.7V418.5z M658.4,418.5h-4.7v-0.7h4.7V418.5z
				 M648.9,418.5h-4.7v-0.7h4.7V418.5z M639.5,418.5h-4.7v-0.7h4.7V418.5z M630,418.5h-4.7v-0.7h4.7V418.5z M620.6,418.5h-4.7v-0.7
				h4.7V418.5z M611.2,418.5h-4.7v-0.7h4.7V418.5z M601.7,418.5H597v-0.7h4.7V418.5z M592.3,418.5h-4.7v-0.7h4.7V418.5z
				 M582.9,418.5h-4.7v-0.7h4.7V418.5z M573.4,418.5h-4.7v-0.7h4.7V418.5z M564,418.5h-4.7v-0.7h4.7V418.5z M554.6,418.5h-4.7v-0.7
				h4.7V418.5z M545.1,418.5h-4.7v-0.7h4.7V418.5z M535.7,418.5H531v-0.7h4.7V418.5z M526.3,418.5h-4.7v-0.7h4.7V418.5z
				 M516.8,418.5h-4.7v-0.7h4.7V418.5z M507.4,418.5h-4.7v-0.7h4.7V418.5z M497.9,418.5h-4.7v-0.7h4.7V418.5z M488.5,418.5h-4.7
				v-0.7h4.7V418.5z M479.1,418.5h-4.7v-0.7h4.7V418.5z M469.6,418.5h-4.7v-0.7h4.7V418.5z M460.2,418.5h-4.7v-0.7h4.7V418.5z
				 M450.8,418.5H446v-0.7h4.7V418.5z M441.3,418.5h-4.7v-0.7h4.7V418.5z M431.9,418.5h-4.7v-0.7h4.7V418.5z M422.5,418.5h-4.7v-0.7
				h4.7V418.5z M413,418.5h-4.7v-0.7h4.7V418.5z M403.6,418.5h-4.7v-0.7h4.7V418.5z M394.1,418.5h-4.7v-0.7h4.7V418.5z M384.7,418.5
				H380v-0.7h4.7V418.5z M375.3,418.5h-4.7v-0.7h4.7V418.5z M365.8,418.5h-4.7v-0.7h4.7V418.5z M356.4,418.5h-4.7v-0.7h4.7V418.5z
				 M347,418.5h-4.7v-0.7h4.7V418.5z M337.5,418.5h-4.7v-0.7h4.7V418.5z M328.1,418.5h-4.7v-0.7h4.7V418.5z M318.7,418.5h-4.7v-0.7
				h4.7V418.5z M309.2,418.5h-4.7v-0.7h4.7V418.5z M299.8,418.5h-4.7v-0.7h4.7V418.5z M290.3,418.5h-4.7v-0.7h4.7V418.5z
				 M280.9,418.5h-4.7v-0.7h4.7V418.5z M271.5,418.5h-4.7v-0.7h4.7V418.5z"/>
			<rect x="259.6" y="417.8" class="st0" width="2.4" height="0.7"/>
		</g>
		<g>
			<rect x="826.8" y="296.1" class="st0" width="2.4" height="0.7"/>
			<path class="st0" d="M822.2,296.7h-4.7v-0.7h4.7V296.7z M812.8,296.7h-4.7v-0.7h4.7V296.7z M803.5,296.7h-4.7v-0.7h4.7V296.7z
				 M794.2,296.7h-4.7v-0.7h4.7V296.7z M784.8,296.7h-4.7v-0.7h4.7V296.7z M775.5,296.7h-4.7v-0.7h4.7V296.7z M766.1,296.7h-4.7
				v-0.7h4.7V296.7z M756.8,296.7h-4.7v-0.7h4.7V296.7z M747.5,296.7h-4.7v-0.7h4.7V296.7z M738.1,296.7h-4.7v-0.7h4.7V296.7z
				 M728.8,296.7h-4.7v-0.7h4.7V296.7z M719.5,296.7h-4.7v-0.7h4.7V296.7z M710.1,296.7h-4.7v-0.7h4.7V296.7z M700.8,296.7h-4.7
				v-0.7h4.7V296.7z M691.4,296.7h-4.7v-0.7h4.7V296.7z M682.1,296.7h-4.7v-0.7h4.7V296.7z M672.8,296.7h-4.7v-0.7h4.7V296.7z
				 M663.4,296.7h-4.7v-0.7h4.7V296.7z M654.1,296.7h-4.7v-0.7h4.7V296.7z M644.7,296.7h-4.7v-0.7h4.7V296.7z M635.4,296.7h-4.7
				v-0.7h4.7V296.7z M626.1,296.7h-4.7v-0.7h4.7V296.7z M616.7,296.7h-4.7v-0.7h4.7V296.7z M607.4,296.7h-4.7v-0.7h4.7V296.7z
				 M598.1,296.7h-4.7v-0.7h4.7V296.7z M588.7,296.7h-4.7v-0.7h4.7V296.7z M579.4,296.7h-4.7v-0.7h4.7V296.7z M570,296.7h-4.7v-0.7
				h4.7V296.7z M560.7,296.7H556v-0.7h4.7V296.7z"/>
			<rect x="549" y="296.1" class="st0" width="2.4" height="0.7"/>
		</g>
		<g>
			<rect x="826.8" y="336.3" class="st0" width="2.4" height="0.7"/>
			<path class="st0" d="M822.2,337h-4.7v-0.7h4.7V337z M812.8,337h-4.7v-0.7h4.7V337z M803.5,337h-4.7v-0.7h4.7V337z M794.2,337
				h-4.7v-0.7h4.7V337z M784.8,337h-4.7v-0.7h4.7V337z M775.5,337h-4.7v-0.7h4.7V337z M766.1,337h-4.7v-0.7h4.7V337z M756.8,337
				h-4.7v-0.7h4.7V337z M747.5,337h-4.7v-0.7h4.7V337z M738.1,337h-4.7v-0.7h4.7V337z M728.8,337h-4.7v-0.7h4.7V337z M719.5,337
				h-4.7v-0.7h4.7V337z M710.1,337h-4.7v-0.7h4.7V337z M700.8,337h-4.7v-0.7h4.7V337z M691.4,337h-4.7v-0.7h4.7V337z M682.1,337
				h-4.7v-0.7h4.7V337z M672.8,337h-4.7v-0.7h4.7V337z M663.4,337h-4.7v-0.7h4.7V337z M654.1,337h-4.7v-0.7h4.7V337z M644.7,337
				h-4.7v-0.7h4.7V337z M635.4,337h-4.7v-0.7h4.7V337z M626.1,337h-4.7v-0.7h4.7V337z M616.7,337h-4.7v-0.7h4.7V337z M607.4,337
				h-4.7v-0.7h4.7V337z M598.1,337h-4.7v-0.7h4.7V337z M588.7,337h-4.7v-0.7h4.7V337z M579.4,337h-4.7v-0.7h4.7V337z M570,337h-4.7
				v-0.7h4.7V337z M560.7,337H556v-0.7h4.7V337z"/>
			<rect x="549" y="336.3" class="st0" width="2.4" height="0.7"/>
		</g>
		<rect x="848.1" y="255.2" class="st0" width="12.1" height="0.7"/>
		<g>
			<rect x="853.7" y="255.6" class="st0" width="0.7" height="121.9"/>
			<rect x="848" y="377.2" class="st0" width="12.1" height="0.7"/>
		</g>
		<g>
			<rect x="834.8" y="296.4" class="st0" width="0.7" height="40.3"/>
			<rect x="829.1" y="295.9" class="st0" width="12.1" height="0.7"/>
			<rect x="829.1" y="336.5" class="st0" width="12.1" height="0.7"/>
		</g>
		<path class="st0" d="M843.9,317.9H843l2.1-3l-1.9-2.8h1l1.5,2.2l1.5-2.2h0.9L846,315l2,3h-1l-1.6-2.4L843.9,317.9L843.9,317.9z"/>
		<path class="st0" d="M532.4,212.5h-0.9l2.1-3l-1.9-2.8h1l1.5,2.2l1.5-2.2h0.9l-1.9,2.8l2,3h-1l-1.6-2.4L532.4,212.5L532.4,212.5z"
			/>
		<rect x="836.5" y="377.7" class="st0" width="0.7" height="40.3"/>
		<rect x="830.8" y="377.2" class="st0" width="12.1" height="0.7"/>
		<rect x="830.8" y="417.8" class="st0" width="12.1" height="0.7"/>
		<path class="st0" d="M843.9,399.2H843l2.1-3l-1.9-2.8h1l1.5,2.2l1.5-2.2h0.9l-1.9,2.8l2,3h-1l-1.6-2.4L843.9,399.2L843.9,399.2z"
			/>
		<g>
			<path class="st0" d="M860.8,320c-0.3-0.4-0.5-0.8-0.5-1.3h0.7c0,0.4,0.1,0.6,0.2,0.8c0.2,0.3,0.5,0.4,1,0.4
				c0.4,0,0.7-0.1,0.9-0.3c0.2-0.2,0.3-0.5,0.3-0.8c0-0.4-0.1-0.7-0.4-0.8c-0.2-0.2-0.6-0.2-1-0.2c0,0-0.1,0-0.1,0s-0.1,0-0.1,0
				v-0.6c0.1,0,0.1,0,0.2,0c0.1,0,0.1,0,0.2,0c0.3,0,0.5,0,0.7-0.1c0.3-0.1,0.5-0.4,0.5-0.8c0-0.3-0.1-0.5-0.3-0.6
				c-0.2-0.2-0.4-0.2-0.7-0.2c-0.5,0-0.8,0.2-1,0.5c-0.1,0.2-0.2,0.4-0.2,0.7h-0.7c0-0.4,0.1-0.8,0.3-1.1c0.3-0.5,0.8-0.8,1.5-0.8
				c0.6,0,1,0.1,1.3,0.4c0.3,0.3,0.5,0.6,0.5,1.1c0,0.3-0.1,0.6-0.3,0.8c-0.1,0.1-0.3,0.2-0.5,0.3c0.3,0.1,0.5,0.2,0.7,0.5
				s0.3,0.5,0.3,0.9c0,0.5-0.2,1-0.5,1.3s-0.9,0.5-1.5,0.5C861.6,320.6,861.1,320.4,860.8,320L860.8,320z"/>
			<path class="st0" d="M865.7,320.4h-0.9l2.1-3l-1.9-2.8h1l1.5,2.2l1.5-2.2h0.9l-1.9,2.8l2,3h-1l-1.6-2.4L865.7,320.4L865.7,320.4z
				"/>
		</g>
		<g>
			<rect x="131.1" y="217.2" class="st0" width="60.4" height="0.7"/>
			<rect x="130.5" y="211.5" class="st0" width="0.7" height="12.1"/>
			<rect x="191.5" y="211.5" class="st0" width="0.7" height="12.1"/>
			<g>
				<path class="st0" d="M153.8,206.6v-0.5c0.5-0.1,0.9-0.1,1.1-0.3s0.4-0.4,0.5-0.8h0.6v5.6h-0.8v-4H153.8L153.8,206.6z"/>
				<path class="st0" d="M158.2,209.8h0.8v0.9h-0.8V209.8z"/>
				<path class="st0" d="M160.8,209.2c0,0.4,0.2,0.7,0.6,0.8c0.2,0.1,0.4,0.1,0.6,0.1c0.4,0,0.7-0.1,0.9-0.4
					c0.2-0.3,0.3-0.6,0.3-0.9c0-0.4-0.1-0.7-0.4-0.9s-0.5-0.3-0.9-0.3c-0.2,0-0.5,0-0.6,0.1c-0.2,0.1-0.3,0.2-0.4,0.4l-0.6,0l0.4-3
					h2.9v0.7h-2.4l-0.2,1.6c0.1-0.1,0.3-0.2,0.4-0.2c0.2-0.1,0.5-0.1,0.7-0.1c0.5,0,1,0.2,1.3,0.5s0.5,0.8,0.5,1.3s-0.2,1-0.5,1.4
					c-0.3,0.4-0.9,0.6-1.6,0.6c-0.5,0-0.9-0.1-1.2-0.4c-0.4-0.3-0.6-0.7-0.6-1.2L160.8,209.2L160.8,209.2z"/>
				<path class="st0" d="M165.4,210.6h-0.9l2.1-3l-1.9-2.8h1l1.5,2.2l1.5-2.2h0.9l-1.9,2.8l2,3h-1l-1.6-2.4L165.4,210.6L165.4,210.6
					z"/>
			</g>
		</g>
		<rect x="191.8" y="217.2" class="st0" width="121.7" height="0.7"/>
		<rect x="191.2" y="211.5" class="st0" width="0.7" height="12.1"/>
		<rect x="313.7" y="211.5" class="st0" width="0.7" height="12.1"/>
		<g>
			<path class="st0" d="M248.7,210.2c-0.3-0.4-0.5-0.8-0.5-1.3h0.7c0,0.4,0.1,0.6,0.2,0.8c0.2,0.3,0.5,0.4,1,0.4
				c0.4,0,0.7-0.1,0.9-0.3c0.2-0.2,0.3-0.5,0.3-0.8c0-0.4-0.1-0.7-0.4-0.8c-0.2-0.2-0.6-0.2-1-0.2c0,0-0.1,0-0.1,0s-0.1,0-0.1,0
				v-0.6c0.1,0,0.1,0,0.2,0c0.1,0,0.1,0,0.2,0c0.3,0,0.5,0,0.7-0.1c0.3-0.1,0.5-0.4,0.5-0.8c0-0.3-0.1-0.5-0.3-0.6
				c-0.2-0.2-0.4-0.2-0.7-0.2c-0.5,0-0.8,0.2-1,0.5c-0.1,0.2-0.2,0.4-0.2,0.7h-0.7c0-0.4,0.1-0.8,0.3-1.1c0.3-0.5,0.8-0.8,1.5-0.8
				c0.6,0,1,0.1,1.3,0.4c0.3,0.3,0.5,0.6,0.5,1.1c0,0.3-0.1,0.6-0.3,0.8c-0.1,0.1-0.3,0.2-0.5,0.3c0.3,0.1,0.5,0.2,0.7,0.5
				c0.2,0.2,0.3,0.5,0.3,0.9c0,0.5-0.2,1-0.5,1.3c-0.4,0.3-0.9,0.5-1.5,0.5S249,210.6,248.7,210.2L248.7,210.2z"/>
			<path class="st0" d="M253.6,210.6h-0.9l2.1-3l-1.9-2.8h1l1.5,2.2l1.5-2.2h0.9l-1.9,2.8l2,3h-1l-1.6-2.4L253.6,210.6L253.6,210.6z
				"/>
		</g>
		<rect x="314.3" y="217.2" class="st0" width="199.7" height="0.7"/>
		<rect x="513.6" y="211.5" class="st0" width="0.7" height="12.1"/>
		<rect x="553.6" y="211.5" class="st0" width="0.7" height="12.1"/>
		<g>
			<path class="st0" d="M406.8,210.6v-1.4h-2.5v-0.7l2.6-3.6h0.6v3.7h0.8v0.6h-0.8v1.4L406.8,210.6L406.8,210.6z M406.8,208.6v-2.6
				l-1.8,2.6H406.8z"/>
			<path class="st0" d="M409.7,210.6h-0.9l2.1-3l-1.9-2.8h1l1.5,2.2l1.5-2.2h0.9l-1.9,2.8l2,3h-1l-1.6-2.4L409.7,210.6L409.7,210.6z
				"/>
		</g>
		<path class="st0" d="M340.5,182.9h-0.9l2.1-3.2l-1.9-3h1l1.5,2.4l1.5-2.4h0.9l-1.9,3l2,3.2h-1l-1.6-2.5L340.5,182.9L340.5,182.9z"
			/>
		<rect x="513.9" y="217.2" class="st0" width="40.1" height="0.7"/>
		<g>
			<rect x="130.8" y="529.2" class="st0" width="0.7" height="2.4"/>
			<path class="st0" d="M131.5,524.4h-0.7v-4.8h0.7V524.4z M131.5,514.9h-0.7v-4.8h0.7V514.9z M131.5,505.4h-0.7v-4.8h0.7V505.4z
				 M131.5,495.9h-0.7v-4.8h0.7V495.9z M131.5,486.3h-0.7v-4.8h0.7V486.3z M131.5,476.8h-0.7v-4.8h0.7V476.8z M131.5,467.3h-0.7
				v-4.8h0.7V467.3z M131.5,457.8h-0.7V453h0.7V457.8z M131.5,448.3h-0.7v-4.8h0.7V448.3z M131.5,438.8h-0.7V434h0.7V438.8z
				 M131.5,429.2h-0.7v-4.8h0.7V429.2z M131.5,419.7h-0.7V415h0.7V419.7z M131.5,410.2h-0.7v-4.8h0.7V410.2z M131.5,400.7h-0.7v-4.8
				h0.7V400.7z M131.5,391.2h-0.7v-4.8h0.7V391.2z M131.5,381.6h-0.7v-4.8h0.7V381.6z M131.5,372.1h-0.7v-4.8h0.7V372.1z
				 M131.5,362.6h-0.7v-4.8h0.7V362.6z M131.5,353.1h-0.7v-4.8h0.7V353.1z M131.5,343.6h-0.7v-4.8h0.7V343.6z M131.5,334.1h-0.7
				v-4.8h0.7V334.1z M131.5,324.5h-0.7v-4.8h0.7V324.5z M131.5,315h-0.7v-4.8h0.7V315z M131.5,305.5h-0.7v-4.8h0.7V305.5z
				 M131.5,296h-0.7v-4.8h0.7V296z M131.5,286.5h-0.7v-4.8h0.7V286.5z M131.5,276.9h-0.7v-4.8h0.7V276.9z M131.5,267.4h-0.7v-4.8
				h0.7V267.4z M131.5,257.9h-0.7v-4.8h0.7V257.9z M131.5,248.4h-0.7v-4.8h0.7V248.4z M131.5,238.9h-0.7v-4.8h0.7V238.9z
				 M131.5,229.4h-0.7v-4.8h0.7V229.4z"/>
			<rect x="130.8" y="217.5" class="st0" width="0.7" height="2.4"/>
		</g>
		<g>
			<rect x="191.2" y="529.2" class="st0" width="0.7" height="2.4"/>
			<path class="st0" d="M191.9,524.4h-0.7v-4.8h0.7V524.4z M191.9,514.9h-0.7v-4.8h0.7V514.9z M191.9,505.4h-0.7v-4.8h0.7V505.4z
				 M191.9,495.9h-0.7v-4.8h0.7V495.9z M191.9,486.3h-0.7v-4.8h0.7V486.3z M191.9,476.8h-0.7v-4.8h0.7V476.8z M191.9,467.3h-0.7
				v-4.8h0.7V467.3z M191.9,457.8h-0.7V453h0.7V457.8z M191.9,448.3h-0.7v-4.8h0.7V448.3z M191.9,438.8h-0.7V434h0.7V438.8z
				 M191.9,429.2h-0.7v-4.8h0.7V429.2z M191.9,419.7h-0.7V415h0.7V419.7z M191.9,410.2h-0.7v-4.8h0.7V410.2z M191.9,400.7h-0.7v-4.8
				h0.7V400.7z M191.9,391.2h-0.7v-4.8h0.7V391.2z M191.9,381.6h-0.7v-4.8h0.7V381.6z M191.9,372.1h-0.7v-4.8h0.7V372.1z
				 M191.9,362.6h-0.7v-4.8h0.7V362.6z M191.9,353.1h-0.7v-4.8h0.7V353.1z M191.9,343.6h-0.7v-4.8h0.7V343.6z M191.9,334.1h-0.7
				v-4.8h0.7V334.1z M191.9,324.5h-0.7v-4.8h0.7V324.5z M191.9,315h-0.7v-4.8h0.7V315z M191.9,305.5h-0.7v-4.8h0.7V305.5z
				 M191.9,296h-0.7v-4.8h0.7V296z M191.9,286.5h-0.7v-4.8h0.7V286.5z M191.9,276.9h-0.7v-4.8h0.7V276.9z M191.9,267.4h-0.7v-4.8
				h0.7V267.4z M191.9,257.9h-0.7v-4.8h0.7V257.9z M191.9,248.4h-0.7v-4.8h0.7V248.4z M191.9,238.9h-0.7v-4.8h0.7V238.9z
				 M191.9,229.4h-0.7v-4.8h0.7V229.4z"/>
			<rect x="191.2" y="217.5" class="st0" width="0.7" height="2.4"/>
		</g>
		<g>
			<rect x="313.7" y="529.2" class="st0" width="0.7" height="2.4"/>
			<path class="st0" d="M314.4,524.4h-0.7v-4.8h0.7V524.4z M314.4,514.9h-0.7v-4.8h0.7V514.9z M314.4,505.4h-0.7v-4.8h0.7V505.4z
				 M314.4,495.9h-0.7v-4.8h0.7V495.9z M314.4,486.3h-0.7v-4.8h0.7V486.3z M314.4,476.8h-0.7v-4.8h0.7V476.8z M314.4,467.3h-0.7
				v-4.8h0.7V467.3z M314.4,457.8h-0.7V453h0.7V457.8z M314.4,448.3h-0.7v-4.8h0.7V448.3z M314.4,438.8h-0.7V434h0.7V438.8z
				 M314.4,429.2h-0.7v-4.8h0.7V429.2z M314.4,419.7h-0.7V415h0.7V419.7z M314.4,410.2h-0.7v-4.8h0.7V410.2z M314.4,400.7h-0.7v-4.8
				h0.7V400.7z M314.4,391.2h-0.7v-4.8h0.7V391.2z M314.4,381.6h-0.7v-4.8h0.7V381.6z M314.4,372.1h-0.7v-4.8h0.7V372.1z
				 M314.4,362.6h-0.7v-4.8h0.7V362.6z M314.4,353.1h-0.7v-4.8h0.7V353.1z M314.4,343.6h-0.7v-4.8h0.7V343.6z M314.4,334.1h-0.7
				v-4.8h0.7V334.1z M314.4,324.5h-0.7v-4.8h0.7V324.5z M314.4,315h-0.7v-4.8h0.7V315z M314.4,305.5h-0.7v-4.8h0.7V305.5z
				 M314.4,296h-0.7v-4.8h0.7V296z M314.4,286.5h-0.7v-4.8h0.7V286.5z M314.4,276.9h-0.7v-4.8h0.7V276.9z M314.4,267.4h-0.7v-4.8
				h0.7V267.4z M314.4,257.9h-0.7v-4.8h0.7V257.9z M314.4,248.4h-0.7v-4.8h0.7V248.4z M314.4,238.9h-0.7v-4.8h0.7V238.9z
				 M314.4,229.4h-0.7v-4.8h0.7V229.4z"/>
			<rect x="313.7" y="217.5" class="st0" width="0.7" height="2.4"/>
		</g>
		<g>
			<rect x="513.6" y="529.2" class="st0" width="0.7" height="2.4"/>
			<path class="st0" d="M514.2,524.4h-0.7v-4.8h0.7V524.4z M514.2,514.9h-0.7v-4.8h0.7V514.9z M514.2,505.4h-0.7v-4.8h0.7V505.4z
				 M514.2,495.9h-0.7v-4.8h0.7V495.9z M514.2,486.3h-0.7v-4.8h0.7V486.3z M514.2,476.8h-0.7v-4.8h0.7V476.8z M514.2,467.3h-0.7
				v-4.8h0.7V467.3z M514.2,457.8h-0.7V453h0.7V457.8z M514.2,448.3h-0.7v-4.8h0.7V448.3z M514.2,438.8h-0.7V434h0.7V438.8z
				 M514.2,429.2h-0.7v-4.8h0.7V429.2z M514.2,419.7h-0.7V415h0.7V419.7z M514.2,410.2h-0.7v-4.8h0.7V410.2z M514.2,400.7h-0.7v-4.8
				h0.7V400.7z M514.2,391.2h-0.7v-4.8h0.7V391.2z M514.2,381.6h-0.7v-4.8h0.7V381.6z M514.2,372.1h-0.7v-4.8h0.7V372.1z
				 M514.2,362.6h-0.7v-4.8h0.7V362.6z M514.2,353.1h-0.7v-4.8h0.7V353.1z M514.2,343.6h-0.7v-4.8h0.7V343.6z M514.2,334.1h-0.7
				v-4.8h0.7V334.1z M514.2,324.5h-0.7v-4.8h0.7V324.5z M514.2,315h-0.7v-4.8h0.7V315z M514.2,305.5h-0.7v-4.8h0.7V305.5z
				 M514.2,296h-0.7v-4.8h0.7V296z M514.2,286.5h-0.7v-4.8h0.7V286.5z M514.2,276.9h-0.7v-4.8h0.7V276.9z M514.2,267.4h-0.7v-4.8
				h0.7V267.4z M514.2,257.9h-0.7v-4.8h0.7V257.9z M514.2,248.4h-0.7v-4.8h0.7V248.4z M514.2,238.9h-0.7v-4.8h0.7V238.9z
				 M514.2,229.4h-0.7v-4.8h0.7V229.4z"/>
			<rect x="513.6" y="217.5" class="st0" width="0.7" height="2.4"/>
		</g>
		<g>
			<rect x="553.7" y="509" class="st0" width="0.7" height="2.4"/>
			<path class="st0" d="M554.4,504.2h-0.7v-4.7h0.7V504.2z M554.4,494.7h-0.7V490h0.7V494.7z M554.4,485.3h-0.7v-4.7h0.7V485.3z
				 M554.4,475.8h-0.7V471h0.7V475.8z M554.4,466.3h-0.7v-4.7h0.7V466.3z M554.4,456.8h-0.7v-4.7h0.7V456.8z M554.4,447.3h-0.7v-4.7
				h0.7V447.3z M554.4,437.9h-0.7v-4.7h0.7V437.9z M554.4,428.4h-0.7v-4.7h0.7V428.4z M554.4,418.9h-0.7v-4.7h0.7V418.9z
				 M554.4,409.4h-0.7v-4.7h0.7V409.4z M554.4,399.9h-0.7v-4.7h0.7V399.9z M554.4,390.5h-0.7v-4.7h0.7V390.5z M554.4,381h-0.7v-4.7
				h0.7V381z M554.4,371.5h-0.7v-4.7h0.7V371.5z M554.4,362h-0.7v-4.7h0.7V362z M554.4,352.5h-0.7v-4.7h0.7V352.5z M554.4,343.1
				h-0.7v-4.7h0.7V343.1z M554.4,333.6h-0.7v-4.7h0.7V333.6z M554.4,324.1h-0.7v-4.7h0.7V324.1z M554.4,314.6h-0.7v-4.7h0.7V314.6z
				 M554.4,305.2h-0.7v-4.7h0.7V305.2z M554.4,295.7h-0.7v-4.7h0.7V295.7z M554.4,286.2h-0.7v-4.7h0.7V286.2z M554.4,276.7h-0.7V272
				h0.7V276.7z M554.4,267.2h-0.7v-4.7h0.7V267.2z M554.4,257.8h-0.7V253h0.7V257.8z M554.4,248.3h-0.7v-4.7h0.7V248.3z
				 M554.4,238.8h-0.7v-4.7h0.7V238.8z M554.4,229.3h-0.7v-4.7h0.7V229.3z"/>
			<rect x="553.7" y="217.5" class="st0" width="0.7" height="2.4"/>
		</g>
		<rect x="324.5" y="186.9" class="st0" width="0.7" height="9.7"/>
		<rect x="359" y="186.9" class="st0" width="0.7" height="9.7"/>
		<rect x="324.8" y="191.4" class="st0" width="34.5" height="0.7"/>
		<path class="st0" d="M325.2,255.6h-0.7v-4.7h0.7V255.6z M325.2,246.1h-0.7v-4.7h0.7V246.1z M325.2,236.7h-0.7V232h0.7V236.7z
			 M325.2,227.3h-0.7v-4.7h0.7V227.3z M325.2,217.9h-0.7v-4.7h0.7C325.2,213.2,325.2,217.9,325.2,217.9z M325.2,208.5h-0.7v-4.7h0.7
			V208.5z M325.2,199.1h-0.7v-3.3h0.7V199.1z"/>
		<path class="st0" d="M359.7,255.6H359v-4.7h0.7V255.6z M359.7,246.1H359v-4.7h0.7V246.1z M359.7,236.7H359V232h0.7V236.7z
			 M359.7,227.3H359v-4.7h0.7V227.3z M359.7,217.9H359v-4.7h0.7C359.7,213.2,359.7,217.9,359.7,217.9z M359.7,208.5H359v-4.7h0.7
			V208.5z M359.7,199.1H359v-3.3h0.7V199.1z"/>
	</g>
</g>
</svg>
