<svg width="669" height="669" viewBox="0 0 669 669" fill="none" xmlns="http://www.w3.org/2000/svg">
<rect width="669" height="669" fill="white"/>
<path d="M184.3 199C184.2 203.6 184.7 207.25 185.8 209.95C186.9 212.65 189.15 214 192.55 214C195.65 214 197.75 212.75 198.85 210.25C199.95 207.75 200.5 204.25 200.5 199.75V141.4C200.5 120.4 189.4 109.9 167.2 109.9C161.8 109.9 156.7 110.85 151.9 112.75C147.2 114.65 142.6 117.6 138.1 121.6L130.15 112.6C136.55 107 143 103.15 149.5 101.05C156.1 98.95 163.3 97.9 171.1 97.9C199.8 97.9 214.15 112.8 214.15 142.6V193C214.15 204.4 212.35 212.75 208.75 218.05C205.25 223.35 199.85 226 192.55 226C180.25 226 173.35 219.2 171.85 205.6C170.05 209.3 167.7 212.05 164.8 213.85C161.9 215.55 158.3 216.4 154 216.4C135.2 216.4 125.8 202.55 125.8 174.85C125.8 161.65 128.4 151.25 133.6 143.65C138.8 135.95 146.1 132.1 155.5 132.1C162.9 132.1 168.25 135.05 171.55 140.95V131.05H184.3V199ZM155.5 204.4C161 204.4 165.05 201.75 167.65 196.45C170.25 191.15 171.55 183.95 171.55 174.85C171.55 164.55 170.45 156.85 168.25 151.75C166.05 146.65 161.75 144.1 155.35 144.1C144.85 144.1 139.6 154.35 139.6 174.85C139.6 184.05 140.85 191.3 143.35 196.6C145.95 201.8 150 204.4 155.5 204.4ZM275.159 112H261.809V149.95H270.059C274.059 149.95 277.709 149.1 281.009 147.4C284.309 145.6 286.509 143.25 287.609 140.35C289.809 134.95 293.209 125.55 297.809 112.15H286.259V100.15H322.709V112.15H312.359L299.609 143.35C297.009 149.75 292.659 154 286.559 156.1C290.759 157.9 293.959 160.9 296.159 165.1C298.359 169.3 300.559 174.95 302.759 182.05C304.259 187.45 305.609 191.35 306.809 193.75C307.909 195.95 308.959 197.5 309.959 198.4C310.959 199.3 312.309 199.95 314.009 200.35C315.809 200.65 318.609 200.8 322.409 200.8H325.709V214H313.709C309.009 214 305.209 212.85 302.309 210.55C299.409 208.15 297.159 205.25 295.559 201.85C294.059 198.45 292.409 193.9 290.609 188.2C288.709 182.3 286.959 177.65 285.359 174.25C283.759 170.85 281.459 167.95 278.459 165.55C275.459 163.15 271.559 161.95 266.759 161.95L261.809 162.1V202H275.159V214H234.209V202H247.559V112H234.209V100H275.159V112ZM342.168 202H351.768L377.118 100H397.368L423.918 202H433.668V214H395.718V202H409.968L402.768 173.95H371.718L364.818 202H380.118V214H342.168V202ZM399.618 161.95L386.868 113.2L374.718 161.95H399.618ZM363.318 77.35C363.318 74.85 364.168 72.75 365.868 71.05C367.668 69.25 369.818 68.35 372.318 68.35C374.818 68.35 376.968 69.25 378.768 71.05C380.568 72.75 381.468 74.85 381.468 77.35C381.468 79.85 380.568 81.95 378.768 83.65C376.968 85.35 374.818 86.2 372.318 86.2C369.818 86.2 367.668 85.35 365.868 83.65C364.168 81.95 363.318 79.85 363.318 77.35ZM394.368 77.05C394.368 74.55 395.268 72.45 397.068 70.75C398.868 68.95 401.018 68.05 403.518 68.05C406.018 68.05 408.118 68.95 409.818 70.75C411.618 72.45 412.518 74.55 412.518 77.05C412.518 79.55 411.618 81.7 409.818 83.5C408.118 85.2 406.018 86.05 403.518 86.05C401.018 86.05 398.868 85.2 397.068 83.5C395.268 81.7 394.368 79.55 394.368 77.05ZM491.977 80.2H505.177V110.05C504.077 109.95 502.377 109.9 500.077 109.9C497.877 109.9 495.177 110.1 491.977 110.5V98.65C495.377 98.15 499.177 97.8 503.377 97.6H505.177C510.977 97.7 516.677 98.75 522.277 100.75C527.977 102.75 532.577 105 536.077 107.5L529.927 118.3C526.927 116.3 523.227 114.55 518.827 113.05C514.427 111.45 509.877 110.45 505.177 110.05V166L494.377 163.45L491.977 163V147.55L496.627 148.75L505.177 150.85C512.177 152.75 518.177 154.95 523.177 157.45C528.277 159.95 532.427 163.6 535.627 168.4C538.927 173.1 540.577 179.2 540.577 186.7C540.577 195.6 537.327 202.55 530.827 207.55C524.427 212.55 515.877 215.45 505.177 216.25C503.477 216.45 500.927 216.55 497.527 216.55L491.977 216.25V204.4L496.327 204.55C498.627 204.55 501.577 204.35 505.177 203.95V235H491.977V216.25C485.277 215.75 478.927 214.55 472.927 212.65C467.027 210.65 461.927 208.2 457.627 205.3L462.727 194.5C466.527 197.1 471.127 199.3 476.527 201.1C482.027 202.8 487.177 203.9 491.977 204.4V163C485.277 161.5 479.527 159.65 474.727 157.45C470.027 155.25 466.077 152 462.877 147.7C459.677 143.4 458.077 137.75 458.077 130.75C458.077 121.85 461.177 114.7 467.377 109.3C473.577 103.9 481.777 100.35 491.977 98.65V80.2ZM476.977 116.8C473.777 120 472.177 123.9 472.177 128.5C472.177 133.8 473.627 137.85 476.527 140.65C479.527 143.35 484.677 145.65 491.977 147.55V110.5C485.277 111.5 480.277 113.6 476.977 116.8ZM505.177 166V203.95C512.377 203.05 517.727 201.15 521.227 198.25C524.727 195.35 526.477 191.65 526.477 187.15C526.477 180.95 524.577 176.35 520.777 173.35C517.077 170.25 511.877 167.8 505.177 166ZM149.65 309V274.5H163.9V309H181.45V274.5H195.7V309H212.5V321H195.7V351.15H212.5V363.15H195.7V399H181.45V363.15H163.9V399H149.65V363.15H131.5V351.15H149.65V321H131.5V309H149.65ZM181.45 351.15V321H163.9V351.15H181.45ZM266.609 327.6C274.709 337.7 285.309 350.65 298.409 366.45L300.509 362.4C302.109 359.1 303.709 354.95 305.309 349.95C306.909 344.95 308.159 340.9 309.059 337.8L321.959 341.55C320.759 345.25 319.159 350.1 317.159 356.1C315.159 362.1 313.109 367.1 311.009 371.1L307.559 377.4L315.809 387H329.159V399H309.059L300.059 388.2C296.059 392.8 291.509 396.2 286.409 398.4C281.409 400.5 275.159 401.55 267.659 401.55C259.959 401.55 253.409 400.15 248.009 397.35C242.709 394.45 238.709 390.55 236.009 385.65C233.409 380.75 232.109 375.25 232.109 369.15C232.109 361.05 234.459 354.35 239.159 349.05C243.959 343.65 249.959 339.45 257.159 336.45L255.059 333.9C247.359 324.8 243.959 316 244.859 307.5C245.659 299.7 248.859 293.5 254.459 288.9C260.059 284.2 267.359 281.85 276.359 281.85C281.359 281.85 286.409 282.45 291.509 283.65C296.709 284.85 301.359 286.5 305.459 288.6L300.509 299.85C297.409 298.15 293.409 296.7 288.509 295.5C283.709 294.2 279.459 293.55 275.759 293.55C270.959 293.55 267.059 294.75 264.059 297.15C261.159 299.55 259.359 303.15 258.659 307.95C258.559 308.35 258.509 308.95 258.509 309.75C258.509 312.55 259.259 315.5 260.759 318.6C262.259 321.7 264.209 324.7 266.609 327.6ZM246.659 369.6C246.659 375.2 248.509 379.95 252.209 383.85C255.909 387.65 261.559 389.55 269.159 389.55C277.259 389.55 284.559 385.5 291.059 377.4L265.859 346.8C259.459 349 254.659 351.9 251.459 355.5C248.259 359 246.659 363.7 246.659 369.6ZM397.068 311.85C389.568 304.75 380.318 299.55 369.318 296.25L374.118 283.8C384.418 286.8 393.618 291.55 401.718 298.05C409.918 304.45 416.368 312.45 421.068 322.05C425.768 331.65 428.118 342.55 428.118 354.75C428.118 365.25 426.368 374 422.868 381C419.468 388 414.868 393.15 409.068 396.45C403.268 399.75 396.768 401.4 389.568 401.4C380.968 401.4 373.768 399.6 367.968 396C362.168 392.4 357.818 387.75 354.918 382.05C352.118 376.25 350.718 370.05 350.718 363.45C350.718 357.35 352.068 351.65 354.768 346.35C357.568 340.95 361.718 336.6 367.218 333.3C372.718 330 379.418 328.35 387.318 328.35C397.018 328.35 405.418 331.25 412.518 337.05C416.718 340.65 420.018 344.75 422.418 349.35L417.618 357.15L414.768 353.55V353.4C414.768 347.6 414.018 342.15 412.518 337.05C409.718 327.25 404.568 318.85 397.068 311.85ZM370.368 348.6C366.468 352.8 364.518 357.9 364.518 363.9C364.518 370.8 366.568 376.8 370.668 381.9C374.768 386.9 381.168 389.4 389.868 389.4C397.268 389.4 403.268 386.4 407.868 380.4C412.468 374.4 414.768 365.45 414.768 353.55C410.868 349.15 406.668 346.15 402.168 344.55C397.668 342.95 392.568 342.15 386.868 342.15C379.768 342.15 374.268 344.3 370.368 348.6ZM498.577 386.7V362.55H448.627L467.077 296.4L479.377 300.15L466.027 350.25H498.577V285L512.077 284.85V350.25H536.827V362.55H512.077V386.7H535.927V399H474.427V386.7H498.577ZM204.1 510.65C204.1 505.45 203.15 500.5 201.25 495.8C199.35 491 196.35 487.1 192.25 484.1C188.25 481.1 183.25 479.6 177.25 479.6C165.45 479.6 156.65 483.95 150.85 492.65C145.15 501.25 142.3 512.65 142.3 526.85C142.3 541.45 145.5 553.05 151.9 561.65C158.3 570.15 168.7 574.4 183.1 574.4C188.6 574.4 193.4 573.95 197.5 573.05C201.6 572.15 205.65 570.75 209.65 568.85L214 580.1C208.6 582.3 203.75 583.9 199.45 584.9C195.15 585.9 189.8 586.4 183.4 586.4C171 586.4 160.55 583.85 152.05 578.75C143.65 573.55 137.35 566.5 133.15 557.6C129.05 548.6 127 538.35 127 526.85C127 515.35 129 505.15 133 496.25C137.1 487.25 142.95 480.25 150.55 475.25C158.15 470.15 167.05 467.6 177.25 467.6C189.85 467.6 198.8 472.05 204.1 480.95V470H215.8V510.65H204.1ZM267.659 504.95L240.059 492.2L249.059 476.75L273.659 494.15L270.959 464H288.959L286.259 494.3L310.859 476.75L319.859 492.2L292.409 504.95L319.859 517.7L310.859 533.15L286.259 515.6L288.959 545.9H270.959L273.659 515.75L249.059 533.15L240.059 517.7L267.659 504.95ZM428.268 482H392.868L398.418 519.95H428.268V531.95H400.068L405.918 572H435.768V584H393.918L388.068 543.2H364.968L355.368 584H342.318L369.018 470H428.268V482ZM386.418 531.2L379.218 482L367.668 531.2H386.418ZM496.027 550.1C488.127 550.1 480.977 548.3 474.577 544.7C468.277 541.1 463.327 536.05 459.727 529.55C456.127 522.95 454.327 515.4 454.327 506.9C454.327 499.3 456.127 492.35 459.727 486.05C463.427 479.65 468.427 474.65 474.727 471.05C481.127 467.35 488.227 465.5 496.027 465.5C503.727 465.5 510.627 467.35 516.727 471.05C522.827 474.65 527.577 479.6 530.977 485.9C534.377 492.2 536.077 499.2 536.077 506.9C536.077 515.4 534.377 522.95 530.977 529.55C527.677 536.05 522.977 541.1 516.877 544.7C510.777 548.3 503.827 550.1 496.027 550.1ZM496.027 539.9C505.427 539.9 512.727 536.85 517.927 530.75C523.227 524.55 525.877 516.6 525.877 506.9C525.877 501.4 524.677 496.3 522.277 491.6C519.977 486.8 516.577 482.95 512.077 480.05C507.577 477.15 502.227 475.7 496.027 475.7C489.727 475.7 484.177 477.15 479.377 480.05C474.577 482.95 470.877 486.8 468.277 491.6C465.777 496.4 464.527 501.5 464.527 506.9C464.527 513.2 465.777 518.85 468.277 523.85C470.877 528.85 474.527 532.8 479.227 535.7C484.027 538.5 489.627 539.9 496.027 539.9ZM490.327 484.25C497.727 484.25 503.277 485.6 506.977 488.3C510.777 490.9 512.677 495 512.677 500.6C512.677 507.6 509.927 512.2 504.427 514.4L513.277 529.85H502.777L494.827 515.75H490.177V529.85H480.277V484.25H490.327ZM494.977 505.85C497.577 505.85 499.477 505.45 500.677 504.65C501.877 503.75 502.477 502.1 502.477 499.7C502.477 497.8 501.827 496.4 500.527 495.5C499.327 494.6 497.477 494.1 494.977 494H490.327H490.177V505.85H494.977Z" fill="black"/>
</svg>
