<svg width="971" height="469" viewBox="0 0 971 469" fill="none" xmlns="http://www.w3.org/2000/svg">
<path d="M73.5648 49.4H78.0448L89.8748 1.8H99.3248L111.715 49.4H116.265V55H98.5548V49.4H105.205L101.845 36.31H87.3548L84.1348 49.4H91.2748V55H73.5648V49.4ZM100.375 30.71L94.4248 7.96L88.7548 30.71H100.375ZM167.626 25.74C169.492 25.74 171.079 25.5533 172.386 25.18C173.739 24.76 174.859 23.8967 175.746 22.59C176.632 21.2367 177.076 19.2767 177.076 16.71C177.076 12.9767 176.212 10.5033 174.486 9.29C172.759 8.03 170.472 7.4 167.626 7.4H159.436V25.74H167.626ZM144.246 49.4H152.786V7.4H144.246V1.8H167.766C172.432 1.8 176.259 2.99 179.246 5.37C182.279 7.75 183.796 11.53 183.796 16.71C183.796 21.8433 182.022 25.4133 178.476 27.42C181.182 28.0733 183.329 29.4267 184.916 31.48C186.502 33.5333 187.296 36.4033 187.296 40.09C187.296 45.27 185.779 49.05 182.746 51.43C179.759 53.81 175.932 55 171.266 55H144.246V49.4ZM171.126 49.4C173.972 49.4 176.259 48.7933 177.986 47.58C179.712 46.32 180.576 43.8233 180.576 40.09C180.576 37.5233 180.132 35.5867 179.246 34.28C178.359 32.9267 177.239 32.0633 175.886 31.69C174.579 31.27 172.992 31.06 171.126 31.06H159.436V49.4H171.126ZM252.657 20.77C252.657 18.3433 252.213 16.0333 251.327 13.84C250.44 11.6 249.04 9.78 247.127 8.38C245.26 6.98 242.927 6.28 240.127 6.28C234.62 6.28 230.513 8.31 227.807 12.37C225.147 16.3833 223.817 21.7033 223.817 28.33C223.817 35.1433 225.31 40.5567 228.297 44.57C231.283 48.5367 236.137 50.52 242.857 50.52C245.423 50.52 247.663 50.31 249.577 49.89C251.49 49.47 253.38 48.8167 255.247 47.93L257.277 53.18C254.757 54.2067 252.493 54.9533 250.487 55.42C248.48 55.8867 245.983 56.12 242.997 56.12C237.21 56.12 232.333 54.93 228.367 52.55C224.447 50.1233 221.507 46.8333 219.547 42.68C217.633 38.48 216.677 33.6967 216.677 28.33C216.677 22.9633 217.61 18.2033 219.477 14.05C221.39 9.85 224.12 6.58333 227.667 4.25C231.213 1.87 235.367 0.679998 240.127 0.679998C246.007 0.679998 250.183 2.75666 252.657 6.91V1.8H258.117V20.77H252.657ZM309.057 1.8C316.477 1.8 321.821 4.06333 325.087 8.59C328.401 13.07 330.057 19.65 330.057 28.33C330.057 36.87 328.401 43.45 325.087 48.07C321.774 52.69 316.431 55 309.057 55H287.007V49.4H293.237V7.4H287.007V1.8H309.057ZM309.057 49.4C314.331 49.4 318.017 47.6033 320.117 44.01C322.217 40.4167 323.267 35.19 323.267 28.33C323.267 21.5633 322.194 16.3833 320.047 12.79C317.947 9.19667 314.284 7.4 309.057 7.4H299.887V49.4H309.057ZM366.228 49.4V7.4H358.388V1.8H402.488V18.67H396.188V7.4H372.878V24.27H388.628V30.43H372.878V49.4H396.538V35.47H402.488V55H358.388V49.4H366.228ZM436.909 49.4V7.4H429.769V1.8H473.869V19.37H467.569V7.4H443.559V24.27H460.009V29.87H443.559V49.4H454.339V55H429.769V49.4H436.909ZM523.9 0.679998C529.78 0.679998 533.957 2.75666 536.43 6.91V1.8H541.89V20.77H536.43C536.43 18.3433 535.987 16.0333 535.1 13.84C534.213 11.6 532.813 9.78 530.9 8.38C529.033 6.98 526.7 6.28 523.9 6.28C520.727 6.28 518.02 7.23666 515.78 9.15C513.54 11.0633 511.837 13.7 510.67 17.06C509.55 20.3733 508.99 24.13 508.99 28.33C508.99 32.6233 509.55 36.45 510.67 39.81C511.837 43.17 513.54 45.8067 515.78 47.72C518.02 49.5867 520.727 50.52 523.9 50.52C527.773 50.52 531.787 50.1467 535.94 49.4V35.61H529.01V30.01H545.25V35.61H542.24V53.6C538.833 54.4867 535.963 55.1167 533.63 55.49C531.343 55.91 528.1 56.12 523.9 56.12C519.467 56.12 515.617 54.9533 512.35 52.62C509.083 50.2867 506.563 47.02 504.79 42.82C503.063 38.62 502.2 33.79 502.2 28.33C502.2 22.9633 503.063 18.2033 504.79 14.05C506.563 9.85 509.083 6.58333 512.35 4.25C515.617 1.87 519.467 0.679998 523.9 0.679998ZM591.641 7.4H585.761V24.13H603.401V7.47H597.521V1.8H615.931V7.47H610.051V49.47H615.931V55.07H597.521V49.47H603.401V29.73H585.761V49.4H591.641V55H573.231V49.4H579.111V7.4H573.231V1.8H591.641V7.4ZM662.672 49.4V7.4H647.762V1.8H684.162V7.4H669.322V49.4H684.162V55H647.762V49.4H662.672ZM754.983 1.8V7.4H744.343V39.74C744.343 43.0533 743.946 45.9 743.153 48.28C742.359 50.66 740.843 52.5733 738.603 54.02C736.409 55.4667 733.259 56.19 729.153 56.19C727.146 56.19 724.789 56.0033 722.083 55.63C719.423 55.3033 716.716 54.8133 713.963 54.16L715.293 48.7C717.906 49.3533 720.519 49.8433 723.133 50.17C725.746 50.4967 727.986 50.66 729.853 50.66C731.906 50.66 733.493 50.1467 734.613 49.12C735.779 48.0933 736.573 46.5533 736.993 44.5C737.459 42.4467 737.693 39.67 737.693 36.17V7.4H722.083V1.8H754.983ZM806.483 7.4H800.253V25.11H804.103C805.97 25.11 807.673 24.7133 809.213 23.92C810.753 23.08 811.78 21.9833 812.293 20.63C813.32 18.11 814.907 13.7233 817.053 7.47H811.663V1.87H828.673V7.47H823.843L817.893 22.03C816.68 25.0167 814.65 27 811.803 27.98C813.763 28.82 815.257 30.22 816.283 32.18C817.31 34.14 818.337 36.7767 819.363 40.09C820.063 42.61 820.693 44.43 821.253 45.55C821.767 46.5767 822.257 47.3 822.723 47.72C823.19 48.14 823.82 48.4433 824.613 48.63C825.453 48.77 826.76 48.84 828.533 48.84H830.073V55H824.473C822.28 55 820.507 54.4633 819.153 53.39C817.8 52.27 816.75 50.9167 816.003 49.33C815.303 47.7433 814.533 45.62 813.693 42.96C812.807 40.2067 811.99 38.0367 811.243 36.45C810.497 34.8633 809.423 33.51 808.023 32.39C806.623 31.27 804.803 30.71 802.563 30.71L800.253 30.78V49.4H806.483V55H787.373V49.4H793.603V7.4H787.373V1.8H806.483V7.4ZM868.834 49.4V7.4H861.694V1.8H885.984V7.4H875.484V49.4H894.804V34.77H901.454V55H858.754V49.4H868.834ZM23.394 128.25L29.554 104.8H44.884V110.4H39.564V152.47H44.884V158.07H26.614V152.47H33.194V112.29L26.404 138.47H20.454L13.454 111.45V152.4H20.734V158H2.18398V152.4H7.50399V110.4H2.18398V104.8H17.304L23.394 128.25ZM104.085 141.83V110.47H97.8548V104.87H116.265V110.47H110.035V158.07H104.085L85.7448 113.48V152.4H91.9748V158H73.5648V152.4H79.7948V110.4H73.5648V104.8H88.7548L104.085 141.83ZM166.296 159.12C159.296 159.12 154.046 156.623 150.546 151.63C147.046 146.637 145.296 139.87 145.296 131.33C145.296 122.79 146.976 116.047 150.336 111.1C153.696 106.153 159.016 103.68 166.296 103.68C173.669 103.68 179.012 106.083 182.326 110.89C185.639 115.697 187.296 122.51 187.296 131.33C187.296 140.01 185.616 146.823 182.256 151.77C178.942 156.67 173.622 159.12 166.296 159.12ZM166.296 153.52C171.522 153.52 175.186 151.583 177.286 147.71C179.432 143.79 180.506 138.33 180.506 131.33C180.506 124.423 179.432 119.033 177.286 115.16C175.186 111.24 171.522 109.28 166.296 109.28C161.069 109.28 157.382 111.24 155.236 115.16C153.136 119.033 152.086 124.423 152.086 131.33C152.086 138.33 153.136 143.79 155.236 147.71C157.382 151.583 161.069 153.52 166.296 153.52ZM224.237 152.4V110.4H215.697V104.8H241.457C246.59 104.8 250.79 106.107 254.057 108.72C257.37 111.333 259.027 115.487 259.027 121.18C259.027 126.827 257.393 130.91 254.127 133.43C250.86 135.903 246.637 137.14 241.457 137.14H230.887V152.4H242.577V158H215.627V152.4H224.237ZM241.457 131.68C243.557 131.68 245.377 131.447 246.917 130.98C248.457 130.513 249.717 129.51 250.697 127.97C251.723 126.43 252.237 124.167 252.237 121.18C252.237 116.887 251.257 114.017 249.297 112.57C247.337 111.123 244.723 110.4 241.457 110.4H230.887V131.68H241.457ZM332.647 170.88C329.847 171.627 326.277 172 321.937 172C317.971 172 314.844 170.88 312.557 168.64C310.271 166.447 308.987 163.273 308.707 159.12C301.801 159.027 296.621 156.507 293.167 151.56C289.761 146.567 288.057 139.823 288.057 131.33C288.057 122.79 289.737 116.047 293.097 111.1C296.457 106.153 301.777 103.68 309.057 103.68C316.431 103.68 321.774 106.083 325.087 110.89C328.401 115.697 330.057 122.51 330.057 131.33C330.057 138.61 328.891 144.607 326.557 149.32C324.224 153.987 320.514 156.997 315.427 158.35C315.707 161.29 316.501 163.367 317.807 164.58C319.114 165.84 321.004 166.47 323.477 166.47C325.437 166.47 328.051 166.097 331.317 165.35L332.647 170.88ZM309.057 153.52C314.284 153.52 317.947 151.583 320.047 147.71C322.194 143.79 323.267 138.33 323.267 131.33C323.267 124.423 322.194 119.033 320.047 115.16C317.947 111.24 314.284 109.28 309.057 109.28C303.831 109.28 300.144 111.24 297.997 115.16C295.897 119.033 294.847 124.423 294.847 131.33C294.847 138.33 295.897 143.79 297.997 147.71C300.144 151.583 303.831 153.52 309.057 153.52ZM365.598 152.4V110.4H359.088V104.8H382.118C387.252 104.8 391.452 106.013 394.718 108.44C398.032 110.82 399.688 114.6 399.688 119.78C399.688 123.933 398.615 127.153 396.468 129.44C394.322 131.727 391.428 133.22 387.788 133.92C388.908 134.76 389.865 135.833 390.658 137.14C391.778 139.053 392.828 141.9 393.808 145.68L394.648 148.48C395.068 149.787 395.558 150.767 396.118 151.42C396.678 152.073 397.588 152.4 398.848 152.4H401.788V158H395.698C393.878 158 392.432 157.557 391.358 156.67C390.285 155.737 389.468 154.617 388.908 153.31C388.395 151.957 387.835 150.09 387.228 147.71C386.948 146.31 386.598 145.003 386.178 143.79C385.338 141.037 384.148 138.843 382.608 137.21C381.068 135.577 378.828 134.643 375.888 134.41H372.248V152.4H378.758V158H359.088V152.4H365.598ZM382.118 128.95C385.432 128.95 388.045 128.367 389.958 127.2C391.918 125.987 392.898 123.513 392.898 119.78C392.898 116.047 391.918 113.55 389.958 112.29C387.998 111.03 385.385 110.4 382.118 110.4H372.248V128.95H382.118ZM438.169 142.53C438.542 145.89 440.152 148.573 442.999 150.58C445.892 152.587 449.392 153.59 453.499 153.59C457.232 153.59 460.079 152.96 462.039 151.7C464.046 150.44 465.049 148.34 465.049 145.4C465.049 143.16 464.349 141.34 462.949 139.94C461.596 138.493 459.916 137.397 457.909 136.65C455.949 135.903 453.429 135.157 450.349 134.41C445.262 133.197 441.086 131.423 437.819 129.09C434.599 126.757 432.989 123.163 432.989 118.31C432.989 113.55 434.459 109.933 437.399 107.46C440.386 104.987 444.376 103.75 449.369 103.75C452.542 103.75 455.319 104.357 457.699 105.57C460.126 106.783 462.016 108.393 463.369 110.4V104.87H468.969V118.8H463.369C461.736 115.627 459.846 113.27 457.699 111.73C455.552 110.143 452.776 109.35 449.369 109.35C446.336 109.35 443.956 110.003 442.229 111.31C440.549 112.617 439.709 114.623 439.709 117.33C439.709 120.037 440.619 122.16 442.439 123.7C444.306 125.193 447.339 126.477 451.539 127.55C455.926 128.717 459.402 129.837 461.969 130.91C464.582 131.937 466.869 133.663 468.829 136.09C470.789 138.517 471.769 141.807 471.769 145.96C471.769 150.16 470.229 153.427 467.149 155.76C464.069 158.047 459.612 159.19 453.779 159.19C450.606 159.19 447.619 158.677 444.819 157.65C442.019 156.577 439.802 155.013 438.169 152.96V158.56H432.569V142.53H438.169ZM519.91 152.4V110.4H507.45V123.07H501.85V104.8H544.55V123.07H538.95V110.4H526.56V152.4H540.7V158H505.7V152.4H519.91ZM591.641 104.8V110.4H585.411V138.19C585.411 143.183 586.041 146.987 587.301 149.6C588.561 152.213 590.988 153.52 594.581 153.52C598.221 153.52 600.718 152.19 602.071 149.53C603.424 146.87 604.101 143.113 604.101 138.26V110.47H597.521V104.8H615.931V110.47H610.051V138.26C610.051 144.747 608.954 149.857 606.761 153.59C604.568 157.277 600.508 159.12 594.581 159.12C588.654 159.12 584.594 157.253 582.401 153.52C580.208 149.787 579.111 144.677 579.111 138.19V110.4H573.231V104.8H591.641ZM662.322 104.8V110.4H656.302L666.242 149.11L676.042 110.4H669.602V104.8H687.312V110.4H682.132L670.092 158H662.042L649.862 110.4H644.612V104.8H662.322ZM744.343 158L737.273 130.7L730.343 158H724.743L719.703 110.4H715.993V104.8H733.703V110.4H726.073L729.363 141.55L734.683 120.2H740.563L745.603 138.54L748.543 110.4H740.983V104.8H758.693V110.4H754.983L749.943 158H744.343ZM812.363 152.4H818.663L808.513 135.88L798.223 152.4H805.083V158H787.373V152.4H791.223L805.223 130.42L792.903 110.4H787.373V104.8H805.083V110.4H800.253L809.353 125.24L818.033 110.4H812.363V104.8H830.073V110.4H825.033L812.713 130.7L826.013 152.4H830.073V158H812.363V152.4ZM876.814 151.7V137L863.584 110.4H858.754V104.8H876.464V110.4H870.724L880.314 129.86L889.974 110.4H883.744V104.8H901.454V110.4H896.694L883.464 137V151.7H892.704V158H867.504V151.7H876.814ZM970.735 110.4L939.375 152.4H965.135V139.73H970.735V158H931.535V151.7L962.545 110.4H939.235V120.97H933.635V104.8H970.735V110.4ZM108.845 251.9C108.845 252.88 109.078 253.72 109.545 254.42C110.058 255.073 110.758 255.4 111.645 255.4H114.445V261H111.085C108.612 261 106.745 260.487 105.485 259.46C104.225 258.387 103.432 256.613 103.105 254.14C100.258 259.087 95.7082 261.56 89.4548 261.56C86.5148 261.56 84.0415 260.953 82.0348 259.74C80.0748 258.527 78.6282 256.987 77.6948 255.12C76.7615 253.207 76.2948 251.177 76.2948 249.03C76.2948 245.063 77.5548 242.007 80.0748 239.86C82.5948 237.667 85.7682 236.197 89.5948 235.45C93.4215 234.657 97.8548 234.213 102.895 234.12C102.568 230.293 101.612 227.563 100.025 225.93C98.4382 224.297 96.1282 223.48 93.0948 223.48C91.3215 223.48 89.4082 223.76 87.3548 224.32C85.3482 224.833 83.4115 225.58 81.5448 226.56L79.6548 221.17C84.7415 218.977 89.5482 217.88 94.0748 217.88C98.5548 217.88 102.125 219.21 104.785 221.87C107.492 224.483 108.845 228.777 108.845 234.75V251.9ZM82.3148 249.31C82.3148 251.083 82.9215 252.647 84.1348 254C85.3948 255.307 86.9115 255.96 88.6848 255.96C91.8115 255.96 94.4482 255.237 96.5948 253.79C98.7415 252.343 100.328 250.407 101.355 247.98C102.428 245.553 102.965 242.847 102.965 239.86V239.65C96.5248 239.79 91.4615 240.56 87.7748 241.96C84.1348 243.313 82.3148 245.763 82.3148 249.31ZM150.196 210.46H144.036V205H156.216V225.44C157.709 223.013 159.552 221.123 161.746 219.77C163.986 218.417 166.459 217.74 169.166 217.74C172.666 217.74 175.652 218.673 178.126 220.54C180.646 222.36 182.559 224.903 183.866 228.17C185.172 231.437 185.826 235.147 185.826 239.3C185.826 246.253 184.192 251.807 180.926 255.96C177.706 260.067 172.899 262.12 166.506 262.12C163.566 262.12 160.626 261.933 157.686 261.56C154.746 261.187 152.249 260.673 150.196 260.02V210.46ZM156.216 254.63C159.016 255.657 162.679 256.17 167.206 256.17C169.772 256.17 171.966 255.4 173.786 253.86C175.652 252.32 177.052 250.29 177.986 247.77C178.919 245.203 179.386 242.45 179.386 239.51C179.386 235.17 178.429 231.483 176.516 228.45C174.602 225.37 171.826 223.83 168.186 223.83C166.086 223.83 164.126 224.483 162.306 225.79C160.532 227.097 159.086 228.847 157.966 231.04C156.892 233.233 156.309 235.613 156.216 238.18V254.63ZM254.477 219V233.35H249.227C248.34 230.223 246.87 227.843 244.817 226.21C242.81 224.53 240.407 223.69 237.607 223.69C235.133 223.69 232.917 224.413 230.957 225.86C229.043 227.307 227.55 229.29 226.477 231.81C225.403 234.283 224.867 237.06 224.867 240.14C224.867 245.227 226.173 249.24 228.787 252.18C231.447 255.073 235.32 256.52 240.407 256.52C244.747 256.52 248.807 255.447 252.587 253.3L255.247 257.99C250.767 260.743 245.82 262.12 240.407 262.12C235.787 262.12 231.82 261.21 228.507 259.39C225.24 257.57 222.743 255.027 221.017 251.76C219.29 248.447 218.427 244.573 218.427 240.14C218.427 235.94 219.29 232.16 221.017 228.8C222.743 225.393 225.053 222.733 227.947 220.82C230.887 218.86 234.107 217.88 237.607 217.88C240.033 217.88 242.227 218.347 244.187 219.28C246.147 220.167 247.827 221.45 249.227 223.13V219H254.477ZM288.827 240.56C288.827 233.747 290.367 228.24 293.447 224.04C296.527 219.84 301.357 217.74 307.937 217.74C311.951 217.74 315.544 218.323 318.717 219.49V210.6H311.087V205H324.737V251.9C324.737 252.88 324.971 253.72 325.437 254.42C325.951 255.073 326.651 255.4 327.537 255.4H330.337V261H326.977C324.364 261 322.427 260.417 321.167 259.25C319.907 258.083 319.161 256.147 318.927 253.44C317.481 256.52 315.707 258.737 313.607 260.09C311.507 261.443 308.964 262.12 305.977 262.12C302.477 262.12 299.421 261.187 296.807 259.32C294.241 257.453 292.257 254.887 290.857 251.62C289.504 248.353 288.827 244.667 288.827 240.56ZM295.267 240.35C295.267 244.737 296.177 248.447 297.997 251.48C299.864 254.513 302.617 256.03 306.257 256.03C309.804 256.03 312.744 254.63 315.077 251.83C317.457 248.983 318.671 244.27 318.717 237.69V225.65C315.777 224.203 312.137 223.48 307.797 223.48C304.017 223.48 300.984 224.88 298.697 227.68C296.411 230.433 295.267 234.657 295.267 240.35ZM362.168 240.14C362.168 235.893 362.962 232.113 364.548 228.8C366.135 225.44 368.352 222.827 371.198 220.96C374.092 219.047 377.382 218.09 381.068 218.09C384.755 218.09 387.928 218.977 390.588 220.75C393.295 222.523 395.348 224.997 396.748 228.17C398.195 231.343 398.918 234.937 398.918 238.95C398.918 240.117 398.895 240.98 398.848 241.54H368.608C368.842 246.207 370.195 249.847 372.668 252.46C375.188 255.073 378.642 256.38 383.028 256.38C386.108 256.38 389.678 255.727 393.738 254.42L395.278 260.09C392.852 260.837 390.798 261.35 389.118 261.63C387.438 261.957 385.642 262.12 383.728 262.12C379.062 262.12 375.118 261.21 371.898 259.39C368.678 257.523 366.252 254.933 364.618 251.62C362.985 248.307 362.168 244.48 362.168 240.14ZM392.758 236.15C392.572 232.277 391.405 229.36 389.258 227.4C387.112 225.393 384.172 224.39 380.438 224.39C377.078 224.39 374.418 225.44 372.458 227.54C370.545 229.593 369.355 232.463 368.888 236.15H392.758ZM469.249 224.6H451.469V255.4H469.249V261H433.549V255.4H445.449V224.6H433.549V219H445.449V217.46C445.449 212.42 446.406 208.547 448.319 205.84C450.279 203.133 453.522 201.78 458.049 201.78C462.576 201.78 466.356 202.247 469.389 203.18L467.849 208.85C466.216 208.337 464.699 207.963 463.299 207.73C461.899 207.497 460.219 207.38 458.259 207.38C456.346 207.38 454.899 207.777 453.919 208.57C452.939 209.317 452.286 210.39 451.959 211.79C451.632 213.19 451.469 215.08 451.469 217.46V219H469.249V224.6ZM519.56 248.05L518.51 253.65L520.89 253.58C527.237 253.58 532.16 254.49 535.66 256.31C539.207 258.083 540.98 260.907 540.98 264.78C540.98 268.607 539.533 271.617 536.64 273.81C533.747 276.05 529.267 277.17 523.2 277.17C519.28 277.17 515.43 276.61 511.65 275.49C507.917 274.37 504.93 272.807 502.69 270.8L505.91 266.11C508.243 268.117 510.647 269.517 513.12 270.31C515.593 271.15 518.953 271.57 523.2 271.57C530.76 271.57 534.54 269.54 534.54 265.48C534.54 263.007 533.257 261.327 530.69 260.44C528.123 259.553 524.717 259.11 520.47 259.11C519.21 259.11 517.507 259.157 515.36 259.25L511.51 259.32L513.89 246.65C511.09 245.483 508.92 243.687 507.38 241.26C505.84 238.833 505.07 236.057 505.07 232.93C505.07 228.217 506.517 224.53 509.41 221.87C512.303 219.21 516.34 217.88 521.52 217.88C525.253 217.88 528.427 218.603 531.04 220.05L543.71 217.88L544.76 223.48L536.01 224.81C537.317 227.143 537.97 229.85 537.97 232.93C537.97 235.637 537.293 238.157 535.94 240.49C534.633 242.777 532.72 244.62 530.2 246.02C527.727 247.42 524.833 248.12 521.52 248.12L519.56 248.05ZM521.52 242.52C524.833 242.52 527.33 241.61 529.01 239.79C530.69 237.923 531.53 235.637 531.53 232.93C531.53 229.943 530.713 227.633 529.08 226C527.447 224.32 524.927 223.48 521.52 223.48C518.113 223.48 515.593 224.32 513.96 226C512.327 227.633 511.51 229.943 511.51 232.93C511.51 235.637 512.35 237.923 514.03 239.79C515.71 241.61 518.207 242.52 521.52 242.52ZM586.111 202.9V225.23C588.584 222.85 590.988 221.053 593.321 219.84C595.701 218.58 597.894 217.95 599.901 217.95C603.261 217.95 605.851 219.093 607.671 221.38C609.538 223.667 610.471 226.98 610.471 231.32V255.4H616.071V261H598.851V255.4H604.451V233.56C604.451 230.107 604.031 227.61 603.191 226.07C602.351 224.53 600.928 223.76 598.921 223.76C595.514 223.76 591.244 226.443 586.111 231.81V255.4H591.711V261H574.491V255.4H580.091V208.5H574.561V202.9H586.111ZM666.102 208.5C664.422 208.5 662.998 207.917 661.832 206.75C660.665 205.537 660.082 204.113 660.082 202.48C660.082 200.847 660.665 199.447 661.832 198.28C662.998 197.067 664.422 196.46 666.102 196.46C667.735 196.46 669.135 197.067 670.302 198.28C671.515 199.447 672.122 200.847 672.122 202.48C672.122 204.113 671.515 205.537 670.302 206.75C669.135 207.917 667.735 208.5 666.102 208.5ZM664.002 255.4V224.6H652.452V219H670.022V255.4H685.772V261H648.322V255.4H664.002ZM744.063 261.49C744.063 266.25 742.989 269.89 740.843 272.41C738.743 274.93 735.733 276.19 731.813 276.19C730.319 276.19 728.686 276.027 726.913 275.7C725.186 275.42 722.596 274.93 719.143 274.23L720.123 268.49C722.829 269.19 724.906 269.68 726.353 269.96C727.799 270.24 729.153 270.38 730.413 270.38C732.093 270.38 733.563 270.053 734.823 269.4C736.969 268.187 738.043 264.897 738.043 259.53V224.6H726.563V219H744.063V261.49ZM740.423 208.5C738.743 208.5 737.319 207.917 736.153 206.75C734.986 205.537 734.403 204.113 734.403 202.48C734.403 200.847 734.986 199.447 736.153 198.28C737.319 197.067 738.743 196.46 740.423 196.46C742.056 196.46 743.456 197.067 744.623 198.28C745.836 199.447 746.443 200.847 746.443 202.48C746.443 204.113 745.836 205.537 744.623 206.75C743.456 207.917 742.056 208.5 740.423 208.5ZM800.673 202.9V236.57H804.313C805.667 236.57 806.717 236.29 807.463 235.73C808.257 235.123 809.213 233.98 810.333 232.3L815.373 224.6H809.423V219H826.643V224.6H822.443L816.703 233.56C815.21 235.893 814.02 237.503 813.133 238.39C813.973 238.997 814.65 239.767 815.163 240.7C815.677 241.587 816.237 242.777 816.843 244.27C817.823 246.743 818.99 249.45 820.343 252.39C820.81 253.37 821.3 254.117 821.813 254.63C822.373 255.143 823.097 255.4 823.983 255.4H829.093V261H822.023C819.363 261 817.45 259.763 816.283 257.29L814.393 253.02C813.18 250.08 812.2 247.817 811.453 246.23C810.707 244.597 809.96 243.547 809.213 243.08C808.513 242.567 807.51 242.31 806.203 242.31H800.673V255.4H806.133V261H788.913V255.4H794.513V208.5H788.983V202.9H800.673ZM878.214 255.4V208.5H866.594V202.9H884.164V255.4H899.914V261H862.464V255.4H878.214ZM12.684 322V327.11C13.4307 325.103 14.3873 323.563 15.554 322.49C16.7207 321.417 18.1907 320.88 19.964 320.88C21.644 320.88 22.9507 321.557 23.884 322.91C24.8173 324.263 25.4707 326.2 25.844 328.72C26.6373 326.2 27.664 324.263 28.924 322.91C30.2307 321.557 31.8407 320.88 33.754 320.88C35.7607 320.88 37.2773 321.557 38.304 322.91C39.3773 324.217 40.0773 326.013 40.404 328.3C40.7773 330.587 40.964 333.527 40.964 337.12V358.4H46.214V364H34.804V358.4H34.944V337.61C34.944 334.39 34.734 331.847 34.314 329.98C33.894 328.067 33.0307 327.11 31.724 327.11C29.5773 327.11 28.1307 328.86 27.384 332.36C26.684 335.813 26.334 340.013 26.334 344.96L26.404 350.42L26.334 350.07V358.4H31.864V364H20.314V337.54C20.314 334.647 20.174 332.173 19.894 330.12C19.6607 328.067 19.0073 327.04 17.934 327.04C15.8807 327.04 14.504 329 13.804 332.92C13.104 336.793 12.7307 341.413 12.684 346.78V358.4H17.304V364H0.853985V358.4H6.66398V327.6H0.923984V322H12.684ZM86.4448 322V328.23C88.9182 325.85 91.3215 324.053 93.6548 322.84C96.0348 321.58 98.2282 320.95 100.235 320.95C103.595 320.95 106.185 322.093 108.005 324.38C109.872 326.667 110.805 329.98 110.805 334.32V358.4H116.405V364H99.1848V358.4H104.785V336.56C104.785 333.06 104.365 330.54 103.525 329C102.685 327.46 101.262 326.69 99.2548 326.69C95.8948 326.69 91.6248 329.397 86.4448 334.81V358.4H92.0448V364H74.8248V358.4H80.4248V327.6H74.8948V322H86.4448ZM166.296 365.12C162.562 365.12 159.249 364.187 156.356 362.32C153.462 360.453 151.199 357.84 149.566 354.48C147.932 351.12 147.116 347.27 147.116 342.93C147.116 338.683 147.932 334.903 149.566 331.59C151.199 328.23 153.462 325.617 156.356 323.75C159.296 321.837 162.609 320.88 166.296 320.88C169.982 320.88 173.296 321.837 176.236 323.75C179.176 325.617 181.462 328.23 183.096 331.59C184.729 334.903 185.546 338.683 185.546 342.93C185.546 347.27 184.729 351.12 183.096 354.48C181.462 357.84 179.176 360.453 176.236 362.32C173.342 364.187 170.029 365.12 166.296 365.12ZM166.296 359.38C170.589 359.38 173.786 357.91 175.886 354.97C177.986 351.983 179.036 347.97 179.036 342.93C179.036 338.03 177.986 334.087 175.886 331.1C173.786 328.113 170.589 326.62 166.296 326.62C162.002 326.62 158.806 328.113 156.706 331.1C154.606 334.087 153.556 338.03 153.556 342.93C153.556 347.97 154.606 351.983 156.706 354.97C158.806 357.91 162.002 359.38 166.296 359.38ZM240.967 320.88C244.467 320.88 247.5 321.813 250.067 323.68C252.68 325.547 254.663 328.113 256.017 331.38C257.417 334.647 258.117 338.333 258.117 342.44C258.117 349.253 256.577 354.76 253.497 358.96C250.417 363.16 245.587 365.26 239.007 365.26C234.947 365.26 231.4 364.7 228.367 363.58V372.4H235.857V378H216.327V372.4H222.347V327.53H216.887V321.93L228.367 322V328.86C229.813 326.06 231.563 324.03 233.617 322.77C235.67 321.51 238.12 320.88 240.967 320.88ZM228.367 357.42C231.213 358.82 234.807 359.52 239.147 359.52C242.927 359.52 245.96 358.143 248.247 355.39C250.533 352.59 251.677 348.343 251.677 342.65C251.677 338.263 250.743 334.553 248.877 331.52C247.057 328.487 244.327 326.97 240.687 326.97C237.14 326.97 234.2 328.393 231.867 331.24C229.533 334.04 228.367 338.73 228.367 345.31V357.42ZM319.417 357.35V328.23C316.524 326.923 313.001 326.27 308.847 326.27C305.067 326.27 302.034 327.67 299.747 330.47C297.461 333.223 296.317 337.447 296.317 343.14C296.317 347.527 297.227 351.237 299.047 354.27C300.914 357.303 303.667 358.82 307.307 358.82C310.294 358.82 312.884 357.793 315.077 355.74C317.317 353.687 318.764 350.303 319.417 345.59C319.651 343.863 319.767 342.16 319.767 340.48L323.337 344.05C322.451 349.603 321.144 354.037 319.417 357.35ZM291.907 354.41C290.554 351.143 289.877 347.457 289.877 343.35C289.877 336.537 291.417 331.03 294.497 326.83C297.577 322.63 302.407 320.53 308.987 320.53C312.114 320.53 314.937 320.903 317.457 321.65C320.024 322.35 322.684 323.493 325.437 325.08V372.4H331.527V378H310.177V372.4H319.417V357.35C317.971 360.01 316.221 361.947 314.167 363.16C312.161 364.327 309.781 364.91 307.027 364.91C303.527 364.91 300.471 363.977 297.857 362.11C295.291 360.243 293.307 357.677 291.907 354.41ZM375.958 322V328.3C378.665 325.733 381.115 323.867 383.308 322.7C385.548 321.533 387.695 320.95 389.748 320.95C393.108 320.95 395.698 322.093 397.518 324.38C399.385 326.667 400.318 329.98 400.318 334.32V339.29L394.298 338.59V336.56C394.298 333.107 393.878 330.61 393.038 329.07C392.198 327.53 390.775 326.76 388.768 326.76C387.088 326.76 385.128 327.483 382.888 328.93C380.648 330.377 378.338 332.337 375.958 334.81V358.4H387.018V364H364.338V358.4H369.938V327.6H364.408V322H375.958ZM434.809 349.93H440.619C442.346 353.15 444.422 355.53 446.849 357.07C449.276 358.61 451.726 359.38 454.199 359.38C459.612 359.38 462.319 357.443 462.319 353.57C462.319 351.47 461.386 349.837 459.519 348.67C457.699 347.503 455.016 346.477 451.469 345.59C448.436 344.843 445.892 344.073 443.839 343.28C441.832 342.487 440.036 341.203 438.449 339.43C436.862 337.657 436.069 335.3 436.069 332.36C436.069 328.58 437.376 325.733 439.989 323.82C442.602 321.86 445.846 320.88 449.719 320.88C454.199 320.88 457.746 322.187 460.359 324.8V321.51H466.099V333.34H460.359C459.426 331.1 458.212 329.42 456.719 328.3C455.272 327.18 452.986 326.62 449.859 326.62C447.339 326.62 445.379 327.133 443.979 328.16C442.579 329.187 441.879 330.493 441.879 332.08C441.879 334.04 442.836 335.58 444.749 336.7C446.662 337.773 449.486 338.777 453.219 339.71C456.252 340.457 458.842 341.297 460.989 342.23C463.182 343.163 465.026 344.54 466.519 346.36C468.012 348.18 468.759 350.537 468.759 353.43C468.759 356.977 467.499 359.823 464.979 361.97C462.459 364.07 459.052 365.12 454.759 365.12C452.192 365.12 449.602 364.537 446.989 363.37C444.422 362.203 442.299 360.5 440.619 358.26V364.56H434.809V349.93ZM521.73 327.6V348.46C521.73 353.733 522.803 357.023 524.95 358.33C526.023 358.983 527.68 359.31 529.92 359.31C532.347 359.31 535.147 358.983 538.32 358.33L539.3 364C537.807 364.327 535.94 364.583 533.7 364.77C531.507 364.957 529.523 365.05 527.75 365.05C523.923 365.05 520.96 363.79 518.86 361.27C516.76 358.703 515.71 355.063 515.71 350.35V327.6H507.17V322H515.71V311.5H521.73V322H536.15V327.6H521.73ZM585.201 349.44C585.201 352.893 585.621 355.39 586.461 356.93C587.301 358.47 588.724 359.24 590.731 359.24C594.138 359.24 598.408 356.557 603.541 351.19V327.67H597.941V322.07H609.561V354.9C609.561 355.88 609.771 356.72 610.191 357.42C610.611 358.073 611.241 358.4 612.081 358.4H615.301V364H611.941C609.514 364 607.624 363.51 606.271 362.53C604.964 361.503 604.124 359.847 603.751 357.56C601.278 359.987 598.828 361.853 596.401 363.16C593.974 364.42 591.758 365.05 589.751 365.05C586.391 365.05 583.778 363.907 581.911 361.62C580.091 359.333 579.181 356.02 579.181 351.68V327.6H574.701V322H585.201V349.44ZM661.692 322V327.6H655.602L664.702 354.55L674.992 327.6H668.832V322H686.052V327.6H681.362L667.572 364H661.692L649.162 327.6H644.472V322H661.692ZM759.323 322V327.46H755.613L750.993 364H745.183L737.763 343.7L730.553 364H724.673L719.563 327.46H715.363V322H732.023V327.46H725.653L728.873 352.59L734.963 335.72H740.633L746.793 352.17L749.313 327.46H742.663V322H759.323ZM828.953 327.6H822.653L811.803 341.67L823.773 358.4H828.953V364H821.113L821.043 364.07L820.973 364H812.083V358.4H816.913L808.863 347.34L800.253 358.4H805.293V364H788.423V358.4H793.743L805.573 342.79L794.583 327.6H788.423V322H805.293V327.6H801.793L808.653 337.19L816.073 327.6H812.083V322H828.953V327.6ZM876.534 322V327.46H870.444L880.244 352.31L889.414 327.46H883.674V322H900.894V327.46H895.784L881.434 365.96C880.081 370.347 877.794 373.427 874.574 375.2C871.401 377.02 867.528 377.93 862.954 377.93L861.484 372.12C863.864 372.12 865.894 371.98 867.574 371.7C869.301 371.42 870.864 370.767 872.264 369.74C873.711 368.713 874.808 367.173 875.554 365.12L877.094 360.85L864.004 327.46H859.314V322H876.534ZM967.445 327.6L940.915 358.4H963.385V350.98H968.985V364H933.985V357.7L959.815 327.6H940.215V334.67H934.615V322H967.445V327.6ZM165.666 461.26V427.87C164.079 429.41 162.282 430.693 160.276 431.72C158.269 432.7 156.216 433.33 154.116 433.61L152.226 428.29C156.426 427.403 159.669 425.723 161.956 423.25C164.289 420.73 165.456 417.58 165.456 413.8L165.666 413.94V413.8H171.966V461.26H187.996V467H149.496V461.26H165.666ZM221.367 460.84L239.427 441.87C242.133 439.023 244.093 436.9 245.307 435.5C246.52 434.053 247.477 432.56 248.177 431.02C248.923 429.48 249.297 427.8 249.297 425.98C249.297 423.647 248.527 421.92 246.987 420.8C245.447 419.68 243.393 419.12 240.827 419.12C238.027 419.12 235.297 419.633 232.637 420.66C230.023 421.687 227.293 423.203 224.447 425.21L221.227 420.66C224.027 418.327 227.153 416.53 230.607 415.27C234.06 413.963 237.63 413.31 241.317 413.31C244.443 413.31 247.08 413.893 249.227 415.06C251.42 416.227 253.053 417.767 254.127 419.68C255.247 421.593 255.807 423.623 255.807 425.77C255.807 428.197 255.387 430.39 254.547 432.35C253.753 434.263 252.54 436.2 250.907 438.16C249.32 440.073 246.87 442.733 243.557 446.14L228.927 461.26H256.367V467H221.367V460.84ZM324.317 425.49C324.317 431.697 321.611 436.107 316.197 438.72C319.651 439.747 322.404 441.473 324.457 443.9C326.557 446.327 327.607 449.197 327.607 452.51C327.607 457.177 326.067 460.957 322.987 463.85C319.954 466.697 315.427 468.12 309.407 468.12C301.521 468.12 294.964 466.65 289.737 463.71L292.327 458.39C295.594 459.93 298.441 460.98 300.867 461.54C303.294 462.1 306.117 462.38 309.337 462.38C313.024 462.38 315.917 461.47 318.017 459.65C320.117 457.83 321.167 455.357 321.167 452.23C321.167 449.01 319.767 446.56 316.967 444.88C314.167 443.153 310.434 442.29 305.767 442.29H301.427L301.357 436.55L305.697 436.48C309.571 436.433 312.581 435.57 314.727 433.89C316.874 432.21 317.947 429.643 317.947 426.19C317.947 423.81 317.107 421.92 315.427 420.52C313.747 419.12 311.624 418.42 309.057 418.42C306.911 418.42 304.787 418.817 302.687 419.61C300.587 420.357 298.371 421.617 296.037 423.39L292.537 418.84C294.731 417.02 297.321 415.55 300.307 414.43C303.341 413.263 306.421 412.68 309.547 412.68C312.347 412.68 314.867 413.193 317.107 414.22C319.347 415.2 321.097 416.67 322.357 418.63C323.664 420.543 324.317 422.83 324.317 425.49ZM381.698 461.26V449.99H358.388L366.998 419.12L372.738 420.87L366.508 444.25H381.698V413.8L387.998 413.73V444.25H399.548V449.99H387.998V461.26H399.128V467H370.428V461.26H381.698ZM450.979 440.19C446.592 440.19 441.949 441.52 437.049 444.18L437.119 418.63H443.419V419.54H437.119V413.8H466.379V419.54H443.419V435.64C446.359 434.847 449.462 434.45 452.729 434.45C456.369 434.45 459.566 435.197 462.319 436.69C465.119 438.137 467.289 440.097 468.829 442.57C470.369 445.043 471.139 447.75 471.139 450.69C471.139 454.377 470.369 457.527 468.829 460.14C467.289 462.753 465.142 464.737 462.389 466.09C459.636 467.443 456.462 468.12 452.869 468.12C450.022 468.12 446.872 467.747 443.419 467C440.012 466.3 436.652 465.273 433.339 463.92L435.369 458.46C440.782 461.073 446.312 462.38 451.959 462.38C455.739 462.38 458.796 461.423 461.129 459.51C463.509 457.597 464.699 454.75 464.699 450.97C464.699 447.89 463.532 445.347 461.199 443.34C458.866 441.287 455.459 440.237 450.979 440.19ZM531.88 414.15C533.56 414.43 535.38 414.967 537.34 415.76L535.52 421.36C534.167 420.707 532.72 420.217 531.18 419.89C529.64 419.517 528.217 419.33 526.91 419.33C518.137 419.33 513.073 425.187 511.72 436.9C511.487 439.233 511.37 441.473 511.37 443.62V443.76L510.81 444.39L507.31 440.54C508.71 439.14 510.18 437.927 511.72 436.9C515.127 434.66 518.977 433.54 523.27 433.54C527.33 433.54 530.783 434.31 533.63 435.85C536.523 437.39 538.693 439.42 540.14 441.94C541.587 444.413 542.31 447.05 542.31 449.85C542.31 453.583 541.517 456.827 539.93 459.58C538.39 462.333 536.267 464.457 533.56 465.95C530.9 467.397 527.937 468.12 524.67 468.12C518.79 468.12 514.03 466.067 510.39 461.96C506.797 457.853 505 451.273 505 442.22C505 436.013 505.91 430.787 507.73 426.54C509.55 422.247 512.07 419.027 515.29 416.88C518.557 414.733 522.29 413.66 526.49 413.66C528.403 413.66 530.2 413.823 531.88 414.15ZM516.97 440.33C514.823 441.03 512.957 442.173 511.37 443.76C511.417 449.827 512.583 454.447 514.87 457.62C517.203 460.793 520.213 462.38 523.9 462.38C527.68 462.38 530.62 461.283 532.72 459.09C534.82 456.85 535.87 453.933 535.87 450.34C535.87 447.073 534.797 444.413 532.65 442.36C530.503 440.307 527.423 439.28 523.41 439.28C521.263 439.28 519.117 439.63 516.97 440.33ZM586.041 466.93L604.801 419.54H577.641V413.8H611.451V419.54L592.691 466.93H586.041ZM665.962 441.8C663.302 441.8 661.062 442.29 659.242 443.27C657.422 444.203 656.068 445.44 655.182 446.98C654.295 448.473 653.852 450.083 653.852 451.81C653.852 455.077 654.902 457.667 657.002 459.58C659.148 461.447 662.135 462.38 665.962 462.38C669.788 462.38 672.752 461.447 674.852 459.58C676.998 457.667 678.072 455.077 678.072 451.81C678.072 450.083 677.628 448.473 676.742 446.98C675.855 445.44 674.502 444.203 672.682 443.27C670.862 442.29 668.622 441.8 665.962 441.8ZM665.962 436.06C669.228 436.06 671.725 435.22 673.452 433.54C675.225 431.813 676.112 429.713 676.112 427.24C676.112 424.673 675.178 422.55 673.312 420.87C671.492 419.143 669.042 418.28 665.962 418.28C662.882 418.28 660.408 419.143 658.542 420.87C656.722 422.55 655.812 424.673 655.812 427.24C655.812 429.713 656.675 431.813 658.402 433.54C660.175 435.22 662.695 436.06 665.962 436.06ZM665.962 468.12C662.742 468.12 659.732 467.583 656.932 466.51C654.132 465.39 651.845 463.617 650.072 461.19C648.298 458.763 647.412 455.66 647.412 451.88C647.412 449.08 648.088 446.56 649.442 444.32C650.842 442.08 652.732 440.26 655.112 438.86C653.292 437.6 651.892 435.99 650.912 434.03C649.978 432.023 649.512 429.76 649.512 427.24C649.512 424.3 650.188 421.733 651.542 419.54C652.942 417.3 654.878 415.573 657.352 414.36C659.825 413.147 662.695 412.54 665.962 412.54C669.228 412.54 672.098 413.147 674.572 414.36C677.045 415.573 678.958 417.3 680.312 419.54C681.712 421.733 682.412 424.3 682.412 427.24C682.412 429.76 681.922 432.023 680.942 434.03C680.008 435.99 678.632 437.6 676.812 438.86C679.192 440.26 681.058 442.08 682.412 444.32C683.812 446.56 684.512 449.08 684.512 451.88C684.512 455.66 683.625 458.763 681.852 461.19C680.078 463.617 677.792 465.39 674.992 466.51C672.192 467.583 669.182 468.12 665.962 468.12ZM728.663 466.72C726.983 466.393 725.163 465.833 723.203 465.04L725.023 459.44C726.376 460.093 727.823 460.607 729.363 460.98C730.903 461.307 732.326 461.47 733.633 461.47C742.406 461.47 747.469 455.613 748.823 443.9C749.056 441.567 749.173 439.327 749.173 437.18V437.04L749.733 436.41L753.233 440.26C751.833 441.66 750.363 442.873 748.823 443.9C745.416 446.14 741.566 447.26 737.273 447.26C733.213 447.26 729.736 446.49 726.843 444.95C723.996 443.41 721.849 441.403 720.403 438.93C718.956 436.41 718.233 433.75 718.233 430.95C718.233 427.217 719.003 423.973 720.543 421.22C722.129 418.467 724.253 416.367 726.913 414.92C729.619 413.427 732.606 412.68 735.873 412.68C741.753 412.68 746.489 414.733 750.083 418.84C753.723 422.947 755.543 429.527 755.543 438.58C755.543 444.787 754.633 450.037 752.813 454.33C750.993 458.577 748.449 461.773 745.183 463.92C741.963 466.067 738.253 467.14 734.053 467.14C732.139 467.14 730.343 467 728.663 466.72ZM727.823 421.78C725.723 423.973 724.673 426.867 724.673 430.46C724.673 433.727 725.746 436.387 727.893 438.44C730.039 440.493 733.119 441.52 737.133 441.52C739.279 441.52 741.426 441.17 743.573 440.47C745.719 439.77 747.586 438.627 749.173 437.04C749.126 430.973 747.936 426.353 745.603 423.18C743.316 420.007 740.329 418.42 736.643 418.42C732.863 418.42 729.923 419.54 727.823 421.78ZM808.723 468.12C802.657 468.12 798.037 465.6 794.863 460.56C791.69 455.52 790.103 448.777 790.103 440.33C790.103 434.87 790.803 430.063 792.203 425.91C793.603 421.757 795.68 418.513 798.433 416.18C801.233 413.847 804.663 412.68 808.723 412.68C814.79 412.68 819.41 415.153 822.583 420.1C825.757 425 827.343 431.743 827.343 440.33C827.343 448.777 825.757 455.52 822.583 460.56C819.41 465.6 814.79 468.12 808.723 468.12ZM808.723 462.38C812.877 462.38 815.933 460.397 817.893 456.43C819.9 452.463 820.903 447.097 820.903 440.33C820.903 433.657 819.9 428.337 817.893 424.37C815.933 420.403 812.877 418.42 808.723 418.42C804.57 418.42 801.49 420.403 799.483 424.37C797.523 428.337 796.543 433.657 796.543 440.33C796.543 447.097 797.523 452.463 799.483 456.43C801.49 460.397 804.57 462.38 808.723 462.38ZM808.723 446.56C807.09 446.56 805.667 445.977 804.453 444.81C803.287 443.597 802.703 442.173 802.703 440.54C802.703 438.907 803.287 437.507 804.453 436.34C805.667 435.127 807.09 434.52 808.723 434.52C810.357 434.52 811.757 435.127 812.923 436.34C814.137 437.507 814.743 438.907 814.743 440.54C814.743 442.173 814.137 443.597 812.923 444.81C811.757 445.977 810.357 446.56 808.723 446.56Z" fill="black"/>
</svg>
